<svg xmlns="http://www.w3.org/2000/svg" viewBox="0 0 500 500"><g id="freepik--character-2--inject-97"><g id="freepik--Character--inject-97"><path d="M373.25,220c-1.8,3.2-13.35,13.36-14.4,14.52s-2.28,2.22-3.32,3.19c-1.24,1.16-2.22,2.48-3.86,3.14a1.78,1.78,0,0,1-1.46.06c-.23-.12-.4-.32-.62-.44s-.8-.19-1.11-.43-.47-1-.92-1.35a3.87,3.87,0,0,0-.67-.26c-.41-.18-.67-.85-.84-1.24-.09-.21-.17-.68-.49-.64a19.52,19.52,0,0,0-2.46.77c-1.87.61-3.08.74-3.35-.17-.39-1.27,1.08-1.59,3.34-2.55s7-2.94,6.79-3.46-1.78-1.43-2.41-2.59-.42-2.63.43-2c.48.38,2.34,1.32,3.16,1.79s2.3,1.36,3.31,1,11.18-13,11.18-13,8.12-17.39,10.14-20.95,3.64-5.59,7-5.71l.42,6.42-.87,7.24S374.7,217.4,373.25,220Z" style="fill:#ffa8a7"></path><path d="M383.76,189.55s-3.29-.83-5.4,1.47-3,4.07-4.78,7.76S366.93,213,366.93,213a9.33,9.33,0,0,0,8.42,3.82L384.24,200Z" style="fill:#263238"></path><path d="M377.32,205.72a31,31,0,0,1,.61,7.81c-.23,3.44-2.68,9.75-2.68,9.75s1.93,1.75,7.17.93c4.27-.67,2.76-13.54.31-16A8.09,8.09,0,0,0,377.32,205.72Z" style="fill:#37474f"></path><path d="M406.86,315.56a30.82,30.82,0,0,1,.49,5.15c.06,3.12.64,4.23.71,6.79.09,2.93-.42,4-1.61,5.68s-4.3,3.14-5.62.35-1.15-4.6-.73-7.48.49-4.61.74-6.87c.23-2,.49-3.52.49-3.52Z" style="fill:#263238"></path><path d="M398,291l10.29-.19c-.16,6.87-1.25,18.31-1.43,24.75,0,1.21,0,9.43-.42,11.92-.69,3.75-5.14,3.25-5.38,1s.29-11.83.27-12.82c0-4.13-1.9-14.92-2.91-22.34C398.37,293,398,291.35,398,291Z" style="fill:#ffa8a7"></path><path d="M382.87,310.22s.53,0,.62.46.12,1.33.33,2.18a12.19,12.19,0,0,1,.37,4.07c-.18,1-2.37,2.39-3.86,2.64a11.61,11.61,0,0,0-4.79,2.84,11.47,11.47,0,0,1-6.65,2.61c-2.5,0-4.24-.83-5.07-2.17s.75-1.5,3.61-3.35l2.22-1.44c4.52-3,6.18-4.54,7.46-7.5Z" style="fill:#263238"></path><path d="M377.08,308.61c.07-2.13-1-17.8-1-17.8l8.85,1c-2.09,12.49-2.26,16.74-2,18.56h0a1.66,1.66,0,0,1,.06.52c0,2.43-2.75,3.74-4.89,5.36a19.49,19.49,0,0,1-5.55,3.47c-1.65.56-4.69.77-5.08-.23a67.81,67.81,0,0,0,8.21-6.84C376.63,311.57,377,310.73,377.08,308.61Z" style="fill:#ffa8a7"></path><path d="M400.92,216.85a37.35,37.35,0,0,1,6.47,13.34c2.92,11.8-1.67,37-1.67,37,.15,1.71,2.11,5.08,2.84,12.61.86,8.9-1.59,32.73-1.59,32.73a5.7,5.7,0,0,1-5.77.12s-6.23-35-7.34-43.86c-1-7.72-3-23.76-3-23.76l-4.46,23.72s.62,4.33.94,7.62c.51,5.21-4.56,31.33-4.56,31.33a7.17,7.17,0,0,1-5.74-.11s-2.25-33.75-2.72-40c-.48-6.45,1.19-21.49,2.43-33.47.37-3.6,2.2-14.74,2.84-17.83Z" style="fill:#455a64"></path><path d="M390.9,245.07l-1.06-7.31a18.17,18.17,0,0,1-8.6-2.78,11,11,0,0,0,7.2,4l.67,6.54L387,265.92Z" style="fill:#263238;opacity:0.6000000000000001"></path><path d="M379.1,209.05c.11,2.15.53,7.26.53,7.26,8.76,5.93,21.29.54,21.29.54l1.82-12.46s-4.57-6.4-.28-13.15l-6.85-1.35-8.17-.67-4.75.43c-2.68,2-4.46,6-5.32,8.16A10.35,10.35,0,0,0,379.1,209.05Z" style="fill:#FF81AE"></path><g style="opacity:0.6000000000000001"><path d="M379.1,209.05c.11,2.15.53,7.26.53,7.26,8.76,5.93,21.29.54,21.29.54l1.82-12.46s-4.57-6.4-.28-13.15l-6.85-1.35-8.17-.67-4.75.43c-2.68,2-4.46,6-5.32,8.16A10.35,10.35,0,0,0,379.1,209.05Z" style="fill:#fff"></path></g><path d="M396.3,189.67s7.51.65,9,1.35,3.92,4.94,1.73,11.11-4.19,13.39-4,14.85,5.46,9,5.46,9a14.26,14.26,0,0,1-4.82,2.31L401,222.41l.63,6.23a31.93,31.93,0,0,1-8.28.87S390.82,205.62,396.3,189.67Z" style="fill:#37474f"></path><polygon points="360.79 215.07 382.98 216.57 394.26 241.58 373.06 239.62 360.79 215.07" style="fill:#FF81AE"></polygon><polygon points="360.79 215.07 382.98 216.57 394.26 241.58 373.06 239.62 360.79 215.07" style="opacity:0.1"></polygon><path d="M381.33,232.38a5,5,0,0,0,4,3.17,11.15,11.15,0,0,0,5.77-1.08l-.95-2.09Z" style="opacity:0.15"></path><path d="M367.71,217.68l-.33-.77c-.19-.43,1.05-.69,2.76-.58l3.26.21c1.71.11,3.24.54,3.42,1l.33.77Z" style="opacity:0.15"></path><path d="M365.66,214.92c-.12-.26.37-.43,1.09-.38l1.29.11s-.7-1.67,2.15-1.59A4.36,4.36,0,0,1,374,215l1.39.12a2.52,2.52,0,0,1,1.64.6l.25.47-11.43-.77Z" style="fill:#f0f0f0"></path><path d="M367.32,215.5c1.05.05,1.49.11,1.77.76s.5,1.31.5,1.31l5.06.35s-.43-.95-.58-1.32,0-.64.78-.58v-.32l-7.92-.47Z" style="fill:#e0e0e0"></path><path d="M367.59,217.78l-.33-.77c-.18-.43,1.05-.69,2.76-.58l3.27.21c1.7.11,3.23.54,3.42,1l.32.77Z" style="fill:#f5f5f5"></path><path d="M395.55,188.5H377.13V172.08a13.45,13.45,0,0,1,13.45-13.45h0A13.45,13.45,0,0,1,404,172.08V180A8.48,8.48,0,0,1,395.55,188.5Z" style="fill:#263238"></path><path d="M380.79,166.51c-.78.32-2.4,1.7-2.43,9.71,0,6.78,2.12,8.52,3.21,9s3.23.28,5.31,0l-.05,3.34a14.82,14.82,0,0,0-1.65,10.2c4.26-3.29,10.65-8.88,10.65-8.88l.2-9.41s1.19,1.22,3.3-.53c1.75-1.44,2.39-3.94,1.1-5.33a3,3,0,0,0-4.75.81c-4.44,0-6.35-4.95-6.64-8C387.47,168.55,383.19,169.49,380.79,166.51Z" style="fill:#ffa8a7"></path><path d="M383.22,172.43c4.48-.66,5.82-5,5.82-5s2.63-7-4.37-7.41c-10.76-.68-9.69,12.44-9.69,12.44Z" style="fill:#263238"></path><path d="M386.06,174.51a.84.84,0,1,0,.9-.8A.85.85,0,0,0,386.06,174.51Z" style="fill:#263238"></path><path d="M386,180.54l-2.31.67a1.19,1.19,0,0,0,1.47.86A1.27,1.27,0,0,0,386,180.54Z" style="fill:#f28f8f"></path><path d="M379.22,172.43,381,171.3a1,1,0,0,0-1.4-.33A1.08,1.08,0,0,0,379.22,172.43Z" style="fill:#263238"></path><path d="M386.9,171.53l1.81,1a1,1,0,0,0-.37-1.39A1.09,1.09,0,0,0,386.9,171.53Z" style="fill:#263238"></path><path d="M379.62,174.35a.85.85,0,0,0,.77.93.86.86,0,0,0,.9-.81.85.85,0,0,0-.77-.93A.86.86,0,0,0,379.62,174.35Z" style="fill:#263238"></path><polygon points="383.76 173.88 383.66 179.35 381.02 178.46 383.76 173.88" style="fill:#f28f8f"></polygon><path d="M386.92,185.47c2.15-.22,6.6-1.37,7.33-3.1a4.55,4.55,0,0,1-1.61,2.19c-1.34,1.09-5.74,2.25-5.74,2.25Z" style="fill:#f28f8f"></path><path d="M383.84,228.93a14,14,0,0,0,4.29-1.25,10.55,10.55,0,0,1-2.41-.65,1.5,1.5,0,0,1-.92-1.82c.12-.3.85.06,2.17,0a15.82,15.82,0,0,1,4.61,0c.67.14,1.58.6,2.17.26a147.22,147.22,0,0,0,12.81-8.89h0l-3.9-11.66a15.48,15.48,0,0,1,1.06-13.9c2.65.46,4.7,1,6.68,8,2.08,7.4,5,17,4.84,20.06s-8.13,6.2-14.12,9.18c-2.53,1.26-6.71,3.66-8.35,4.51-5.67,2.95-8.42,2.67-10.39.75C379.23,230.47,380.43,229.36,383.84,228.93Z" style="fill:#ffa8a7"></path><path d="M403.37,190.54c5.37.33,6,4.47,7.53,8.57,1.45,3.82,3.33,13.89,3.33,13.89s-3.93,3.95-8.14,2.92l-3.73-11.69S397.92,195.2,403.37,190.54Z" style="fill:#263238"></path></g></g></svg>