<svg xmlns="http://www.w3.org/2000/svg" viewBox="0 0 500 500"><g id="freepik--character-1--inject-97"><g id="freepik--character--inject-97"><g id="freepik--Glass--inject-97"><g id="freepik--magnifying-glass--inject-97"><path d="M195.87,305.65h0c.53-1.25,1.9-2.16,4-2.41a14.47,14.47,0,0,1,12,5.12c1.25,1.67,1.54,3.28,1,4.54h0l-34.32,89.92h0c-.67,1.89-2.61,3.27-5.64,3.64-5.79.7-13.31-2.51-16.81-7.16-1.84-2.45-2.19-4.8-1.29-6.59h0Z" style="fill:#455a64"></path><path d="M211.87,308.36c2.5,3.34,1.18,6.45-3,6.95a14.46,14.46,0,0,1-12-5.12c-2.51-3.34-1.18-6.45,3-6.95A14.47,14.47,0,0,1,211.87,308.36Z" style="fill:#37474f"></path><path d="M212.76,279.51a8.7,8.7,0,0,1,7.27,3.1,2.75,2.75,0,0,1,.61,2.74h0l-11.13,26.12h0a2.78,2.78,0,0,1-2.4,1.45,8.74,8.74,0,0,1-7.28-3.09,2.79,2.79,0,0,1-.61-2.75L210.36,281h0A2.76,2.76,0,0,1,212.76,279.51Z" style="fill:#FF81AE"></path><path d="M212.76,279.51a8.7,8.7,0,0,1,7.27,3.1,2.75,2.75,0,0,1,.61,2.74h0l-11.13,26.12h0a2.78,2.78,0,0,1-2.4,1.45,8.74,8.74,0,0,1-7.28-3.09,2.79,2.79,0,0,1-.61-2.75L210.36,281h0A2.76,2.76,0,0,1,212.76,279.51Z" style="opacity:0.2"></path><path d="M205.23,293l.77.45s0,0,0,0l.12.07v0l.15.08.16.09a16.82,16.82,0,0,0,1.52.79c.63.32,1.28.6,1.92.85a18.57,18.57,0,0,0,1.76.65,296,296,0,0,0,2,.58c.35.1.68.19,1,.26a7,7,0,0,0,.77.16l.25.05,5-11.69h0a2.75,2.75,0,0,0-.61-2.74,6.24,6.24,0,0,0-1.05-1.07,37.54,37.54,0,0,1-9.57,1.64Z" style="opacity:0.2"></path><path d="M204.85,315l-36.21,91.3a15.79,15.79,0,0,0,4.27.13c3-.37,5-1.74,5.64-3.65h0l34.32-89.9c-.54,1.26-1.91,2.15-4,2.4A11.81,11.81,0,0,1,204.85,315Z" style="opacity:0.15"></path><path d="M318,171.4c0-.75-.05-1.49-.11-2.23s-.09-1.46-.17-2.18c0-.49-.09-1-.15-1.45-.12-1.25-.3-2.49-.51-3.67-.09-.54-.19-1.09-.3-1.63s-.21-1-.31-1.52c-.32-1.37-.65-2.7-1-4-.2-.61-.39-1.21-.59-1.81a1,1,0,0,1-.09-.28c-.22-.59-.43-1.16-.65-1.72s-.52-1.3-.81-1.91-.41-.9-.65-1.34a7.17,7.17,0,0,0-.48-1c-.19-.39-.39-.79-.61-1.16a1.53,1.53,0,0,0-.16-.25c-.18-.33-.38-.67-.58-1s-.28-.42-.41-.63a32.67,32.67,0,0,0-3.18-4.23c-.2-.23-.41-.45-.59-.67s-.33-.35-.5-.52-.43-.42-.65-.65a20.41,20.41,0,0,0-1.92-1.72c-.32-.27-.65-.53-1-.77s-.67-.5-1-.74a18.66,18.66,0,0,0-1.65-1.08l-.44-.27-.09-.08h0L289,126.87h0l-.15-.09a33,33,0,0,0-16.46-4.16c-8.59,0-18.28,2.81-28.54,8.73C208.56,151.72,180,201.23,180,242c0,20.31,7.1,34.6,18.59,41.29l.1.06h0L209,289.39h0l.12.08v0l.15.08.16.09a16.82,16.82,0,0,0,1.52.79,20.4,20.4,0,0,0,1.92.85,17.61,17.61,0,0,0,1.76.65c.31.11.62.2.94.28a6.88,6.88,0,0,0,1,.29,9.88,9.88,0,0,0,1,.26,5.19,5.19,0,0,0,.76.17c.45.09.92.19,1.39.24a.86.86,0,0,0,.32,0c.55.09,1.11.17,1.65.23,9.52,1,20.58-1.69,32.41-8.51,35.28-20.37,63.88-69.91,63.88-110.62C318.07,173.33,318.05,172.37,318,171.4ZM201.65,267.5a62.3,62.3,0,0,1-2.16-16.71c0-38.6,28.24-87.51,61.66-106.81a59.76,59.76,0,0,1,15.64-6.47,34.34,34.34,0,0,1,8-1,25.19,25.19,0,0,1,4.08.32l.11,0c6.84,8.09,7.85,21.06,7.85,28,0,38.59-28.21,87.5-61.65,106.79-8.5,4.91-16.68,7.5-23.69,7.5a16.38,16.38,0,0,1-4.31-.55h0A30.42,30.42,0,0,1,201.65,267.5Z" style="fill:#37474f"></path><path d="M308.89,171.57c0,20.51-8,43.91-20.45,64.26-.59,1-1.19,1.91-1.81,2.86s-1.05,1.64-1.6,2.45c-1.17,1.74-2.36,3.46-3.6,5.14-.59.8-1.18,1.59-1.79,2.37s-1.32,1.72-2,2.57q-1.93,2.43-4,4.73c-.89,1-1.8,2-2.71,3a103.78,103.78,0,0,1-23.74,19.4c-1.6.92-3.18,1.77-4.75,2.52a47.39,47.39,0,0,1-16.25,4.86c-.92.09-1.82.12-2.69.12-.46,0-.91,0-1.35,0h0a20.58,20.58,0,0,1-2.54-.27c-.41-.06-.81-.12-1.2-.21s-.78-.17-1.17-.29a18.69,18.69,0,0,1-10-6.48,16.41,16.41,0,0,0,4.3.55c7,0,15.2-2.59,23.7-7.5,33.44-19.28,61.64-68.2,61.64-106.79,0-6.94-1-19.9-7.84-28l-.11,0c8.71,1.39,13.67,7.32,16.46,14.17a40.34,40.34,0,0,1,1.91,6c0,.11,0,.22.07.34.09.36.18.74.25,1.11s.14.72.21,1.08a2,2,0,0,1,.05.28q.12.58.21,1.14c.21,1.44.39,2.83.51,4.17,0,.39.07.75.09,1.12s.05.56.06.83c0,.12,0,.24,0,.35,0,.3,0,.59.05.88a2.09,2.09,0,0,1,0,.25c0,.37,0,.74,0,1.09C308.88,170.29,308.89,171,308.89,171.57Z" style="opacity:0.25"></path><path d="M208.14,288.88l-9.59-5.64C187.06,276.53,180,262.25,180,242c0-18.16,5.7-38.06,15.11-56.34L206,191.91c-9.43,18.28-15.67,38-15.67,56.14C190.32,267.91,197.08,282,208.14,288.88Z" style="fill:#263238"></path><path d="M299.46,133l-.09-.08h0L289,126.88h0l-.14-.09a32.88,32.88,0,0,0-16.47-4.17c-8.58,0-18.28,2.81-28.55,8.73-19.54,11.29-37,31.54-48.74,54.28L205.94,192l-.24.45c11.75-22.49,29.16-42.85,48.49-55,17.5-11,34.11-11.18,45.71-4.12Z" style="fill:#455a64"></path></g><path d="M303.33,168.3c0,38.59-28.24,87.51-61.66,106.8A59.47,59.47,0,0,1,226,281.58a34.31,34.31,0,0,1-8.05,1,23,23,0,0,1-8.18-1.39c-4.15-3.48-6.65-8.52-8.15-13.7a62.3,62.3,0,0,1-2.16-16.71c0-38.6,28.24-87.51,61.66-106.81a59.76,59.76,0,0,1,15.64-6.47,34.34,34.34,0,0,1,8-1,23.08,23.08,0,0,1,8.18,1.4c4.15,3.47,6.65,8.52,8.15,13.7A62.25,62.25,0,0,1,303.33,168.3Z" style="fill:#fff;opacity:0.30000000000000004"></path></g><g id="freepik--Boy--inject-97"><path d="M172.14,343.48c1.89.42,5.5.8,5.5.8l2.59-5.49-5.81-2.69Z" style="fill:#ffa8a7"></path><path d="M158,339.38a38.47,38.47,0,0,0,14.67,4.17l3.12-4.7-15.68-10.57Z" style="fill:#FF81AE"></path><path d="M158,339.38a38.47,38.47,0,0,0,14.67,4.17l3.12-4.7-15.68-10.57Z" style="opacity:0.30000000000000004"></path><path d="M171.69,343.47l2.64.39,2-6s-2.59-1.24-2.66-1.2S171.69,343.47,171.69,343.47Z" style="fill:#FF81AE"></path><path d="M171.69,343.47l2.64.39,2-6s-2.59-1.24-2.66-1.2S171.69,343.47,171.69,343.47Z" style="opacity:0.4"></path><path d="M136.7,306.08a6.31,6.31,0,0,0-6.42,3.32,13.37,13.37,0,0,0-1,6.77c.6,5.29,4.57,16.84,4.57,16.84Z" style="fill:#FF81AE"></path><path d="M136.7,306.08a6.31,6.31,0,0,0-6.42,3.32,13.37,13.37,0,0,0-1,6.77c.6,5.29,4.57,16.84,4.57,16.84Z" style="opacity:0.4"></path><path d="M131,430.29c-.46.17-.72,1-.92,3.12-.12,1.3-.57,3,1.41,4.07a5,5,0,0,0,4.68-.05c1.72-1.06,2.58-3,4.59-4.61,1.77-1.38,4-2.4,5.41-4.92s1.2-4.19-1.73-4.19c-4.7,0-6.11,2.59-8.53,2.64C134.6,426.38,131.49,430.12,131,430.29Z" style="fill:#263238"></path><path d="M131,429.25v2.12c0,1,4.4,2.57,5.63.21.09-.2.57-3.1.57-3.1Z" style="fill:#ffa8a7"></path><path d="M151.41,442.59s-.83,0-1.16,3.41c-.13,1.3-.44,4,0,4.93s2.85,1.39,5.55,1.63a14.55,14.55,0,0,1,5.69,2.2,12.16,12.16,0,0,0,5.76,1.59c2.55,0,4.71-.25,6.53-1.69,1-.76,2.19-2.37,1.29-3.59a2.67,2.67,0,0,0-1.36-.71c-1.13-.43-2.28-.82-3.43-1.18a36.24,36.24,0,0,1-5.05-1.93c-2.38-1.18-5-2.49-6.83-4.49Z" style="fill:#263238"></path><path d="M151.42,440.83s0,1.57,0,2.46,1,2.24,3.78,2.16c1.93-.06,3.27-.57,3.2-2.16V441Z" style="fill:#ffa8a7"></path><path d="M129.81,401.2a58.13,58.13,0,0,1,2.55-11s-.7-9.5-1-18.51a239.43,239.43,0,0,1,.77-27.66s30.61-2.9,31.11,8.34-.23,39.85-.62,44.79-.8,9.57-1.84,18.75c-.9,7.92-2.36,25.09-2.36,25.09a7.41,7.41,0,0,1-7-.18s-2.3-23.06-2.57-28.76c-.34-7.38,1.38-11.46,1.38-11.46s-.65-4.64-1.79-14.2c-.8-6.75-1.87-14.43-1.87-14.43s-1,9.51-1.68,14.81c-.59,4.92-1.59,8.81-3.07,18-1.28,8-4.77,24.78-4.77,24.78a5.22,5.22,0,0,1-6-.3S128.81,408.1,129.81,401.2Z" style="fill:#263238"></path><path d="M146.57,372l-1.45-9.4s-6-1.89-9-5.44c0,0,1.61,4.13,7.16,6.35l2.23,7.91.38,6.53Z"></path><polygon points="151.59 303.31 150.16 313.35 141.13 313.04 142 301.31 151.59 303.31" style="fill:#ffa8a7"></polygon><path d="M158.08,290.92s2.42,3.55,2.16,3.91a6.15,6.15,0,0,1-2,.7Z" style="fill:#f28f8f"></path><path d="M154.29,290.33a3,3,0,1,1,3,2.91A2.95,2.95,0,0,1,154.29,290.33Zm.65,0A2.3,2.3,0,1,0,157.2,288,2.3,2.3,0,0,0,154.94,290.32Z" style="fill:#263238"></path><path d="M151.35,281.08c4.8.94,6.22,3,6.79,10.62.6,7.95-.17,10.46-1.2,11.55-.69.73-4.61.92-6.6.41-2.48-.64-8.1-2.54-10.79-6.49-3.15-4.66-4.06-11-.8-13.69C143.33,279.72,149.39,280.7,151.35,281.08Z" style="fill:#ffa8a7"></path><path d="M151.52,303.86c2.06.23,4.85,0,5.42-.61a14.22,14.22,0,0,1-5.14-1Z" style="fill:#f28f8f"></path><path d="M158.89,283l-.15.15c-1,.93-2.18,1.53-3.17,2.41a7.44,7.44,0,0,0-2.22,3.66c-.31,1.16-.42,2.53-1.67,3.08,0,0-.84-3.06-3.42-2.63s-2.91,3.76-1.23,5.75,3.2,1.2,3.2,1.2,0,4.4-1.92,6.92a13.31,13.31,0,0,1-6.3-.06c-2.51-.49-6.1-3.57-7.65-6.86-3.26-7-3.58-13.27.87-15.24.44-3.24,3-4.73,5.85-5.44,4.32-1.06,8.42,1.45,12.7.42a27.48,27.48,0,0,1,2.67-.68.54.54,0,0,1,.31,0c.23.11.22.42.16.66a5.68,5.68,0,0,1-1.23,2.34,13.31,13.31,0,0,0,4.85-.7A6.25,6.25,0,0,1,158.89,283Z" style="fill:#263238"></path><path d="M135.87,283,133,281.3a1.66,1.66,0,1,1,2.89,1.65Z" style="fill:#263238"></path><path d="M151.73,294l-.14-3.32a1.66,1.66,0,1,1,.14,3.32Z" style="fill:#263238"></path><polygon points="159.9 289.63 151.01 290.92 151.38 291.54 159.91 290.3 159.9 289.63" style="fill:#263238"></polygon><path d="M131.16,311.61c1.05-4.12,2.54-5.46,6.13-5.56a47.78,47.78,0,0,1,5.51.7c.38,1.75,4.88,2.93,9.43,2,1.36.39,5,1.37,6.07,1.78,3.23,1.17,4.79,4.52,5,15.14,0,0,.62,25.2,0,29.55a39.07,39.07,0,0,1-21.22,2c-9.69-2.17-10.84-6.2-10.84-6.2s.51-10.11.84-17.8c-.49-4.9-1.22-8.58-1.48-12.49A32.63,32.63,0,0,1,131.16,311.61Z" style="fill:#FF81AE"></path><g style="opacity:0.6000000000000001"><path d="M131.16,311.61c1.05-4.12,2.54-5.46,6.13-5.56a47.78,47.78,0,0,1,5.51.7c.38,1.75,4.88,2.93,9.43,2,1.36.39,5,1.37,6.07,1.78,3.23,1.17,4.79,4.52,5,15.14,0,0,.62,25.2,0,29.55a39.07,39.07,0,0,1-21.22,2c-9.69-2.17-10.84-6.2-10.84-6.2s.51-10.11.84-17.8c-.49-4.9-1.22-8.58-1.48-12.49A32.63,32.63,0,0,1,131.16,311.61Z" style="fill:#fff"></path></g><path d="M141.79,304.15l-.07,1s.47,1.37,3.21,1.88c4.61.85,6.22-.58,6.22-.58l.12-.83s.44-.18,1.19.4a39.49,39.49,0,0,1,3.19,3.73s-.88-.26-3.76,1a13.73,13.73,0,0,1-9,.34,4.94,4.94,0,0,1-3.28-3.69C139.5,306.49,141,303.8,141.79,304.15Z" style="fill:#FF81AE"></path><path d="M141.79,304.15l-.07,1s.47,1.37,3.21,1.88c4.61.85,6.22-.58,6.22-.58l.12-.83s.44-.18,1.19.4a39.49,39.49,0,0,1,3.19,3.73s-.88-.26-3.76,1a13.73,13.73,0,0,1-9,.34,4.94,4.94,0,0,1-3.28-3.69C139.5,306.49,141,303.8,141.79,304.15Z" style="opacity:0.25"></path><path d="M157.94,310.32c4.1.51,7.34,1.37,9.13,5.28,3,6.62,6.31,12.06,8.7,14.62,2.55,2.73,13,7.53,15.36,7.15s4.7-3.09,5.92-2.39-1,3.33-.89,3.92,4.42.28,6.44-1.15,2.77,1.52.15,4.58-7.52,3.3-12.85,2.23-16.18-3.61-20.27-7c-5-4.09-5.84-7.45-7.95-11.11C154,318.61,157.94,310.32,157.94,310.32Z" style="fill:#ffa8a7"></path><path d="M157.34,310.21s4.39,0,6.69,1.4,3.75,4.41,5.65,8.55a55.42,55.42,0,0,0,6.24,9.82c1,1.24,8.3,5.3,8.3,5.3a31.09,31.09,0,0,1-2.15,7.57s-7.34-1.84-11.76-4.21-11.14-11.86-11.14-11.86S154.44,320.5,157.34,310.21Z" style="fill:#FF81AE"></path><path d="M157.34,310.21s4.39,0,6.69,1.4,3.75,4.41,5.65,8.55a55.42,55.42,0,0,0,6.24,9.82c1,1.24,8.3,5.3,8.3,5.3a31.09,31.09,0,0,1-2.15,7.57s-7.34-1.84-11.76-4.21-11.14-11.86-11.14-11.86S154.44,320.5,157.34,310.21Z" style="opacity:0.15"></path><path d="M183.77,335a17.23,17.23,0,0,1-2.29,7.67,38.9,38.9,0,0,0,3.93.85s2.3-2.31,2.17-6.92Z" style="fill:#FF81AE"></path><path d="M183.77,335a17.23,17.23,0,0,1-2.29,7.67,38.9,38.9,0,0,0,3.93.85s2.3-2.31,2.17-6.92Z" style="opacity:0.30000000000000004"></path><path d="M186,337.13a.47.47,0,0,1-.46.46.47.47,0,0,1,0-.93A.47.47,0,0,1,186,337.13Z" style="fill:#455a64"></path></g></g></g></svg>