<svg xmlns="http://www.w3.org/2000/svg" viewBox="0 0 429.09 356.25"><g id="freepik--Character--inject-139"><path d="M366.84,125.31,356.62,125c-.69-.58-11.43-12.7-11.43-12.7s-3.86,6.09-3.93,6.48,10.53,11.72,11.58,12.86a3.15,3.15,0,0,0,2.5,1.23c2.77.16,13.14.89,13.14.89Z" transform="translate(-35.45 -71.88)" style="fill:#f28f8f"></path><polygon points="345.92 65.18 330.16 64.01 331.38 53.43 347.65 53.79 345.92 65.18" style="fill:#FF725E"></polygon><polygon points="345.92 65.18 330.16 64.01 331.38 53.43 347.65 53.79 345.92 65.18" style="opacity:0.2"></polygon><path d="M235.92,171.86l111.57-64.41c1.19-.69,2.16-.13,2.16,1.25v32.54a4.81,4.81,0,0,1-2.16,3.75L235.92,209.4c-1.2.69-2.17.13-2.17-1.25V175.61A4.78,4.78,0,0,1,235.92,171.86Z" transform="translate(-35.45 -71.88)" style="fill:#e0e0e0"></path><path d="M349.65,108.7c0-1.38-1-1.94-2.16-1.25L235.92,171.86a4.78,4.78,0,0,0-2.17,3.75v2.17l115.9-66.91Z" transform="translate(-35.45 -71.88)" style="fill:#FF725E"></path><path d="M261.27,165.11l-22.54,13a3.83,3.83,0,0,0-1.73,3v22.27c0,1.1.78,1.55,1.73,1l22.54-13a3.83,3.83,0,0,0,1.73-3V166.11C263,165,262.22,164.56,261.27,165.11Z" transform="translate(-35.45 -71.88)" style="fill:#fafafa"></path><path d="M245,184.68,237,201.63v1.76c0,1.1.78,1.55,1.73,1l22.54-13a3.83,3.83,0,0,0,1.73-3v-7.69l-4.26-8c-.52-1-1.29-.94-1.72.07l-6.71,15.78-3.26-4.07A1.15,1.15,0,0,0,245,184.68Z" transform="translate(-35.45 -71.88)" style="fill:#FF725E"></path><path d="M239.61,184.48a8.63,8.63,0,0,0,3.89-6.75,3.27,3.27,0,0,0-.59-2l-4.18,2.42a3.83,3.83,0,0,0-1.73,3v3.7A2.84,2.84,0,0,0,239.61,184.48Z" transform="translate(-35.45 -71.88)" style="fill:#FF725E"></path><path d="M273.18,160.2,342.84,120c1-.55,1.73-.18,1.73.84a3.71,3.71,0,0,1-1.73,2.85l-69.66,40.21c-.95.55-1.73.18-1.73-.84A3.72,3.72,0,0,1,273.18,160.2Z" transform="translate(-35.45 -71.88)" style="fill:#fafafa"></path><path d="M273.18,169.58l69.66-40.21c1-.55,1.73-.17,1.73.84a3.71,3.71,0,0,1-1.73,2.85l-69.66,40.21c-.95.56-1.73.18-1.73-.84A3.72,3.72,0,0,1,273.18,169.58Z" transform="translate(-35.45 -71.88)" style="fill:#fafafa"></path><path d="M273.18,179l69.66-40.21c1-.55,1.73-.17,1.73.84a3.71,3.71,0,0,1-1.73,2.85l-69.66,40.21c-.95.56-1.73.18-1.73-.84A3.72,3.72,0,0,1,273.18,179Z" transform="translate(-35.45 -71.88)" style="fill:#fafafa"></path><rect x="360.14" y="177.04" width="5.9" height="8.6" style="fill:#ffa8a7"></rect><rect x="374.98" y="238.37" width="5.9" height="8.6" transform="translate(-43.56 -58.76) rotate(-1.97)" style="fill:#ffa8a7"></rect><path d="M401.11,165c0,5.64.73,42.11.73,42.11.14,1.62,1.66,4.61,1.33,10.85-.44,8.46-1.18,32-1.18,32s-2.76,2.75-6.67,0c0,0-5.35-31.95-6.41-40.33-.92-7.32-2.49-27.21-2.49-27.21L381,205.78s1,5.5,1.18,9.39-1,26.31-1,26.31a6.44,6.44,0,0,1-6.42.25S370,209,369.35,205.44,373.5,165,373.5,165Z" transform="translate(-35.45 -71.88)" style="fill:#455a64"></path><path d="M392.23,125.93l.08,0a11.7,11.7,0,0,1,8.8,11.39V165c-4.14,4.5-18.57,6.6-27.61,0V136.2c0-4.6,2.55-10.13,9.61-10.54Z" transform="translate(-35.45 -71.88)" style="fill:#FF725E"></path><path d="M394.21,102.39a3.15,3.15,0,0,1,2.61.92c1.12,1.14.88,3.26,0,8.12l-3.46.4Z" transform="translate(-35.45 -71.88)" style="fill:#263238"></path><path d="M374.07,101a5.46,5.46,0,0,1-2.17-.44c-1.06-.61-1.33.59-.75,1.64a4.92,4.92,0,0,0,4,2.67c0-.15,1-2.7,1-2.7Z" transform="translate(-35.45 -71.88)" style="fill:#263238"></path><path d="M392.59,111.83c.52.31,1.25-.68,1.88-1.34a2.23,2.23,0,0,1,3.73.61c1.05,2.21-1.33,5.15-2.73,6.12a2.46,2.46,0,0,1-2.88.25l-.36,8.46a9,9,0,0,1-6.81,5.16c-5,.68-3.94-3.42-2.31-5.43v-3.07a11.93,11.93,0,0,1-3.78.19c-.65-.17-2.19-2-3.19-4.13-1.12-2.35-3-6.52-1.33-13.57,1.79-7.57,9.92-7.8,14.77-4.75S392.59,111.83,392.59,111.83Z" transform="translate(-35.45 -71.88)" style="fill:#ffa8a7"></path><path d="M392.59,112.7c.26,0,1.24-1.63,1.88-2.21.89-.8-.26-8.1-.26-8.1s.9-2.76-.85-4.6-5.14-1.52-7.62-1.61a22.27,22.27,0,0,1-8.86-1.78c-3.51-1.53-3.78-1.71-4.21-.16s-.61,5.08,1.5,7.46l1.74.64s.95.84,4.23,1.24a47.87,47.87,0,0,0,9.09-.18c.95-.13,1.16.8,1.67,3.32C391.35,108.93,391.73,112.68,392.59,112.7Z" transform="translate(-35.45 -71.88)" style="fill:#263238"></path><path d="M394.21,103l3.1-1.66a1.71,1.71,0,0,0-2.35-.78A1.85,1.85,0,0,0,394.21,103Z" transform="translate(-35.45 -71.88)" style="fill:#263238"></path><path d="M383.12,122.59a35.73,35.73,0,0,0,6.21-1.78,5.4,5.4,0,0,0,2.22-2.2,7.24,7.24,0,0,1-1.26,2.59c-1.18,1.5-7.17,2.61-7.17,2.61Z" transform="translate(-35.45 -71.88)" style="fill:#f28f8f"></path><path d="M384.22,110.68a.93.93,0,1,0,.92-1A.95.95,0,0,0,384.22,110.68Z" transform="translate(-35.45 -71.88)" style="fill:#263238"></path><path d="M385.2,107.2l2,1.09a1.18,1.18,0,0,0-.46-1.57A1.09,1.09,0,0,0,385.2,107.2Z" transform="translate(-35.45 -71.88)" style="fill:#263238"></path><path d="M384.29,116.93l-2.1.79a1.1,1.1,0,0,0,1.43.7A1.18,1.18,0,0,0,384.29,116.93Z" transform="translate(-35.45 -71.88)" style="fill:#f28f8f"></path><path d="M376,108l1.8-1.39a1.09,1.09,0,0,0-1.56-.24A1.2,1.2,0,0,0,376,108Z" transform="translate(-35.45 -71.88)" style="fill:#263238"></path><path d="M376.56,110.42a.92.92,0,0,0,.92,1,1,1,0,1,0-.92-1Z" transform="translate(-35.45 -71.88)" style="fill:#263238"></path><polygon points="345.8 37.67 345.5 43.21 342.6 42.23 345.8 37.67" style="fill:#f28f8f"></polygon><path d="M395.6,254.6v-.84c-.57.24-1.88,5.25-4.22,7.39-1.87,1.7-4.41,3.66-5.05,5.55s3.54,3.06,5.28,2.75c2-.36,5.52-1.78,6.4-3.1s1.29-3.27,2-4.23,2.36-2.05,2.75-3.17a7.16,7.16,0,0,0-.34-3.1c-.27-1-.57-2.19-.93-2.09v.64a4.62,4.62,0,0,1-2.95,1C397.69,255.43,395.59,255.26,395.6,254.6Z" transform="translate(-35.45 -71.88)" style="fill:#263238"></path><path d="M375.07,245.25c-.31,0-.56.44-1.24,1.18a12.85,12.85,0,0,1-3.47,2.5c-2.21,1.1-6.51,2.8-8.45,3.68-1.22.55-1.16,2,.09,2.85s4.29,1.44,7.94.62c2-.44,4.56-2.27,6.2-2.17s4.69.07,5.9-.76.72-2.61.38-4.13c-.37-1.67-.91-4.22-1.46-4.1l0,.52c-.71,1.07-4.32,1.51-5.88.72Z" transform="translate(-35.45 -71.88)" style="fill:#263238"></path><path d="M394,129.77l-18.24,18.86s-16-2.86-21.46-4.43c-1.72-.49-2.92-3.06-3.3-5a3.85,3.85,0,0,0-1.37-2.59s0,1.41-.36,3.72c-.14,1-1.72,1.13-3.13,1.44-5,1.08-6.7,0-8.77,1.44-1.6,1.14.41,4.1,4.06,5.1,5.13,1.41,8,.71,11.08,1.48,2.41.6,19.75,6,23.05,6.76,1.74.38,3.07.26,5-1.61s16.29-14.43,16.29-14.43Z" transform="translate(-35.45 -71.88)" style="fill:#ffa8a7"></path><path d="M394.81,129.12c-2-.51-14.2,14-14.2,14l6.72,5.64s8.7-5.7,10.24-8S400.86,130.63,394.81,129.12Z" transform="translate(-35.45 -71.88)" style="fill:#FF725E"></path><path d="M387.77,149.14s9.18-8.22,9.61-9.12c.83-1.73.6-4.93.6-4.93s1,2.78,0,4.93-8,8.26-9.11,9.31l-1.13,1.06-1.09-1,.65-.57Z" transform="translate(-35.45 -71.88)" style="fill:#FF725E"></path><path d="M387.77,149.14s9.18-8.22,9.61-9.12c.83-1.73.6-4.93.6-4.93s1,2.78,0,4.93-8,8.26-9.11,9.31l-1.13,1.06-1.09-1,.65-.57Z" transform="translate(-35.45 -71.88)" style="opacity:0.2"></path><path d="M341.65,108.44c2-.22,3.33-1.7,3.78-1.29a1.11,1.11,0,0,1,.06,1.45,13.72,13.72,0,0,1-3,1.73,22.85,22.85,0,0,0-.54,3.09c-.17,1.53-.11,4.59-1.42,5.63-3.91,3.14-4.91-1.84-4.76-5.18C336,109.72,339.56,108.67,341.65,108.44Z" transform="translate(-35.45 -71.88)" style="fill:#f28f8f"></path></g></svg>