<svg xmlns="http://www.w3.org/2000/svg" viewBox="0 0 500 500"><g id="freepik--character-1--inject-98"><g id="freepik--character--inject-98"><path id="freepik--Arm--inject-98" d="M316.59,109.16c-4,5-13.18,14.6-17.06,19.47a14.2,14.2,0,0,0-3.15,9c0,2.42.7,4.45,3.07,3.42,1.71-.75,2.8-1.64,5.3-4.1C307,134.73,320,118.29,320,118.29s3.8-7.87,4.43-10.22a30.31,30.31,0,0,0,.95-4.2C322.65,103.87,321.66,102.8,316.59,109.16Z" style="fill:#9a4a4d"></path><g id="freepik--pencil--inject-98"><path d="M263.86,232.57l-24.27,27.7a1.12,1.12,0,0,1-2-.81l2.42-37Z" style="fill:#ffa8a7"></path><path d="M237.63,259.46a1.12,1.12,0,0,0,2,.81l4.74-5.4h0a6.24,6.24,0,0,1-5.84-2.78l-.34-.53Z" style="fill:#f0f0f0"></path><path d="M299.42,79l-1.3,3.15-1.58,3.79L240.05,222.5a16.48,16.48,0,0,0,8.13,8.87c5.53,3,12.24,3.51,15.66,1.2L319.91,97l3-7.27C320.71,94.3,297.27,83.59,299.42,79Z" style="fill:#BA68C8"></path><path d="M312.74,114.37c-.77,1.71-2.64,2.95-5.45,3.33-5.77.78-13.34-2.31-16.91-6.92-1.61-2.08-2.15-4.13-1.71-5.8l0,0,2.05-5a4.82,4.82,0,0,0-.12,2.4,8.3,8.3,0,0,0,1.74,3.59c3.56,4.6,11.13,7.7,16.91,6.92a8.87,8.87,0,0,0,3.76-1.35,4.72,4.72,0,0,0,1.78-2.16Z" style="fill:#f0f0f0"></path><path d="M314.65,109.72c-.77,1.71-2.63,3-5.45,3.33-5.77.78-13.34-2.32-16.91-6.93-1.61-2.08-2.15-4.12-1.71-5.8l0,0,2.06-5a4.71,4.71,0,0,0-.13,2.4,8.42,8.42,0,0,0,1.74,3.59c3.56,4.61,11.14,7.71,16.91,6.92a8.74,8.74,0,0,0,3.76-1.35,4.69,4.69,0,0,0,1.78-2.15Z" style="fill:#BA68C8"></path><path d="M316.56,105.06c-.77,1.71-2.63,3-5.44,3.33-5.78.78-13.34-2.31-16.92-6.93-1.6-2.07-2.15-4.12-1.7-5.79v0l2.06-5a5,5,0,0,0-.13,2.4,8.45,8.45,0,0,0,1.74,3.6c3.56,4.6,11.14,7.7,16.91,6.91a8.69,8.69,0,0,0,3.76-1.34,4.7,4.7,0,0,0,1.78-2.16Z" style="fill:#f0f0f0"></path><path d="M319.91,97l3-7.27c-1,2.08-6.33,1-11.68-1.18h0L252.67,233.19l-13.08,27.08,24.27-27.7h0Z" style="opacity:0.1"></path><path d="M335.08,57.69a8.76,8.76,0,0,0-1.68-3.3c-3.56-4.59-11.11-7.68-16.87-6.9-2.81.38-4.67,1.62-5.42,3.32l-.06.1L299.42,79a.57.57,0,0,0,0,.14l-.09.22,0,0c-.45,1.67.1,3.72,1.71,5.8,3.57,4.61,11.14,7.7,16.91,6.92,2.81-.38,4.68-1.62,5.45-3.32l2.07-5c0,.1-.1.2-.14.29l9.42-22.72A4.8,4.8,0,0,0,335.08,57.69Z" style="fill:#ffa8a7"></path><path d="M333.4,54.39c3.56,4.6,1.78,9-4,9.74s-13.31-2.3-16.87-6.9-1.78-9,4-9.74S329.84,49.8,333.4,54.39Z" style="fill:#fff;opacity:0.30000000000000004"></path><path d="M334.89,60.71c-.72,1.75-2.6,3-5.47,3.43a18.1,18.1,0,0,1-8.08-1l-11.2,28a17.83,17.83,0,0,0,7.75.88c2.7-.36,4.52-1.52,5.34-3.13L335,60.47A1.16,1.16,0,0,1,334.89,60.71Z" style="fill:#f28f8f"></path></g><polygon points="361.37 249.4 355.51 251.8 351.67 237.96 360 235.59 361.37 249.4" style="fill:#b16668"></polygon><path d="M354.91,249.63l-.28-1c-.92,0,.21,5.31-2.18,10.14-1.82,3.68-4.44,5-4.4,7.76,0,2.46,2.83,3.18,7.34,1.27,4.2-1.78,5.67-3.88,6.22-5.68s0-3.31.48-4.65,2-3.19,2.09-4.59c0-.76-.89-2.51-1.53-4-.5-1.18-1.16-2.21-1.53-2,0,.15.1,1,.1,1a5.2,5.2,0,0,1-2.49,2.24C357.71,250.66,355.27,250.8,354.91,249.63Z" style="fill:#263238"></path><path d="M344.44,136.88c1,3.81,5.77,11.07,6.8,15.58s1.14,10.54.81,21.69c-.45,15.16-.78,20.92-.56,21.77s3.77,7.53,5.31,13.06,3.93,30.26,3.93,30.26-2.66,3.33-8.28,2.14c0,0-14.06-38.22-15.19-41.63s-9.41-38.89-9.41-38.89l1.09-20.26Z" style="fill:#37474f"></path><path d="M330.41,98.57l8.8,1.53c1.27-2.39,3.79-3.94,5.53-6a17.94,17.94,0,0,0,3.75-7.08,11.46,11.46,0,0,0,.39-3.68,8.61,8.61,0,0,0-.93-3.82,4.46,4.46,0,0,0-2.82-2.37c.45-2.58-1.29-5.16-3.55-6.5s-4.95-1.69-7.56-2a22.55,22.55,0,0,1-7.65-1.67,14,14,0,0,0-2-.92,2.42,2.42,0,0,0-2.12.26,2.8,2.8,0,0,0-.9,1.59,8.88,8.88,0,0,0,.11,5,2.83,2.83,0,1,0-3.09,4.72,4.63,4.63,0,0,0-1.11,5c.8,2.47,3,3.94,3.61,6.48a17.44,17.44,0,0,0,3,6.46,6.21,6.21,0,0,0,2.4,2.32A11.73,11.73,0,0,0,330.41,98.57Z" style="fill:#263238"></path><polygon points="319.7 250.08 313.32 249.13 313.26 232.92 322.11 232.67 319.7 250.08" style="fill:#b16668"></polygon><path d="M315.77,159.66c.61-7,2.92-22,2.92-22l17.07,1.88c2.9,4.51,3.55,12.36,2.76,19.14l-11.36,40.1c-.56,1.52,1,5.88.17,10.89-1.26,7.83-5.59,29.62-5.59,29.62s-6.05,2.07-8.56-.73c0,0-1.22-33.54-.28-43.49C313.93,184.26,315.35,164.45,315.77,159.66Z" style="fill:#37474f"></path><path d="M313.31,247.07V246c-.77-.12-1.09,2.22-2.12,4.66a18.6,18.6,0,0,1-3.2,4.76c-2.74,3.06-5.27,3.64-6.32,5.88s1.79,4.16,6.63,3.4c2.4-.38,6.56-2,7.62-3.57s1.58-3.84,2.44-5,2.7-1.77,3.17-3.08c.26-.73-.33-2.6-.49-4s-.39-2.91-.81-2.8l-.11.77c-.36.84-1.66,1.38-3.22,1.64C315.76,248.9,313.3,248.29,313.31,247.07Z" style="fill:#263238"></path><path d="M318.87,125.33c-.11,3-.18,12.3-.18,12.3,3.27,4.16,20.86,5.37,25.75-.75l3-15.24s1.58-16.24-1.7-16.85a41.53,41.53,0,0,0-6.58-.57l-10.09-.33c-3.22,0-3.73,0-3.73,0a40.66,40.66,0,0,0-7.37,9.88C316.68,116.34,315.06,120.21,318.87,125.33Z" style="fill:#BA68C8"></path><g style="opacity:0.6000000000000001"><path d="M318.87,125.33c-.11,3-.18,12.3-.18,12.3,3.27,4.16,20.86,5.37,25.75-.75l3-15.24s1.58-16.24-1.7-16.85a41.53,41.53,0,0,0-6.58-.57l-10.09-.33c-3.22,0-3.73,0-3.73,0a40.66,40.66,0,0,0-7.37,9.88C316.68,116.34,315.06,120.21,318.87,125.33Z" style="fill:#fff"></path></g><path d="M322.92,76.32c-1.69,1-3.78,5.25-3.57,14.17.17,7.56,2.62,9.43,3.85,10s3.6.21,5.91-.17v3.61s-2.13,7.17-1.84,10.32c6.13-5.35,11.93-9.69,11.93-9.69l-.05-9.8s1.36,1.31,3.66-.7c1.9-1.66,2.54-4.46,1.06-6a3.31,3.31,0,0,0-5.27,1A18.24,18.24,0,0,1,330,86.55,13.78,13.78,0,0,1,322.92,76.32Z" style="fill:#b16668"></path><path d="M328.16,88.3a1,1,0,0,0,.9,1,1,1,0,1,0-.9-1Z" style="fill:#263238"></path><path d="M329.23,93.84l-2.76.88a1.42,1.42,0,0,0,1.79,1A1.51,1.51,0,0,0,329.23,93.84Z" style="fill:#9a4a4d"></path><path d="M320.31,85.67l1.92-1.33a1.13,1.13,0,0,0-1.6-.33A1.23,1.23,0,0,0,320.31,85.67Z" style="fill:#263238"></path><path d="M320.75,87.91a1,1,0,0,0,.9,1,1,1,0,1,0-.9-1Z" style="fill:#263238"></path><polygon points="325.71 87.36 325.56 93.08 322.55 92.15 325.71 87.36" style="fill:#9a4a4d"></polygon><path d="M329.11,100.28c2.43-.32,7.43-1.76,8.21-3.73a5.11,5.11,0,0,1-1.76,2.52c-1.49,1.28-6.45,2.72-6.45,2.72Z" style="fill:#9a4a4d"></path><path d="M332.41,180.2,328.07,162a32,32,0,0,1-7.3-3.72,22.15,22.15,0,0,0,5.11,4.7Z" style="fill:#263238"></path><path d="M336.48,90.11a3.52,3.52,0,0,0,2.39,1.68,2.93,2.93,0,0,1-.27-2.68,2.53,2.53,0,0,0,.38-1.28,1.17,1.17,0,0,0-.63-.81c-.64-.35-2.05-.77-2.24.22A4.13,4.13,0,0,0,336.48,90.11Z" style="fill:#263238"></path><g id="freepik--arm--inject-98"><path d="M299.32,146.5a8,8,0,0,1-3.62-.94,4.93,4.93,0,0,1-1.31-1.42,9.12,9.12,0,0,1-1.1-3.18,2.23,2.23,0,0,0-.49-1.26c-.34-.33-.93-.46-1-.93a.75.75,0,0,1,.3-.71,1.61,1.61,0,0,1,.75-.27,3.83,3.83,0,0,1,1.81.17,10.47,10.47,0,0,0,1.74.41,15.45,15.45,0,0,0,3.89.41c1.85-.14,3.3-.66,3-.93s-1.43-.38-2.92-1-2.45-2.05-2-2.83.34-.61,1.9-.21,3.07.27,5.22,1c1.9.65,2.93,1.67,4.79,1.55,6.34-.33,21.44-4.34,21.44-4.34,2.51-4.57,6.51-13.87,8.15-17.8a29.79,29.79,0,0,1,6-9.42c3.9.19,7.46,3.47,5,10.48a104.21,104.21,0,0,1-11.9,23.31c-1.34,1.89-2.84,2.63-6.14,3-10.67,1.17-18.61,2-22.75,3.23s-4.56,1.41-5.78,1.58A18,18,0,0,1,299.32,146.5Z" style="fill:#b16668"></path></g><path id="freepik--Hand--inject-98" d="M281.89,121.33a12.17,12.17,0,0,1,6.83-.85c1.86.3,1.86,6.51-4.12,8.47-3.89,1.27-6.22.71-7.48,3.91,0,0-2.52-.33-1.95-3.91a20,20,0,0,1,4.74-9.92c1.72-2,1.83-3.73,2.67-3.15s.52,2.53.52,2.53Z" style="fill:#b16668"></path></g></g></svg>