<svg xmlns="http://www.w3.org/2000/svg" viewBox="0 0 500 500"><g id="freepik--Character--inject-234"><path d="M106.32,168.12c-1.7,2.15-3.52,4.49-5.18,6.82s-3.36,4.67-4.92,7.07-3,4.84-4.39,7.3a70.18,70.18,0,0,0-3.53,7.47l.22-1.62a22.62,22.62,0,0,0,.68,5.16,24.72,24.72,0,0,0,1.9,5,29.94,29.94,0,0,0,3,4.72c.57.76,1.17,1.5,1.82,2.21.32.35.65.7,1,1s.7.7,1,.95l.19.18a2.32,2.32,0,0,1-2.68,3.73,24.1,24.1,0,0,1-3-1.85,32.08,32.08,0,0,1-2.68-2.13A31.11,31.11,0,0,1,85.1,209a28.2,28.2,0,0,1-3.35-6.28,27.5,27.5,0,0,1-1.67-7.07,3.55,3.55,0,0,1,.15-1.39l.07-.23a67.93,67.93,0,0,1,3.59-8.85c1.38-2.81,2.9-5.51,4.51-8.13s3.3-5.18,5.09-7.67,3.59-4.88,5.66-7.31a4.68,4.68,0,0,1,7.24,5.93Z" style="fill:#b55b52"></path><path d="M96,213.25l8.62,3.72-8.42,4s-4.93-3.36-4.51-7.08Z" style="fill:#b55b52"></path><polygon points="108.44 223.69 101.19 226.66 96.24 220.97 104.67 216.97 108.44 223.69" style="fill:#b55b52"></polygon><path d="M113.67,140.32c1.06,5.47,2.12,15.45-1.69,18.94a29,29,0,0,0,13.09,11.5c7.28-4.3,3.81-10.92,3.81-10.92-6.06-1.65-5.9-6.14-4.84-10.32Z" style="fill:#b55b52"></path><path d="M109.18,159.89a4.63,4.63,0,0,1,.07-2.52s13.51-1.61,17.78-.57,5.89,5.3,5.89,5.3Z" style="fill:#e0e0e0"></path><path d="M135.35,132.6c0,.74.4,1.35.88,1.36s.87-.57.86-1.32-.39-1.35-.87-1.37S135.35,131.85,135.35,132.6Z" style="fill:#263238"></path><path d="M136,131.31l1.76-.47S136.87,132.21,136,131.31Z" style="fill:#263238"></path><path d="M135.54,134.3a20.67,20.67,0,0,0,2.64,4.81,3.09,3.09,0,0,1-2.62.42Z" style="fill:#a02724"></path><path d="M133.29,128.56a.5.5,0,0,1-.31-.1.45.45,0,0,1-.07-.62,4.14,4.14,0,0,1,3.54-1.63.45.45,0,0,1,.39.49.41.41,0,0,1-.46.38,3.3,3.3,0,0,0-2.79,1.32A.43.43,0,0,1,133.29,128.56Z" style="fill:#263238"></path><path d="M110.63,128.88c.59,9.13.65,13,5.23,17.81,6.89,7.23,17.84,4.85,20-4.19,1.9-8.14.61-21.71-8.24-25.58A12,12,0,0,0,110.63,128.88Z" style="fill:#b55b52"></path><path d="M111,118.88c-3.53.84-8.08,8.34-7,13.6,1.15,5.5-9,13.46-1.21,16.09,8.64,2.92,8.27,7.6,18.52,5.3,5.38-1.2,20.75.38,13.1-12.05-6.56-10.64-3.14-15-3.14-15a6.91,6.91,0,0,0,5.33-2.46c2.24-2.66.22-14.56-7.09-10.46C123.13,117.41,106.59,110.78,111,118.88Z" style="fill:#263238"></path><path d="M128.36,134.21a5.53,5.53,0,0,0,2.89,4.12c1.8.65,2.27-.73,2.46-2.86.16-1.92-.44-4.81-2.3-5.05S128.16,132.19,128.36,134.21Z" style="fill:#b55b52"></path><path d="M134.6,216.45s5.25,68.23,5.78,97.27a17.44,17.44,0,0,1-.28,3.46c-8.91,48.51-18.93,89.17-18.93,89.17L116.23,405s1.08-56.08,7.44-91.68C117.4,282.22,111,216.45,111,216.45Z" style="fill:#b55b52"></path><path d="M131.43,216.45s-13.84,67-18.67,94.95c-5,29.05-14.76,98.79-14.76,98.79H92.93s-4-65.14,4.19-96.87c-.53-31.1,5.9-96.87,5.9-96.87Z" style="fill:#b55b52"></path><path d="M143.84,167.31a7.63,7.63,0,0,0-6.31-7.05c-3-.5-6.88-1.09-10.53-1.42a117.32,117.32,0,0,0-16.88,0c-2.16.13-4.26.29-6.16.51a7.85,7.85,0,0,0-6.71,9.78c6,24.57,5.69,33.63,5.58,47.32-14.58,22.4-9.2,44.76-11.14,76.43,15.39,2.88,33.36-.09,49.49,1.94,3.73-37.83-.93-71.52-2.75-78.37C142.14,187.76,144.2,174,143.84,167.31Z" style="fill:#263238"></path><path d="M102.74,159.59c-6.43,2.09-10.22,8.23-10.22,8.23s8.22,12.6,9.14,16.11C105.08,174.7,102.74,159.59,102.74,159.59Z" style="fill:#263238"></path><path d="M136.88,288.43h-.07a3.56,3.56,0,0,1-2.7-1.3,2.73,2.73,0,0,0-2.13-1.06,3.43,3.43,0,0,0-2.35,1,4,4,0,0,1-2.87,1.18,3.53,3.53,0,0,1-2.69-1.29,2.74,2.74,0,0,0-2.13-1.06,3.4,3.4,0,0,0-2.34,1,3.88,3.88,0,0,1-2.88,1.19,3.55,3.55,0,0,1-2.69-1.3,2.73,2.73,0,0,0-2.13-1.06,3.27,3.27,0,0,0-2.34,1,4.1,4.1,0,0,1-2.8,1.18h-.07a3.51,3.51,0,0,1-2.69-1.29,2.74,2.74,0,0,0-2.13-1.06,3.28,3.28,0,0,0-2.35,1,4.07,4.07,0,0,1-2.87,1.19,3.54,3.54,0,0,1-2.69-1.3,2.67,2.67,0,0,0-2.12-1.05v-.82a3.54,3.54,0,0,1,2.69,1.3A2.71,2.71,0,0,0,96.66,287,3.35,3.35,0,0,0,99,286a4.08,4.08,0,0,1,2.8-1.18h.07a3.53,3.53,0,0,1,2.69,1.29,2.74,2.74,0,0,0,2.13,1.06,3.3,3.3,0,0,0,2.34-1,3.9,3.9,0,0,1,2.88-1.19,3.54,3.54,0,0,1,2.69,1.3,2.73,2.73,0,0,0,2.13,1.06,3.37,3.37,0,0,0,2.34-1,4.1,4.1,0,0,1,2.8-1.18H122a3.51,3.51,0,0,1,2.69,1.29,2.74,2.74,0,0,0,2.13,1.06,3.47,3.47,0,0,0,2.35-1,3.86,3.86,0,0,1,2.87-1.19,3.56,3.56,0,0,1,2.7,1.3,2.74,2.74,0,0,0,2.13,1.06,3.23,3.23,0,0,0,2.35-1,3.93,3.93,0,0,1,2.88-1.18l0,.81a3.3,3.3,0,0,0-2.35,1A4,4,0,0,1,136.88,288.43Z" style="fill:#fff"></path><polygon points="117.88 277.92 114.63 249.8 105.32 244.5 117.88 277.92" style="opacity:0.2"></polygon><path d="M100.9,219.48l38.39,3.31c.53,0,.94-.7,1-1.75l.15-6.39c0-1.29-.52-2.48-1.16-2.54l-36.84-3c-.53,0-.94.7-1,1.75L99.73,217C99.7,218.23,100.25,219.43,100.9,219.48Z" style="fill:#407BFF"></path><path d="M144.32,166.23l2.19,17,1.18,8.45c.42,2.8.84,5.59,1.32,8.35l-.08-.32a16.45,16.45,0,0,0,1.27,3.13c.57,1.13,1.25,2.29,2,3.44,1.45,2.31,3.05,4.61,4.72,6.88s3.38,4.55,5.16,6.78,3.56,4.49,5.33,6.7l0,0a2.33,2.33,0,0,1-3.32,3.23c-2.26-1.92-4.38-3.91-6.5-5.94s-4.13-4.16-6.13-6.34-3.93-4.45-5.74-6.9c-.91-1.23-1.8-2.5-2.64-3.88a23.18,23.18,0,0,1-2.26-4.76l0-.08-.06-.23c-1.36-5.75-2.46-11.46-3.36-17.19-.46-2.86-.91-5.72-1.3-8.59s-.76-5.73-1-8.65h0a4.68,4.68,0,0,1,9.3-1.06Z" style="fill:#b55b52"></path><path d="M137.35,160.23c7.52.9,9,6.85,9,6.85s-8.87,10.76-10.9,16.85C130.24,167,137.35,160.23,137.35,160.23Z" style="fill:#263238"></path><polygon points="242.6 192.99 162.1 237.25 161.04 235.31 242.07 192.01 242.6 192.99" style="fill:#263238"></polygon><path d="M165.23,224.85l9,1.46-7.05,6.18s-5.41-2.06-5.85-5.89Z" style="fill:#b55b52"></path><path d="M167.67,224.51a1.76,1.76,0,1,1-2.56-.32A1.83,1.83,0,0,1,167.67,224.51Z" style="fill:#263238"></path><path d="M162,228.21a3.51,3.51,0,0,1-.79-.08.5.5,0,0,1-.37-.6.5.5,0,0,1,.6-.37c.12,0,2.67.53,4.47-2.46a.5.5,0,0,1,.69-.17.51.51,0,0,1,.17.69A5.51,5.51,0,0,1,162,228.21Z" style="fill:#263238"></path><path d="M177.05,233.78l-2.34,1.83a2.67,2.67,0,0,1-3.24.06l-4.31-3.18,7.05-6.18,3.18,3.58A2.68,2.68,0,0,1,177.05,233.78Z" style="fill:#b55b52"></path><path d="M122,405.73l-5.85-1.6a.7.7,0,0,0-.81.35l-2.48,5.3a1.21,1.21,0,0,0,.8,1.7c3.13.8,4,.72,7.93,1.92,3.33,1,3.39,2.75,8.92,3.12,3.34.22,2.59-2.54,1.18-2.84-5-1.07-5.49-2.72-8.3-6.39C123,406.72,122.71,405.92,122,405.73Z" style="fill:#263238"></path><path d="M98.75,408.61h-6a.63.63,0,0,0-.65.56L91.37,415a1.29,1.29,0,0,0,1.28,1.45c3.2-.06,2.17,0,6.2,0h5.75c3.35,0,2.29-2.6.87-2.92-2.8-.61-3.58-1.6-5-3.77A2.22,2.22,0,0,0,98.75,408.61Z" style="fill:#263238"></path></g></svg>