<svg xmlns="http://www.w3.org/2000/svg" viewBox="0 0 500 500"><g id="freepik--background-complete--inject-234"><rect y="382.4" width="500" height="0.25" style="fill:#ebebeb"></rect><rect x="423.67" y="398.49" width="26.23" height="0.25" style="fill:#ebebeb"></rect><rect x="322.53" y="395.24" width="34.23" height="0.25" style="fill:#ebebeb"></rect><rect x="389.33" y="389.21" width="26.44" height="0.25" style="fill:#ebebeb"></rect><rect x="67.7" y="390.89" width="43.19" height="0.25" style="fill:#ebebeb"></rect><rect x="52.46" y="390.89" width="6.33" height="0.25" style="fill:#ebebeb"></rect><rect x="131.47" y="395.11" width="56.2" height="0.25" style="fill:#ebebeb"></rect><path d="M237,337.8H43.91a5.71,5.71,0,0,1-5.7-5.71V60.66A5.71,5.71,0,0,1,43.91,55H237a5.71,5.71,0,0,1,5.71,5.71V332.09A5.71,5.71,0,0,1,237,337.8ZM43.91,55.2a5.46,5.46,0,0,0-5.45,5.46V332.09a5.46,5.46,0,0,0,5.45,5.46H237a5.47,5.47,0,0,0,5.46-5.46V60.66A5.47,5.47,0,0,0,237,55.2Z" style="fill:#ebebeb"></path><path d="M453.31,337.8H260.21a5.72,5.72,0,0,1-5.71-5.71V60.66A5.72,5.72,0,0,1,260.21,55h193.1A5.71,5.71,0,0,1,459,60.66V332.09A5.71,5.71,0,0,1,453.31,337.8ZM260.21,55.2a5.47,5.47,0,0,0-5.46,5.46V332.09a5.47,5.47,0,0,0,5.46,5.46h193.1a5.47,5.47,0,0,0,5.46-5.46V60.66a5.47,5.47,0,0,0-5.46-5.46Z" style="fill:#ebebeb"></path><rect x="226.14" y="275.23" width="29.27" height="107.16" transform="translate(481.55 657.63) rotate(180)" style="fill:#e6e6e6"></rect><polygon points="233.05 382.4 226.14 382.4 226.14 362.76 240.29 362.76 233.05 382.4" style="fill:#f0f0f0"></polygon><rect x="408.89" y="275.23" width="29.27" height="107.16" transform="translate(847.06 657.63) rotate(180)" style="fill:#e6e6e6"></rect><rect x="226.14" y="275.23" width="188.78" height="97.49" transform="translate(641.06 647.96) rotate(180)" style="fill:#f0f0f0"></rect><path d="M231.5,281h86.71V360H231.5V281Z" style="fill:#e6e6e6"></path><path d="M322.85,281h86.71V360H322.85V281Z" style="fill:#e6e6e6"></path><path d="M336.11,302.36a6.74,6.74,0,1,1,6.73-6.73A6.74,6.74,0,0,1,336.11,302.36Zm0-12.28a5.55,5.55,0,1,0,5.54,5.55A5.56,5.56,0,0,0,336.11,290.08Z" style="fill:#fafafa"></path><path d="M305,302.36a6.74,6.74,0,1,1,6.73-6.73A6.74,6.74,0,0,1,305,302.36Zm0-12.28a5.55,5.55,0,1,0,5.54,5.55A5.56,5.56,0,0,0,305,290.08Z" style="fill:#fafafa"></path><polygon points="408.01 382.4 414.92 382.4 414.92 362.76 400.77 362.76 408.01 382.4" style="fill:#f0f0f0"></polygon><path d="M388.85,260.71c1.69-1.65-.1-3.91,2.17-5.5s.32-4,.41-6.23,3.05-2.57,3.9-5.15a5.06,5.06,0,0,0-.67-3.64,4.14,4.14,0,0,0-6.73-1,4,4,0,0,0-.26.32c-1.69,2.25,0,4.42-1.91,5.94s-5.26,1.83-5.15,4.36-2.44,2.75-3.81,4.7c-.83,1.21-.19,3.2.42,4.56a4.16,4.16,0,0,0,2.2,2.11C381.68,262.09,386.12,263.37,388.85,260.71Z" style="fill:#ebebeb"></path><path d="M392.61,266.69c2.87-1.21,1.75-4.82,5.3-5.68s2.32-4.74,3.48-7.42,5-1.68,7.25-4.43c1.41-1.69,1-4.92.55-7.14a3.62,3.62,0,0,0-3.36-2.85,7.77,7.77,0,0,0-4.48,1c-3.14,1.95-2.16,5.4-5.19,6.35s-7.3-.29-8.38,2.86-4.31,2.19-6.91,3.93c-1.87,1.24-1.8,4.76-1.61,6.66a3.59,3.59,0,0,0,1,2.17C382.3,264.21,387.57,268.82,392.61,266.69Z" style="fill:#e0e0e0"></path><path d="M390.32,252.18c1.88-1.44,3.85.66,5.76-1.36s4,.25,6.21.49,3-2.65,5.67-3.12a5.07,5.07,0,0,1,3.5,1.18,4.15,4.15,0,0,1,0,6.81l-.36.22c-2.47,1.34-4.38-.61-6.15,1s-2.57,4.94-5.06,4.47-3.08,2-5.2,3.09c-1.31.65-3.19-.27-4.45-1.07a4.14,4.14,0,0,1-1.77-2.48C387.92,259.07,387.29,254.5,390.32,252.18Z" style="fill:#ebebeb"></path><path d="M370,255.18s.59,20.05,23.42,20.05,23.42-20.05,23.42-20.05Z" style="fill:#f5f5f5"></path><rect x="275.22" y="88.91" width="163.09" height="91.08" style="fill:#e6e6e6"></rect><rect x="273.66" y="88.91" width="163.09" height="91.08" style="fill:#f5f5f5"></rect><rect x="316.02" y="59.25" width="78.37" height="150.38" transform="translate(489.65 -220.76) rotate(90)" style="fill:#fff"></rect><rect x="241.65" y="133.62" width="78.37" height="1.66" transform="translate(415.28 -146.39) rotate(90)" style="fill:#e6e6e6"></rect><rect x="74.88" y="75.07" width="131.25" height="286.17" transform="translate(281.01 436.3) rotate(180)" style="fill:#e6e6e6"></rect><rect x="69.8" y="75.07" width="135.61" height="286.17" transform="translate(275.21 436.3) rotate(180)" style="fill:#f0f0f0"></rect><rect x="74.88" y="361.24" width="131.25" height="4.72" transform="translate(281.01 727.2) rotate(180)" style="fill:#e6e6e6"></rect><rect x="61.34" y="361.24" width="135.61" height="4.72" transform="translate(258.28 727.2) rotate(180)" style="fill:#f0f0f0"></rect><rect x="1.63" y="157.46" width="271.95" height="121.39" transform="translate(355.76 80.55) rotate(90)" style="fill:#fafafa"></rect><polygon points="138.97 354.13 127.58 82.18 107.88 82.18 119.27 354.13 138.97 354.13" style="fill:#fff"></polygon><path d="M195,160.34a.55.55,0,0,0,.55-.55v-73a.55.55,0,0,0-1.09,0v73A.55.55,0,0,0,195,160.34Z" style="fill:#f0f0f0"></path><polygon points="115.03 354.13 103.65 82.18 95.97 82.18 107.35 354.13 115.03 354.13" style="fill:#fff"></polygon><rect x="-58.62" y="217.7" width="271.95" height="0.9" transform="translate(295.51 140.79) rotate(90)" style="fill:#e6e6e6"></rect><polygon points="68.12 91.46 201.02 91.46 201.68 84.94 68.77 84.94 68.12 91.46" style="fill:#e0e0e0;opacity:0.5"></polygon><polygon points="68.12 102.17 201.02 102.17 201.68 95.66 68.77 95.66 68.12 102.17" style="fill:#e0e0e0;opacity:0.5"></polygon><polygon points="68.12 112.88 201.02 112.88 201.68 106.37 68.77 106.37 68.12 112.88" style="fill:#e0e0e0;opacity:0.5"></polygon><polygon points="68.12 123.6 201.02 123.6 201.68 117.08 68.77 117.08 68.12 123.6" style="fill:#e0e0e0;opacity:0.5"></polygon><polygon points="68.12 134.31 201.02 134.31 201.68 127.79 68.77 127.79 68.12 134.31" style="fill:#e0e0e0;opacity:0.5"></polygon><polygon points="68.12 145.02 201.02 145.02 201.68 138.5 68.77 138.5 68.12 145.02" style="fill:#e0e0e0;opacity:0.5"></polygon></g><g id="freepik--Board--inject-234"><path d="M291.75,140.78h2.87L270,410.82a1.07,1.07,0,0,1-1.07,1h-2.42a1.07,1.07,0,0,1-1.07-1.17l24.48-268.15A1.86,1.86,0,0,1,291.75,140.78Z" style="fill:#263238"></path><path d="M295.68,140.78H292.8l24.66,270a1.07,1.07,0,0,0,1.07,1h2.41a1.07,1.07,0,0,0,1.07-1.17L297.53,142.47A1.86,1.86,0,0,0,295.68,140.78Z" style="fill:#263238"></path><path d="M409.5,226.14h0a.5.5,0,0,1-.46-.54l1-14.73a.5.5,0,0,1,.53-.47.51.51,0,0,1,.47.54l-1,14.73A.5.5,0,0,1,409.5,226.14Z" style="fill:#407BFF"></path><path d="M411.19,201.72h0a.5.5,0,0,1-.46-.53l2.24-32.44a.51.51,0,0,1,.53-.46.5.5,0,0,1,.47.53l-2.24,32.43A.5.5,0,0,1,411.19,201.72Z" style="fill:#407BFF"></path><path d="M400.11,144.33H190.93a13.09,13.09,0,0,0-12.83,12L167.4,311a11.08,11.08,0,0,0,11.17,12H387.75a13.09,13.09,0,0,0,12.83-12l10.7-154.69A11.08,11.08,0,0,0,400.11,144.33Z" style="fill:#fff"></path><path d="M387.75,323.39H178.57A11.46,11.46,0,0,1,167,311l10.7-154.69A13.46,13.46,0,0,1,190.93,144H400.11a11.46,11.46,0,0,1,11.55,12.4L401,311A13.46,13.46,0,0,1,387.75,323.39ZM190.93,144.71a12.69,12.69,0,0,0-12.46,11.65L167.77,311a10.7,10.7,0,0,0,10.8,11.6H387.75A12.69,12.69,0,0,0,400.21,311l10.7-154.69a10.7,10.7,0,0,0-10.8-11.59Z" style="fill:#407BFF"></path><g style="opacity:0.2"><ellipse cx="263.3" cy="262.64" rx="22.89" ry="21.36" transform="translate(-108.55 256.68) rotate(-44.01)" style="fill:#407BFF"></ellipse><ellipse cx="263.3" cy="262.64" rx="18.32" ry="17.09" transform="translate(-108.55 256.68) rotate(-44.01)" style="fill:#fff"></ellipse><ellipse cx="263.3" cy="262.64" rx="13.74" ry="12.82" transform="translate(-108.55 256.68) rotate(-44.01)" style="fill:#407BFF"></ellipse><path d="M272.15,262.64a9.63,9.63,0,0,1-9.46,8.85,8.15,8.15,0,0,1-8.24-8.85,9.63,9.63,0,0,1,9.46-8.85A8.16,8.16,0,0,1,272.15,262.64Z" style="fill:#fff"></path><path d="M267.72,262.64a4.81,4.81,0,0,1-4.73,4.42,4.07,4.07,0,0,1-4.11-4.42,4.8,4.8,0,0,1,4.73-4.42A4.07,4.07,0,0,1,267.72,262.64Z" style="fill:#407BFF"></path></g><path d="M207,295.34H196a3.11,3.11,0,0,1-3.15-2.7,23.8,23.8,0,0,0-3.49-9.8,25.36,25.36,0,0,1-4-14.77,19.58,19.58,0,0,1,19.21-18,16.62,16.62,0,0,1,16.79,18,28.53,28.53,0,0,1-6,14.75,27.64,27.64,0,0,0-4.86,9.82A3.62,3.62,0,0,1,207,295.34Zm-2.44-44.24a18.56,18.56,0,0,0-18.21,17,24.39,24.39,0,0,0,3.84,14.18,24.63,24.63,0,0,1,3.64,10.2,2.13,2.13,0,0,0,2.16,1.83h11a2.59,2.59,0,0,0,2.49-1.89,28.74,28.74,0,0,1,5-10.18,27.56,27.56,0,0,0,5.82-14.2,15.62,15.62,0,0,0-15.79-17Z" style="fill:#407BFF"></path><path d="M213.11,268.71c-.56-.21-1.46-.12-2.65,1.68a28.67,28.67,0,0,0-3.1,7.45,7,7,0,0,1-1.3,0,4.06,4.06,0,0,1-3.08-1.47c.91-1.26,1.58-3.42,1.65-6.92.06-3.08-.33-4.52-1.27-4.51-1.34,0-2.28,3.37-2.49,5.62a9.41,9.41,0,0,0,1,5.81,2.88,2.88,0,0,1-2,.87,4.35,4.35,0,0,1-1.18-.1c-.21-3.68-.93-6.22-2.16-7.59a3.51,3.51,0,0,0-3-1.24c-2,.12-2.27,1.5-2.27,2.07,0,2.33,3.21,6.32,6.61,7.45.21,4.7-.35,11.88-2.33,22.83l-.07.41h.89l0-.3c1.77-9.74,2.57-17.33,2.37-22.71a6,6,0,0,0,1.12.07,3.73,3.73,0,0,0,2.47-1.05,4.87,4.87,0,0,0,3.57,1.65,7.36,7.36,0,0,0,1.15,0c-2.12,7.79-3.15,17.86-1.47,22.34h1c-1.83-4.05-.72-14.56,1.46-22.45a7.45,7.45,0,0,0,5.77-5.39C214.44,271.08,214.14,269.14,213.11,268.71Zm-21,1.62c0-.45.15-1.06,1.38-1.14h.23a2.67,2.67,0,0,1,2.13,1c.87,1,1.66,2.94,1.93,6.69C195,275.67,192.15,272.24,192.16,270.33Zm10.31,5.26a7.89,7.89,0,0,1-.75-2.95c-.22-3.34,1.05-6.61,1.55-6.81,0,0,.53.35.47,3.67A13.42,13.42,0,0,1,202.47,275.59ZM213,273a6.55,6.55,0,0,1-4.64,4.66,26.87,26.87,0,0,1,2.87-6.84c.66-1,1.16-1.33,1.43-1.33h.11C213.18,269.72,213.51,271.18,213,273Z" style="fill:#407BFF"></path><path d="M207,302.46h-12a1.24,1.24,0,0,1-1.26-1.34l.1-1.45a1.48,1.48,0,0,1,1.44-1.35h12a1.25,1.25,0,0,1,1.26,1.35l-.1,1.45A1.47,1.47,0,0,1,207,302.46Z" style="fill:#407BFF"></path><path d="M207,303h-12a1.72,1.72,0,0,1-1.29-.55,1.74,1.74,0,0,1-.46-1.33l.1-1.45a2,2,0,0,1,1.93-1.81h12a1.73,1.73,0,0,1,1.29.56,1.71,1.71,0,0,1,.46,1.32l-.1,1.45A2,2,0,0,1,207,303Zm-11.77-4.14a1,1,0,0,0-.94.88l-.1,1.45a.81.81,0,0,0,.2.58.75.75,0,0,0,.56.23h12a1,1,0,0,0,.94-.88l.1-1.45a.78.78,0,0,0-.2-.57.76.76,0,0,0-.56-.24Z" style="fill:#407BFF"></path><polygon points="356.79 227.67 345.03 215.04 351.74 210.9 361.37 221.25 356.79 227.67" style="fill:#407BFF"></polygon><polygon points="353.98 226.18 346.33 217.96 353.81 212.34 360.08 219.07 353.98 226.18" style="fill:#407BFF"></polygon><path d="M362.46,199.57l-8.81,7.71a4.74,4.74,0,0,1-3.85,1.23c-2.3-.44-6.88,1.14-6.88,1.14C346.66,205.8,351.26,196.11,362.46,199.57Z" style="fill:#407BFF"></path><path d="M373.39,211.32s-4.45,4.43-8.28,8.27a4.73,4.73,0,0,0-1.49,3.76c.28,2.33-1.62,6.81-1.62,6.81C366.09,226.69,376.06,222.75,373.39,211.32Z" style="fill:#407BFF"></path><path d="M380.46,205.12c6.5-6.77,9-14.13,6.14-17.15s-10.3-1.07-17.49,5l-17.83,15a3.28,3.28,0,0,0-.46,4.71l8.77,9.43a3.26,3.26,0,0,0,4.73-.14Z" style="fill:#fff"></path><path d="M361.82,223.5h0a3.5,3.5,0,0,1-2.56-1.11L350.46,213a3.5,3.5,0,0,1-.93-2.64,4,4,0,0,1,1.43-2.8l17.83-15c7.28-6.12,15.1-8.23,18.18-4.92s.44,11-6.15,17.84l-16.14,16.79A4,4,0,0,1,361.82,223.5Zm20.93-36.44c-3.51,0-8.57,2.27-13.32,6.25l-17.82,15a3,3,0,0,0-1.08,2.1,2.49,2.49,0,0,0,.66,1.89l8.77,9.43a2.54,2.54,0,0,0,1.84.79,3.1,3.1,0,0,0,2.16-.93l16.14-16.8c6.11-6.36,8.81-13.59,6.14-16.46A4.59,4.59,0,0,0,382.75,187.06Z" style="fill:#407BFF"></path><path d="M377.46,204.21A5.63,5.63,0,1,1,378,196,5.81,5.81,0,0,1,377.46,204.21Z" style="fill:#407BFF"></path><path d="M376.28,202.94a3.89,3.89,0,1,1,.39-5.68A4,4,0,0,1,376.28,202.94Z" style="fill:#fff;opacity:0.30000000000000004"></path><ellipse cx="318.82" cy="281.38" rx="19.4" ry="18.1" transform="translate(-105.98 300.52) rotate(-44.01)" style="fill:#407BFF"></ellipse><path d="M335.66,281.38a17.76,17.76,0,0,1-2.59,8,18.26,18.26,0,0,1-15.41,8.82,15.46,15.46,0,0,1-14.19-8.82,16,16,0,0,1-1.48-8,18.32,18.32,0,0,1,18-16.84A15.52,15.52,0,0,1,335.66,281.38Z" style="fill:#fff"></path><path d="M333.07,289.39a18.26,18.26,0,0,1-15.41,8.82,15.46,15.46,0,0,1-14.19-8.82,28.05,28.05,0,0,1,15.11-4.48A25.12,25.12,0,0,1,333.07,289.39Z" style="fill:#407BFF;opacity:0.6000000000000001"></path><path d="M326.72,275.62a8.17,8.17,0,0,1-8,7.5,6.91,6.91,0,0,1-7-7.5,8.17,8.17,0,0,1,8-7.5A6.91,6.91,0,0,1,326.72,275.62Z" style="fill:#407BFF;opacity:0.6000000000000001"></path><path d="M281.77,210.1a19,19,0,0,0-2.62-13.18L262,208.36l3.83,19.27a21.37,21.37,0,0,0,4.95-2,22.12,22.12,0,0,0,4.35-3.17A21.59,21.59,0,0,0,281.77,210.1Z" style="fill:#fff"></path><path d="M278.83,198.34a18.26,18.26,0,0,1,2,11.61,20.66,20.66,0,0,1-6.32,11.79,21.25,21.25,0,0,1-4.16,3,20.43,20.43,0,0,1-3.69,1.61l-3.49-17.55,15.7-10.48m.32-1.42L262,208.36l3.83,19.27a21.37,21.37,0,0,0,4.95-2,22.12,22.12,0,0,0,4.35-3.17,21.59,21.59,0,0,0,6.62-12.37,19,19,0,0,0-2.62-13.18Z" style="fill:#407BFF"></path><path d="M262,208.36l-17.5-8.43a21.88,21.88,0,0,1,4.37-5.67c8.27-7.74,21-7.74,28.21,0a17.61,17.61,0,0,1,2,2.66Z" style="fill:#407BFF"></path><path d="M262,208.36l3.83,19.27a19,19,0,0,1-18.91-5.16c-5.51-5.92-6.48-15-2.42-22.54Z" style="fill:#e0e0e0"></path><path d="M204.54,243.43a14.11,14.11,0,0,1,0-2.07l1,0a13.59,13.59,0,0,0,0,1.93Z" style="fill:#407BFF"></path><path d="M206.2,237.3l-1-.26a32.37,32.37,0,0,1,1.45-4.12l.92.4A31.17,31.17,0,0,0,206.2,237.3Zm3.27-7.79-.87-.49c.68-1.23,1.44-2.47,2.26-3.7l.83.56C210.89,227.08,210.14,228.3,209.47,229.51Zm4.72-7.08-.79-.62c.89-1.13,1.83-2.24,2.8-3.3l.74.67C216,220.22,215.06,221.32,214.19,222.43Zm5.73-6.29-.69-.73c1.07-1,2.17-2,3.27-2.85l.62.78C222,214.2,221,215.14,219.92,216.14Zm6.63-5.3L226,210a35.66,35.66,0,0,1,3.76-2.18l.45.89A38.76,38.76,0,0,0,226.55,210.84Z" style="fill:#407BFF"></path><path d="M234.11,207.12l-.3-1c.66-.22,1.33-.4,2-.55l.22,1C235.39,206.74,234.75,206.91,234.11,207.12Z" style="fill:#407BFF"></path><path d="M371.32,234.86c-.06-.67-.15-1.32-.26-1.94l1-.17c.12.64.21,1.32.28,2Z" style="fill:#407BFF"></path><path d="M352,273.43l-.51-.86c1.06-.63,2.11-1.33,3.1-2.06l.59.81C354.16,272.07,353.09,272.78,352,273.43Zm6.16-4.51-.67-.75c.92-.82,1.82-1.7,2.67-2.61l.73.68C360,267.17,359.1,268.07,358.16,268.92Zm5.2-5.59-.79-.61c.75-1,1.47-2,2.14-3.05l.85.54C364.87,261.28,364.13,262.33,363.36,263.33Zm4.11-6.43-.89-.46c.57-1.1,1.11-2.24,1.59-3.38l.92.38C368.6,254.62,368.05,255.78,367.47,256.9Zm2.94-7-1-.3c.38-1.19.71-2.4,1-3.6l1,.22C371.14,247.41,370.8,248.65,370.41,249.86Zm1.7-7.44-1-.14a36.87,36.87,0,0,0,.31-3.71l1,0C372.39,239.84,372.28,241.12,372.11,242.42Z" style="fill:#407BFF"></path><path d="M346.77,276.08l-.39-.92c.62-.26,1.22-.53,1.81-.81l.43.9C348,275.54,347.4,275.81,346.77,276.08Z" style="fill:#407BFF"></path><path d="M291.55,205.68c-.64-.16-1.28-.3-1.91-.4l.16-1c.66.11,1.33.25,2,.42Z" style="fill:#407BFF"></path><path d="M322.09,250.9l-1-.06c0-.57.05-1.16.05-1.75,0-.77,0-1.55-.08-2.34l1-.07c.06.81.09,1.62.09,2.41C322.14,249.7,322.12,250.31,322.09,250.9Zm-1.52-8.24c-.23-1.32-.52-2.67-.87-4l1-.25c.36,1.37.66,2.76.89,4.11Zm-2.07-8c-.45-1.29-.95-2.58-1.49-3.84l.91-.4c.56,1.29,1.07,2.6,1.52,3.92Zm-3.26-7.57c-.64-1.22-1.32-2.43-2-3.59l.85-.53c.73,1.18,1.43,2.41,2.07,3.66Zm-4.33-7c-.82-1.12-1.68-2.21-2.56-3.23l.76-.65c.9,1,1.78,2.15,2.61,3.29Zm-5.38-6.22a40.44,40.44,0,0,0-3.1-2.7l.61-.78a40.49,40.49,0,0,1,3.18,2.76Zm-6.48-5a29,29,0,0,0-3.63-1.87l.39-.92a31.1,31.1,0,0,1,3.76,1.93Z" style="fill:#407BFF"></path><path d="M321,257.09l-.95-.31c.19-.6.36-1.24.5-1.88l1,.21C321.37,255.79,321.19,256.46,321,257.09Z" style="fill:#407BFF"></path><path d="M225.14,178.51a6.36,6.36,0,0,0-6.43-6.85,7.23,7.23,0,0,0-2.63.5,7.66,7.66,0,0,0-7.17-4.69,9.1,9.1,0,0,0-8.6,6.54,7.83,7.83,0,0,0-7.22,7.16c0,.18,0,.35,0,.53h0A3.63,3.63,0,0,0,189.5,185a3.06,3.06,0,0,0,3.1,3.33h30.05a5.54,5.54,0,0,0,5.44-5.09A4.68,4.68,0,0,0,225.14,178.51Z" style="fill:#407BFF;opacity:0.2"></path><path d="M354.69,178.44a5.56,5.56,0,0,0-5.62-6,6.16,6.16,0,0,0-2.3.45,6.71,6.71,0,0,0-6.27-4.11A8,8,0,0,0,333,174.5a6.84,6.84,0,0,0-6.3,6.26c0,.16,0,.31,0,.46h0a3.17,3.17,0,0,0-3.12,2.91,2.69,2.69,0,0,0,2.71,2.92h26.27a4.85,4.85,0,0,0,4.76-4.46A4.08,4.08,0,0,0,354.69,178.44Z" style="fill:#407BFF;opacity:0.2"></path><path d="M286.42,164.62a5,5,0,0,1,4.87-4.53,4.25,4.25,0,0,1,1.69.34,6,6,0,0,1,5.16-3.1,5,5,0,0,1,5.08,4.32,4.35,4.35,0,0,1,4.11,4.72,2.09,2.09,0,0,1,0,.35h0a2,2,0,0,1,2.05,2.2,2.4,2.4,0,0,1-2.35,2.2H287.17a3.1,3.1,0,0,1-3.13-3.36A3.66,3.66,0,0,1,286.42,164.62Z" style="fill:#407BFF;opacity:0.1"></path></g></svg>