<svg xmlns="http://www.w3.org/2000/svg" viewBox="0 0 500 500"><g id="freepik--character-1--inject-165"><g id="freepik--character-on-the-couch--inject-165"><g id="freepik--Couch--inject-165"><path d="M326.27,272.3h10.15l-1.63,9.9h0a1.83,1.83,0,0,1-1,1.23,5.44,5.44,0,0,1-4.91,0,1.85,1.85,0,0,1-1-1.23h0Z" style="fill:#fafafa"></path><path d="M382,242.44h10.15l-1.62,9.9h0a1.86,1.86,0,0,1-1,1.22,5.44,5.44,0,0,1-4.91,0,1.84,1.84,0,0,1-1-1.22h0Z" style="fill:#fafafa"></path><path d="M251.08,230.19h10.15l-1.62,9.9h0a1.79,1.79,0,0,1-1,1.22,5.38,5.38,0,0,1-4.91,0,1.79,1.79,0,0,1-1-1.22h0Z" style="fill:#fafafa"></path><path d="M302.71,200.16h10.15l-1.62,9.9h0a1.81,1.81,0,0,1-1,1.22,5.44,5.44,0,0,1-4.91,0,1.81,1.81,0,0,1-1-1.22h0Z" style="fill:#fafafa"></path><path d="M243,178.16v47.28A10.93,10.93,0,0,0,247.9,234l4,2.32.07,0a11.12,11.12,0,0,0,6.15,1.05l60.25,31.88a11,11,0,0,0,4.86,8.18l.05,0,4,2.3a2.24,2.24,0,0,0,.37.2l.21.1.06,0a11.16,11.16,0,0,0,7.63.35,8,8,0,0,0,.86-.31.75.75,0,0,1,.13-.06,4.51,4.51,0,0,0,.58-.3l58-33.38a10.92,10.92,0,0,0,4.92-8.52l.08-59.85V155.25a11,11,0,0,0-4.92-8.53l-64.84-37.36a10.17,10.17,0,0,0-9.5.16l-4,2.31a13.09,13.09,0,0,0-5.67,8.48l-3.86,25.33-3.57-2.06a10.68,10.68,0,0,0-10.71,0L247.9,169.64A10.93,10.93,0,0,0,243,178.16Z" style="fill:#37474f"></path><path d="M316.85,111.83l4-2.31a10.17,10.17,0,0,1,9.5-.16l64.83,37.36c.29.17.6.39.51.32a11.24,11.24,0,0,1,4.36,7.38c-.36-2.52-2.41-3.43-4.86-2l-4,2.32a10.87,10.87,0,0,1-9.84,0l-64.49-37.2C314.13,116,314.13,113.4,316.85,111.83Z" style="fill:#455a64"></path><path d="M243,178.16v47.28A10.93,10.93,0,0,0,247.9,234l4,2.32.07,0a10.56,10.56,0,0,0,5.77,1.09,9.75,9.75,0,0,0,4-1.13L307.32,210a10.93,10.93,0,0,0,4.92-8.53V154.17a10.91,10.91,0,0,0-4.92-8.53l-3.57-2.06a10.68,10.68,0,0,0-10.71,0L247.9,169.64A10.93,10.93,0,0,0,243,178.16Z" style="fill:#263238"></path><path d="M303.74,143.58l3.58,2.06c2.71,1.56,2.71,4.12,0,5.68l-45.56,26.31a10.92,10.92,0,0,0-4.93,8.53v47.27c0,3.13-2.22,4.41-4.93,2.85l-4-2.32a10.93,10.93,0,0,1-4.92-8.52V178.16a11,11,0,0,1,4.92-8.53l45.14-26A10.66,10.66,0,0,1,303.74,143.58Z" style="fill:#455a64"></path><path d="M256.83,186.16v47.27c0,3.13-2.22,4.41-4.93,2.85l-4-2.32a10.93,10.93,0,0,1-4.92-8.52V178.16a10.1,10.1,0,0,1,1.45-4.85l13.85,8A10.07,10.07,0,0,0,256.83,186.16Z" style="fill:#37474f"></path><path d="M258.88,237.41a11.67,11.67,0,0,0,1.8,2.7,20.92,20.92,0,0,0,4.63,3.24c17.31,10,29.8,17.18,47.11,27.18a5.46,5.46,0,0,0,4.92,0l16-9.25,32-18.48a9.25,9.25,0,0,0,0-16.35L347.2,216l-13.85-8-15.05-8.66a10.87,10.87,0,0,0-9.85,0L262.9,225.62a10.56,10.56,0,0,0-4.93,8.17A8.72,8.72,0,0,0,258.88,237.41Z" style="fill:#263238"></path><path d="M312.42,259.87l-52-30c-1.35-.78-2.46-.14-2.46,1.43v5a5.48,5.48,0,0,0,2.46,4.26l52,30c1.36.78,2.46.14,2.46-1.42v-5A5.42,5.42,0,0,0,312.42,259.87Z" style="fill:#37474f"></path><path d="M318.3,174.93l47.07,27.14a10.88,10.88,0,0,1,4.92,8.53v10a10.9,10.9,0,0,1-4.92,8.52L319.8,255.39a10.87,10.87,0,0,1-9.84,0l-47.07-27.15a10.9,10.9,0,0,1-4.92-8.52v-10a10.91,10.91,0,0,1,4.92-8.53l45.57-26.3A10.87,10.87,0,0,1,318.3,174.93Z" style="fill:#37474f"></path><path d="M314.88,235.23v21.34a10,10,0,0,0,4.92-1.19l45.57-26.3a10.9,10.9,0,0,0,4.92-8.52v-10a11,11,0,0,0-4.42-8.21c2.2,1.58,2,3.9-.5,5.37l-45.57,26.3A10,10,0,0,1,314.88,235.23Z" style="fill:#263238"></path><path d="M310,234.06l-47.07-27.15c-2.71-1.57-2.71-4.11,0-5.68l45.57-26.3a10.87,10.87,0,0,1,9.84,0l47.07,27.14c2.72,1.57,2.72,4.12,0,5.69l-45.57,26.3A10.87,10.87,0,0,1,310,234.06Z" style="fill:#455a64"></path></g><g id="freepik--character--inject-165"><path d="M276.35,236.65s3.8,12.16,3.66,16.82c-.16,4.86.88,6.56-.39,11.75-.27,1.13-1.07,3.37-1.29,4.29a1.37,1.37,0,0,0,1.09,1.82c2.06.61,5.88-3,7.9-7.19a128.44,128.44,0,0,0,5.43-14.76,6.67,6.67,0,0,0-.38-3.44,10,10,0,0,0-.82-1.84c-.52-2.16-.51-6.19-.86-9Z" style="fill:#b16668"></path><path d="M296.48,254.13a5,5,0,0,1,.43,1.63c0,1-2.48,4-3.43,5.05a7.77,7.77,0,0,0-2,5.36,13.41,13.41,0,0,1-3.95,8.33,21.32,21.32,0,0,1-11.13,6c-5.22,1.14-6.8-1.56-6.8-1.56s-1.38-2.59-.34-3.52S296.48,254.13,296.48,254.13Z" style="fill:#263238"></path><path d="M291.55,244.1c.16,0,.43,0,.79.51.14.19.87,2.56,1.54,3.83s2.5,3.72,2.6,5.69c-1.5,3.67-5.26,6-6.09,9.52s-1.25,7.65-7.09,11.55-11.51,3.88-13.44,2.55-1.56-3.48,1.61-7.37c3.36-4.13,6.18-13.46,6.18-13.46a32.26,32.26,0,0,0,.87-4,27.12,27.12,0,0,0,0-4,3,3,0,0,1,.41-1.79,3.11,3.11,0,0,1,1.59-.92,13.35,13.35,0,0,1,2.9-.71,4.48,4.48,0,0,1,2.87.59,21.51,21.51,0,0,0,1.71,1.31,2.61,2.61,0,0,0,2.73-.25,2.25,2.25,0,0,0,.94-2.41A5.82,5.82,0,0,0,291.55,244.1Z" style="fill:#455a64"></path><path d="M286.8,272a8.77,8.77,0,0,0-7.58-5c-5.82-.46-8.08,2.33-9.11,4-1.23,2-2.64,5.65-.33,6.93,2.49,1.38,5.52,1.28,10.45-.69S286.8,272,286.8,272Z" style="fill:#fafafa"></path><path d="M287.21,254.37a.62.62,0,0,1-.53-.05c-.86-.53-5.53-1.93-8.51.41-.34-.32-.22-.84.3-1.54,3.42-1.79,7.84-.49,8.88.16a.56.56,0,0,1,.16.79A.61.61,0,0,1,287.21,254.37Z" style="fill:#fafafa"></path><path d="M277.28,258.07a1.82,1.82,0,0,1,.48-1.57,10.87,10.87,0,0,1,8.44.37.56.56,0,0,1,.16.79.61.61,0,0,1-.82.18C284.7,257.33,280.27,256,277.28,258.07Z" style="fill:#fafafa"></path><path d="M274.25,265.73a3.37,3.37,0,0,1,.92-2.05c3.39-1.67,7.71-.4,8.74.23a.57.57,0,0,1,.16.8.68.68,0,0,1-.3.23.62.62,0,0,1-.53-.05C282.34,264.33,277.19,262.81,274.25,265.73Z" style="fill:#fafafa"></path><path d="M284.92,261.41a.58.58,0,0,1-.53,0c-.85-.53-5.42-1.89-8.41.33a2,2,0,0,1,.63-1.68,10.87,10.87,0,0,1,8.44.37.58.58,0,0,1-.13,1Z" style="fill:#fafafa"></path><path d="M270,250.65s-3.59,14.15-6.7,19.49-4.7,7.92-8.7,11.82c-.87.85-2.82,2.4-3.53,3.09a1.44,1.44,0,0,0,0,2.22c1.49,1.69,8.33,2.63,12.42.07s8.12-8.41,10.61-10.54c.94-.8,1.82-1.62,2.68-2.5s.69-1.74.84-2.75c.07-.5.11-1.85.11-1.85.73-2.37,2.48-6,3.43-8.33Z" style="fill:#b16668"></path><path d="M278.1,280.65a5.25,5.25,0,0,1-.33,1.74c-.46.9-4.11,2.64-5.5,3.24A8.16,8.16,0,0,0,268,289.8a14,14,0,0,1-7.46,6.11,22.21,22.21,0,0,1-13.22.72c-5.45-1.26-5.73-4.52-5.73-4.52s-.15-3.06,1.25-3.48S278.1,280.65,278.1,280.65Z" style="fill:#263238"></path><path d="M277.91,269c.15.08.42.19.53.83,0,.25-.32,2.82-.25,4.31s.7,4.64-.09,6.55c-3.06,2.81-7.66,3.33-10,6.29s-4.59,6.69-11.87,7.77-12.62-1.48-13.85-3.59.07-4,4.81-6.26c5-2.41,11.86-10,11.87-10a33.08,33.08,0,0,0,2.6-3.39,28.36,28.36,0,0,0,1.77-3.83,3.13,3.13,0,0,1,1.18-1.51,3.21,3.21,0,0,1,1.92-.15,14.43,14.43,0,0,1,3.06.61,4.73,4.73,0,0,1,2.45,1.85c.39.64.58,1.4,1,2a2.75,2.75,0,0,0,2.7,1,2.33,2.33,0,0,0,2-1.86A5.55,5.55,0,0,0,277.91,269Z" style="fill:#455a64"></path><path d="M261,293.22a9.15,9.15,0,0,0-4.95-8.08c-5.3-3.05-8.68-1.42-10.4-.3-2.05,1.33-5,4.16-3.41,6.41,1.74,2.42,4.66,3.67,10.2,4S261,293.22,261,293.22Z" style="fill:#fafafa"></path><path d="M269.22,276.74a.64.64,0,0,1-.48-.28c-.57-.89-4.37-4.3-8.24-3.42-.17-.45.17-.89,1-1.32,4-.16,7.63,3,8.33,4.11a.58.58,0,0,1-.21.82A.65.65,0,0,1,269.22,276.74Z" style="fill:#fafafa"></path><path d="M258.18,275.8a1.88,1.88,0,0,1,1.14-1.27,11.44,11.44,0,0,1,7.83,4.12.58.58,0,0,1-.21.82.64.64,0,0,1-.86-.19C265.53,278.42,261.92,275.19,258.18,275.8Z" style="fill:#fafafa"></path><path d="M251.88,281.7a3.56,3.56,0,0,1,1.79-1.53c4-.06,7.48,3.07,8.16,4.13a.58.58,0,0,1-.2.82.64.64,0,0,1-.38.08.61.61,0,0,1-.48-.28C260.16,284,256,280.24,251.88,281.7Z" style="fill:#fafafa"></path><path d="M263.91,282.38a.6.6,0,0,1-.48-.28c-.57-.88-4.29-4.21-8.11-3.44a2.14,2.14,0,0,1,1.34-1.31,11.48,11.48,0,0,1,7.83,4.12.59.59,0,0,1-.2.83A.64.64,0,0,1,263.91,282.38Z" style="fill:#fafafa"></path><path d="M308.5,171.64c-6.25,3.81-27.73,13.91-36.69,20.91-2.59,2-3.63,4.88-3.58,11.31.07,8.73,4.39,38.81,4.39,38.81.8,1.75,2.71-1.28,2.71-1.28l35.93-38.46Z" style="fill:#BA68C8"></path><path d="M308.5,171.64c-6.25,3.81-27.73,13.91-36.69,20.91-2.59,2-3.63,4.88-3.58,11.31.07,8.73,4.39,38.81,4.39,38.81.8,1.75,2.71-1.28,2.71-1.28l35.93-38.46Z" style="opacity:0.30000000000000004"></path><path d="M274.8,233.6c8-5.64,35.53-41.87,35.53-41.87h0c-3.07-3.07-4-12.89-4-12.89-1.62,3.62-.72,9.37.13,11.51-2.05,1.49-13.59,9.46-21.59,14.76a10.75,10.75,0,0,0-5,6.34C277.66,219.43,274.77,231.94,274.8,233.6Z" style="opacity:0.30000000000000004"></path><path d="M308.5,171.64h0l41,12.77c-2.68,7.5-3.6,11.41-6.07,15.27s-5.21,8-16.52,12.42c-10.9,4.27-24.13,8.5-26.79,9.5-2,.75-3.24,4.53-4.54,9.45-1.35,5.16-1.78,9.26-7.89,19.81-6,10.34-7.21,12.58-7.21,12.58s-7.92.15-12.75-4.87c0,0,10.22-36.31,12.3-42.83,1.16-3.64,1.34-5.59,6.29-9.28,4.25-3.17,23-15,23-15S303.12,181.42,308.5,171.64Z" style="fill:#BA68C8"></path><path d="M308.5,171.64h0l41,12.77c-2.68,7.5-3.6,11.41-6.07,15.27s-5.21,8-16.52,12.42c-10.9,4.27-24.13,8.5-26.79,9.5-2,.75-3.24,4.53-4.54,9.45-1.35,5.16-1.78,9.26-7.89,19.81-6,10.34-7.21,12.58-7.21,12.58s-7.92.15-12.75-4.87c0,0,10.22-36.31,12.3-42.83,1.16-3.64,1.34-5.59,6.29-9.28,4.25-3.17,23-15,23-15S303.12,181.42,308.5,171.64Z" style="opacity:0.30000000000000004"></path><path d="M310.63,115c-.79-.47-1.14-5.74-.3-9.5s-.9-4.68-1.76-3.5a6.17,6.17,0,0,0-1.06,2.19,10.48,10.48,0,0,0-4.9,2.61c-2.11,2.09-4.59,4.64-3.86,10.21a14.52,14.52,0,0,1-.38,5.54c-3,8.18-13.66,18.42-16.06,29.33-2.22,10,5.61,11,12.45,8,7.86-3.53,22.92-16.9,22.92-16.9l6.53-21.91c-4.15,0-7.24.67-12.75,6-.92.89-4.75,4.16-4.75,4.16a45,45,0,0,1,3.92-7.68" style="fill:#b16668"></path><path d="M301.15,145.61a47.65,47.65,0,0,1-4,7.25,14.29,14.29,0,0,0,5.13-6Z" style="fill:#9a4a4d"></path><path d="M325.11,121.06c-4.5-.42-8.14.28-11.67,3.69-3.25,3.15-6.73,6.47-6.73,6.47-2.33,5.42-4,10.68-5.56,14.39a19.61,19.61,0,0,0,4.18,7.87l18.24-14.65Z" style="fill:#fafafa"></path><path d="M308.25,121.07c1.26-2-.59-3.94-.59-3.94l3-2V115l0,0-12-.54a14.41,14.41,0,0,0,.11,2.57,18.8,18.8,0,0,1,.09,2.6l1.56.93a1.17,1.17,0,0,0,1.12,0l5.05-2.61C308.32,118.68,308.25,121.07,308.25,121.07Z" style="fill:#9a4a4d"></path><path d="M298.57,104.36l21-9.91a1.17,1.17,0,0,1,1.18,0c.26.17,1.34.84,1.64,1a1.12,1.12,0,0,1,.53,1l.68,10.87a2.67,2.67,0,0,1-1.44,2.38l-21,9.91a1.24,1.24,0,0,1-1.11,0c-.3-.17-1.47-.89-1.78-1.09a1.18,1.18,0,0,1-.46-.92c-.17-2.73-.51-8.14-.68-10.87A2.66,2.66,0,0,1,298.57,104.36Z" style="fill:#37474f"></path><path d="M322.15,107.57a1.47,1.47,0,0,1-.72,1.19l-19.87,9.39,0,.48-.81-11.57a1.43,1.43,0,0,1,.71-1.17l20.32-9.63h0l-.44.21Z" style="fill:#BA68C8"></path><path d="M322.15,107.57a1.47,1.47,0,0,1-.72,1.19l-19.87,9.39,0,.48-.81-11.57a1.43,1.43,0,0,1,.71-1.17l20.32-9.63h0l-.44.21Z" style="fill:#fff;opacity:0.75"></path><path d="M322.64,107.84a1.48,1.48,0,0,1-.72,1.18l-20.33,9.61,0-.48,19.87-9.39a1.47,1.47,0,0,0,.72-1.19l-.78-11.09.44-.21Z" style="fill:#263238"></path><path d="M300.11,119.65l-.06,0c-.3-.17-1.47-.89-1.78-1.09a1.18,1.18,0,0,1-.46-.92c-.17-2.73-.51-8.14-.68-10.87a2.62,2.62,0,0,1,.73-1.84l1.71,1a2.61,2.61,0,0,0-.74,1.85l.68,10.88A1.11,1.11,0,0,0,300.11,119.65Z" style="fill:#263238"></path><path d="M322.4,95.45a1.25,1.25,0,0,0-1.08,0l-21,9.92a2.24,2.24,0,0,0-.71.52l-1.72-1a2.47,2.47,0,0,1,.72-.54l21-9.91a1.21,1.21,0,0,1,1.17,0C321,94.62,322,95.24,322.4,95.45Z" style="fill:#455a64"></path><path d="M300.28,112.3a.78.78,0,0,0-.41.71.3.3,0,0,0,.47.27.8.8,0,0,0,.41-.71A.3.3,0,0,0,300.28,112.3Z" style="opacity:0.35000000000000003"></path><path d="M311,115c.63-.52.86-2.15,1.93-3.62,1.24-1.69,4.1-1.25,3.21.12s-1.2,2.61-1.85,6.1-2.05,4-3.61,6v-8.41Z" style="fill:#b16668"></path><path d="M339.91,122.73c3.45.91,14.6,5.31,14.6,5.31,2.4,1.88,1.39,6,1.35,10.73-.93,34.3-6.87,49.58-6.87,49.58-13.42,2.94-37.93-5.59-42.49-15.83,4.1-6.23,6.86-15.54,7.44-33.82.43-13.57,6.6-17.67,10.6-17.64A65.83,65.83,0,0,1,339.91,122.73Z" style="fill:#ebebeb"></path><path d="M322.81,94.51a4.88,4.88,0,0,0,0-2.4c-.24-.85-.56-1.67-.77-2.52-.27-1.15-.58-2.3-.92-3.43A16.49,16.49,0,0,1,320,81.28a3,3,0,0,1,.83-2.17,3,3,0,0,1,2.92-.49,8.87,8.87,0,0,1,2.65,1.59,5.53,5.53,0,0,1,1-3.45,3.2,3.2,0,0,1,3.23-1.22c1.12.31,1.89,1.32,2.79,2.06,1.64,1.35,3.8,1.83,5.86,2.36a14.54,14.54,0,0,1,5.95,2.53,9.32,9.32,0,0,1,3.52,7c0,1-.42,3.47-.58,4.79-.25,2-.46,4-.78,5.93-1.64,10-4.91,17.26-15,16.52-3.84-.29-9.2-2.67-10.2-6.85a14.6,14.6,0,0,1-.19-2.19c-.1-1.47-.14-3-.11-4.42A52.88,52.88,0,0,1,322.81,94.51Z" style="fill:#263238"></path><path d="M348.79,89.52s1.94.07,3,2.6c.89,2.2,1.3,5.67-.86,11-2.28,5.65-4.07,7.42-5.31,9.52-.89,1.51-2.31,4.35-2.31,4.35l.63-6.64.57-4.61s-2.84-.65-3.66-5.26c-.93-5.18.05-5.83.05-5.83Z" style="fill:#455a64"></path><path d="M344.27,105.2a1.15,1.15,0,0,0,1.09-.08c.92-.54,1.35-1.7,2.13-2.4,1-.91,4.16-2,5.45,1.3s-1.95,7.64-4.31,8.54c-3.47,1.32-4.73-2.17-4.73-2.17l-1.34,14c-4,6.12-8.29,6.61-12.39,6.32s-3.79-4.1-1.16-6.72l.35-4.56a26.78,26.78,0,0,1-5.62-.12c-3-.7-4.45-3.11-5.13-6.49a45,45,0,0,1-.48-11.87,49.44,49.44,0,0,1,2.3-10.76s1.74-1.58,6.79-1.66c3.57,0,8.07-.3,9.94,1.94a5.11,5.11,0,0,0,3.7,4.26C339.78,101.89,343.67,104.94,344.27,105.2Z" style="fill:#b16668"></path><path d="M337.29,91.05c-.74-1.36-3.37-2-4.89-1.78a35.47,35.47,0,0,0-6.16,1.9,14.5,14.5,0,0,1-4.62.77,8.33,8.33,0,0,1-4.3-1.1A5,5,0,0,1,315.38,87a5,5,0,0,1,1.73-3.9,2.06,2.06,0,0,0,1,1.68,6.17,6.17,0,0,0,1.89.72,3.73,3.73,0,0,1-1.25-3.51,4.91,4.91,0,0,1,2.87-3.29c1.2-.34,2.59-.7,5.25,1.5S338.57,83.72,337.29,91.05Z" style="fill:#263238"></path><path d="M329.36,119.39s6.91-.87,9.38-2a7.92,7.92,0,0,0,3.54-3,10.76,10.76,0,0,1-2.16,3.7c-1.9,2.1-10.9,3.08-10.9,3.08Z" style="fill:#9a4a4d"></path><path d="M332.21,101.71a1.37,1.37,0,1,0,1.47-1.32A1.4,1.4,0,0,0,332.21,101.71Z" style="fill:#263238"></path><path d="M333.1,96.65,336,98.23a1.75,1.75,0,0,0-.71-2.32A1.63,1.63,0,0,0,333.1,96.65Z" style="fill:#263238"></path><path d="M332.47,110.26,326.6,112a3,3,0,0,0,3.74,2.18A3.2,3.2,0,0,0,332.47,110.26Z" style="fill:#9a4a4d"></path><path d="M330.34,114.16a3,3,0,0,1-1.59,0,2.77,2.77,0,0,1,2.95-2.46,2.47,2.47,0,0,1,.77.17A3.15,3.15,0,0,1,330.34,114.16Z" style="fill:#f28f8f"></path><path d="M320,97l3.24-1a1.61,1.61,0,0,0-2-1.17A1.77,1.77,0,0,0,320,97Z" style="fill:#263238"></path><path d="M321,100.84a1.38,1.38,0,0,0,1.26,1.52,1.42,1.42,0,1,0-1.26-1.52Z" style="fill:#263238"></path><polygon points="328.15 99.25 327.16 108.49 322.53 106.52 328.15 99.25" style="fill:#9a4a4d"></polygon></g><path d="M332.21,276.93V229.65a11,11,0,0,1,4.92-8.53l45.63-26.33a3.25,3.25,0,0,0,0-5.62l-1.12-.64,3.87-25.33a13.09,13.09,0,0,1,5.67-8.48l4-2.31c2.71-1.57,4.92-.29,4.92,2.84V178L400,237.86a10.9,10.9,0,0,1-4.92,8.52l-58,33.39C334.43,281.33,332.21,280.05,332.21,276.93Z" style="fill:#263238"></path><path d="M318.37,221.65v47.28c0,.1,0,.22,0,.32a11,11,0,0,0,4.86,8.18l.05,0,4,2.3a2.24,2.24,0,0,0,.37.2l.21.1.06,0a2.39,2.39,0,0,0,.39.15,11.42,11.42,0,0,0,7.24.2,8,8,0,0,0,.86-.31c-2.37,1-4.2-.36-4.21-3.19h0V229.65a10.93,10.93,0,0,1,4.92-8.53l8.94-5.16,36.69-21.17a3.25,3.25,0,0,0,0-5.62l-4.07-2.35a10.93,10.93,0,0,0-9.84,0L332.21,208l-8.92,5.15A10.9,10.9,0,0,0,318.37,221.65Z" style="fill:#455a64"></path><path d="M332.21,229.65v47.27h0c0,2.83,1.84,4.16,4.21,3.19a8,8,0,0,1-.86.31,11.42,11.42,0,0,1-7.24-.2,2.39,2.39,0,0,1-.39-.15l-.06,0-.21-.1a2.24,2.24,0,0,1-.37-.2l-4-2.3-.05,0a11,11,0,0,1-4.86-8.18c0-.1,0-.22,0-.32V221.65a10.08,10.08,0,0,1,1.44-4.85l13.85,8A10,10,0,0,0,332.21,229.65Z" style="fill:#37474f"></path><g id="freepik--arm--inject-165"><path d="M372.87,176c-1.33-10.42-2.44-15.84-3.81-22.83-3.19-16.22-2.44-20.88-14.17-23.93,0,0-4.25,3.74-4.43,13.34-.13,7.25,2,11.24,2,11.24l5,24c-4.33,4-15.43,12.72-18.14,14.15-3.65,1.94-7.7,2.69-11.6,4-2.59.89-5,2-7.54,3.06a1,1,0,0,0-.38.21.78.78,0,0,0-.16.83,1.51,1.51,0,0,0,.58.67,4.85,4.85,0,0,0,4.2.57c1.19-.27,2.21-.9,3.62-.86.27,0,.56.08.45.42a2.44,2.44,0,0,1-.43.64,9.77,9.77,0,0,1-3.94,1.9,16.08,16.08,0,0,1-4.2.6,17,17,0,0,0-3.42.23,2.6,2.6,0,0,0-1,.43c-1.55,1.21.91,2.14,1.41,3,.26.44.72,1.22,1,1.63a3.32,3.32,0,0,0,1.2.76,16.39,16.39,0,0,1,1.61,1.16,7.83,7.83,0,0,0,4.43,1.15,24.84,24.84,0,0,0,3.94-.41A16.79,16.79,0,0,0,336.7,209a22.84,22.84,0,0,0,2.6-2.41c.7-.73,1.39-1.48,2.14-2.18a44.35,44.35,0,0,1,3.86-2.93c1.95-1.13,13.13-6.42,24.34-14.24C374.56,183.79,373.46,180.56,372.87,176Z" style="fill:#b16668"></path><path d="M354.51,128c8.31,2.7,10.57,6.21,11.36,8.87,1.15,3.83,2,8.2,3.38,14.67,2,9.68,2.36,13.51,2.36,13.51s-4.58,3.71-16.48,3.56l-4-15.74S345.34,139.1,354.51,128Z" style="fill:#fafafa"></path></g></g></g></svg>