<svg xmlns="http://www.w3.org/2000/svg" viewBox="0 0 500 500"><g id="freepik--Floor--inject-165"><ellipse id="freepik--floor--inject-165" cx="250" cy="326.47" rx="243.71" ry="147.16" style="fill:#f5f5f5"></ellipse></g><g id="freepik--Shadows--inject-165"><path id="freepik--Shadow--inject-165" d="M20.2,337.13,237,462.31a9.32,9.32,0,0,0,8.42,0l114-65.82c2.33-1.35,2.33-3.52,0-4.87L142.64,266.44a9.34,9.34,0,0,0-8.43,0l-114,65.83C17.87,333.61,17.87,335.79,20.2,337.13Z" style="fill:#e0e0e0"></path><path id="freepik--shadow--inject-165" d="M247.51,206.84c8.72,5.09,8.72,13.34,0,18.43s-22.85,5.09-31.57,0-8.72-13.34,0-18.43S238.79,201.75,247.51,206.84Z" style="fill:#e0e0e0"></path><path id="freepik--shadow--inject-165" d="M458.34,274.11,321,194.8a5.44,5.44,0,0,0-5.07-.08L239.52,239c-1.41.82-1.41,2.13,0,2.95L272.58,261,244,280.28c-9.16,6.17-11.13,14.33-4.4,18.21s22.53,4.16,32.43-.74l32.77-18.18,13.72,7.92,58.1,33.58a5.68,5.68,0,0,0,5.11,0l76.62-44C459.71,276.31,459.73,275,458.34,274.11Z" style="fill:#e0e0e0"></path></g><g id="freepik--Plant--inject-165"><g id="freepik--Pot--inject-165"><g id="freepik--pot--inject-165"><path d="M219.75,218.07c-6.4-6.61-10.17-33.51-3.92-38.76h31.79c6.25,5.24,2.49,32.14-3.91,38.75l-.18.18-.22.22a7.37,7.37,0,0,1-.58.52l-.15.12c-.16.13-.31.25-.48.37a9.75,9.75,0,0,1-.83.54c-5.27,3.07-13.81,3.07-19.08,0h0c-.29-.16-.56-.35-.84-.54s-.3-.23-.45-.35-.13-.09-.19-.15-.38-.33-.56-.5l-.25-.25Z" style="fill:#BA68C8"></path><path d="M219.75,218.07c-6.4-6.61-10.17-33.51-3.92-38.76h31.79c6.25,5.24,2.49,32.14-3.91,38.75l-.18.18-.22.22a7.37,7.37,0,0,1-.58.52l-.15.12c-.16.13-.31.25-.48.37a9.75,9.75,0,0,1-.83.54c-5.27,3.07-13.81,3.07-19.08,0h0c-.29-.16-.56-.35-.84-.54s-.3-.23-.45-.35-.13-.09-.19-.15-.38-.33-.56-.5l-.25-.25Z" style="opacity:0.30000000000000004"></path><path d="M244.86,177.2c7.25,4.24,7.25,11.1,0,15.34s-19,4.23-26.27,0-7.25-11.1,0-15.34S237.61,173,244.86,177.2Z" style="fill:#BA68C8"></path><path d="M244.86,177.2c7.25,4.24,7.25,11.1,0,15.34s-19,4.23-26.27,0-7.25-11.1,0-15.34S237.61,173,244.86,177.2Z" style="opacity:0.1"></path><path d="M241.37,179.24c5.33,3.11,5.33,8.15,0,11.26s-14,3.11-19.29,0-5.33-8.15,0-11.26S236.05,176.13,241.37,179.24Z" style="fill:#455a64"></path><path d="M222.08,184.58c5.33-3.11,14-3.11,19.29,0a8.87,8.87,0,0,1,3.19,3,8.78,8.78,0,0,1-3.19,3c-5.32,3.11-14,3.11-19.29,0a8.86,8.86,0,0,1-3.19-3A9,9,0,0,1,222.08,184.58Z" style="fill:#f5f5f5"></path></g><g id="freepik--Plants--inject-165"><path d="M249.35,132.39l-12.71,8.69,12-4.55a21.87,21.87,0,0,1-2.38,9.24s-7.94,3.85-12.25,7.91l10.57-3.32A51.64,51.64,0,0,1,242.87,162c-.91,3.36-4,9.61-5.9,12.84a39.62,39.62,0,0,1-2.91,4.3c-.06.09-.13.17-.2.26-2-1.31-4-2.6-6.12-3.85-1.23-3.12-2.57-10.7-2.82-16.85-.92-23.55,17.69-35.69,32.21-39.18A42.48,42.48,0,0,0,249.35,132.39Z" style="fill:#BA68C8"></path><path d="M249.35,132.39l-12.71,8.69,12-4.55a21.87,21.87,0,0,1-2.38,9.24s-7.94,3.85-12.25,7.91l10.57-3.32A51.64,51.64,0,0,1,242.87,162c-.91,3.36-4,9.61-5.9,12.84a39.62,39.62,0,0,1-2.91,4.3c-.06.09-.13.17-.2.26-2-1.31-4-2.6-6.12-3.85-1.23-3.12-2.57-10.7-2.82-16.85-.92-23.55,17.69-35.69,32.21-39.18A42.48,42.48,0,0,0,249.35,132.39Z" style="opacity:0.2"></path><path d="M239.21,132.65a17.59,17.59,0,0,0-3.3,4,34.69,34.69,0,0,0-2.33,4.64,47.93,47.93,0,0,0-2.85,9.95,44,44,0,0,0,1.12,20.47h0a.34.34,0,0,1-.64.2h0a44.47,44.47,0,0,1-.8-20.73,48.13,48.13,0,0,1,3-10,33.79,33.79,0,0,1,2.41-4.62A17.9,17.9,0,0,1,239.21,132.65Z" style="fill:#fafafa"></path><path d="M193,139.36l0,0a181.07,181.07,0,0,1,12.06,18.1l12.18,2.35-9.07,1.3,4.61,7.82,12,2.87-9.45,1.24s2.33,9.26,8.94,13.29c3.65,2.23,5.46,2.61,6.61,1.58.8-.72,1.12-5.12,1.89-9s1-10.29-2.45-18.12a24,24,0,0,0-3.68-5.78C218.05,144.8,201.36,139.5,193,139.36Z" style="fill:#BA68C8"></path><path d="M193,139.36l0,0a181.07,181.07,0,0,1,12.06,18.1l12.18,2.35-9.07,1.3,4.61,7.82,12,2.87-9.45,1.24s2.33,9.26,8.94,13.29c3.65,2.23,5.46,2.61,6.61,1.58.8-.72,1.12-5.12,1.89-9s1-10.29-2.45-18.12a24,24,0,0,0-3.68-5.78C218.05,144.8,201.36,139.5,193,139.36Z" style="fill:#fff;opacity:0.30000000000000004"></path><path d="M227.76,164.79a0,0,0,0,1,0,0v0a36.86,36.86,0,0,1,2.5,10.2h0a109.47,109.47,0,0,1-.06,13.28,2.05,2.05,0,0,0,.69-.39c.8-.72,1.12-5.12,1.89-9s1-10.29-2.45-18.12a24,24,0,0,0-3.68-5.78c-8.61-10.2-25.3-15.5-33.63-15.64,12.72,2.49,26.2,11.41,32.68,21.51A25.69,25.69,0,0,1,227.76,164.79Z" style="opacity:0.1"></path><path d="M205.72,143.76a49.9,49.9,0,0,1,16.66,12.29,33,33,0,0,1,5.57,8.83A31.48,31.48,0,0,1,230.3,175s0,0,0,0,0,0,0,0a40.43,40.43,0,0,0-2.91-9.88,38.38,38.38,0,0,0-5.35-8.76,44.21,44.21,0,0,0-7.49-7.1,58.94,58.94,0,0,0-8.79-5.47s0,0,0,0S205.7,143.76,205.72,143.76Z" style="fill:#fafafa"></path><path d="M269,148.05h0a25.87,25.87,0,0,0-3.08,0A49.21,49.21,0,0,0,254,150.23c-1.44.45-2.88,1-4.3,1.55-.72.29-1.42.6-2.12.93a34.4,34.4,0,0,0-9.4,6.32,21.58,21.58,0,0,0-3.34,4.19l-.37.59h0c-.29.52-.55,1-.81,1.54a29.48,29.48,0,0,0-3.45,14.34c-.07,3.52.9,7.59,1.55,8.29a1.68,1.68,0,0,0,.29.24c1,.7,2.58.41,5.64-1.09,6.15-3,9-11.31,9-11.31l-8.2-1.87,10.75-1.53,4.69-6.5L246,164,256.86,163a161,161,0,0,1,12.08-14.92Z" style="fill:#BA68C8"></path><path d="M265.88,148A49.21,49.21,0,0,0,254,150.23c-1.44.45-2.88,1-4.3,1.55-.72.29-1.42.6-2.12.93a34.4,34.4,0,0,0-9.4,6.32,21.58,21.58,0,0,0-3.34,4.19l-.37.59h0c-.29.52-.55,1-.81,1.54a29.48,29.48,0,0,0-3.45,14.34c-.07,3.52.9,7.59,1.55,8.29a1.68,1.68,0,0,0,.29.24,1.76,1.76,0,0,0,.64.28c-.43-5.48,3-19.13,7.37-24.58,4.55-5.67,15-13.67,28.93-15.87h0A25.36,25.36,0,0,0,265.88,148Z" style="opacity:0.1"></path><path d="M232.61,188.51a46.69,46.69,0,0,1,1.45-12,38.82,38.82,0,0,1,4.62-11.19,27.36,27.36,0,0,1,3.91-4.68,38.68,38.68,0,0,1,4.67-3.89A44.79,44.79,0,0,1,258,151.12s0,0,0,0,0,0,0,0a59,59,0,0,0-10.33,6.13,48.25,48.25,0,0,0-4.61,3.83,26.53,26.53,0,0,0-3.92,4.49,38.76,38.76,0,0,0-4.75,11,46.85,46.85,0,0,0-1.7,11.9s0,0,0,0A0,0,0,0,1,232.61,188.51Z" style="fill:#fafafa"></path></g></g></g><g id="freepik--side-table--inject-165"><g id="freepik--side-table--inject-165"><g id="freepik--side-table--inject-165"><polygon points="366.64 284.72 373.01 281.04 366.64 279.2 366.64 284.72" style="fill:#BA68C8"></polygon><polygon points="366.64 284.72 373.01 281.04 366.64 279.2 366.64 284.72" style="fill:#fff;opacity:0.6000000000000001"></polygon><polygon points="366.64 284.72 373.01 281.04 366.64 279.2 366.64 284.72" style="opacity:0.05"></polygon><polygon points="366.64 284.72 363.45 282.88 363.45 277.36 366.64 279.2 366.64 284.72" style="fill:#BA68C8"></polygon><polygon points="366.64 284.72 363.45 282.88 363.45 277.36 366.64 279.2 366.64 284.72" style="fill:#fff;opacity:0.75"></polygon><polygon points="398.56 297.63 398.56 303.5 444.66 276.89 444.66 271.02 398.56 297.63" style="fill:#BA68C8"></polygon><polygon points="398.56 297.63 398.56 303.5 444.66 276.89 444.66 271.02 398.56 297.63" style="fill:#fff;opacity:0.6000000000000001"></polygon><polygon points="398.56 297.63 398.56 303.5 444.66 276.89 444.66 271.02 398.56 297.63" style="opacity:0.1"></polygon><polygon points="398.56 303.5 395.37 301.66 395.37 295.79 398.56 297.63 398.56 303.5" style="fill:#BA68C8"></polygon><polygon points="398.56 303.5 395.37 301.66 395.37 295.79 398.56 297.63 398.56 303.5" style="fill:#fff;opacity:0.75"></polygon><polygon points="447.85 225.03 401.74 251.64 401.74 299.47 447.85 272.86 447.85 225.03" style="fill:#BA68C8"></polygon><polygon points="447.85 225.03 401.74 251.64 401.74 299.47 447.85 272.86 447.85 225.03" style="fill:#fff;opacity:0.6000000000000001"></polygon><polygon points="401.74 251.64 360.26 227.69 360.26 275.52 401.74 299.47 401.74 251.64" style="fill:#BA68C8"></polygon><polygon points="401.74 251.64 360.26 227.69 360.26 275.52 401.74 299.47 401.74 251.64" style="fill:#fff;opacity:0.75"></polygon><polygon points="360.26 227.69 406.37 201.08 447.85 225.03 401.74 251.64 360.26 227.69" style="fill:#BA68C8"></polygon><polygon points="360.26 227.69 406.37 201.08 447.85 225.03 401.74 251.64 360.26 227.69" style="fill:#fff;opacity:0.85"></polygon><polygon points="398.56 268.2 363.45 247.93 363.45 273.68 398.56 293.95 398.56 268.2" style="fill:#BA68C8"></polygon><polygon points="398.56 268.2 363.45 247.93 363.45 273.68 398.56 293.95 398.56 268.2" style="fill:#fff;opacity:0.7000000000000001"></polygon><polygon points="363.45 273.68 385.6 260.72 398.56 268.2 398.56 293.95 363.45 273.68" style="opacity:0.1"></polygon><polygon points="363.45 273.68 385.6 260.72 363.45 247.93 363.45 273.68" style="opacity:0.05"></polygon><polygon points="398.56 253.48 363.45 233.21 363.45 244.25 398.56 264.52 398.56 253.48" style="fill:#BA68C8"></polygon><polygon points="398.56 253.48 363.45 233.21 363.45 244.25 398.56 264.52 398.56 253.48" style="fill:#fff;opacity:0.85"></polygon><path d="M387.67,249.52c0,.51-1.52,0-3.39-1L378.33,245c-1.88-1.08-3.4-2.37-3.4-2.88v-.92l12.74,7.36Z" style="fill:#455a64"></path></g><g id="freepik--shadow--inject-165" style="opacity:0.1"><path id="freepik--shadow--inject-165" d="M424.83,231.29a15.82,15.82,0,0,0,8.66-2.36c2-1.34,3.13-3,3.13-4.73s-1.11-3.39-3.13-4.73a17.09,17.09,0,0,0-17.33,0c-2,1.34-3.13,3-3.13,4.73s1.11,3.39,3.13,4.73A15.83,15.83,0,0,0,424.83,231.29Z"></path></g><g id="freepik--Lamp--inject-165"><path d="M417.08,223.63a3.15,3.15,0,0,1,.06-.61,9.22,9.22,0,0,1,3.74-5.58h7.83a9.22,9.22,0,0,1,3.74,5.58,3.18,3.18,0,0,1,.06.62s0,.1,0,.1a3.94,3.94,0,0,1-2.25,3,12.05,12.05,0,0,1-10.91,0,3.94,3.94,0,0,1-2.25-3A1,1,0,0,1,417.08,223.63Z" style="fill:#37474f"></path><path d="M428.5,217.31c2.05,1.19,2.05,3.1,0,4.29a8.22,8.22,0,0,1-7.42,0c-2-1.19-2-3.1,0-4.29A8.22,8.22,0,0,1,428.5,217.31Z" style="fill:#455a64"></path><path d="M423.73,191.21h2.13v27.43h0a.48.48,0,0,1-.3.48,1.67,1.67,0,0,1-1.51,0,.48.48,0,0,1-.3-.48h0Z" style="fill:#263238"></path><path d="M409.06,187.1h0l7.41-18.89h16.66l7.41,18.89h0c1.05,3-.4,6.15-4.37,8.45-6.28,3.62-16.45,3.62-22.73,0C409.46,193.25,408,190.06,409.06,187.1Z" style="fill:#BA68C8"></path><path d="M430.82,172.73a13.32,13.32,0,0,1-12.05,0c-3.33-1.92-3.33-5,0-7a13.32,13.32,0,0,1,12.05,0C434.15,167.69,434.15,170.81,430.82,172.73Z" style="fill:#BA68C8"></path><path d="M430.82,172.73a13.32,13.32,0,0,1-12.05,0c-3.33-1.92-3.33-5,0-7a13.32,13.32,0,0,1,12.05,0C434.15,167.69,434.15,170.81,430.82,172.73Z" style="fill:#fff;opacity:0.30000000000000004"></path><path d="M424.79,173.19a11.32,11.32,0,0,0,5.54-1.31c1.29-.75,2-1.68,2-2.63a3.32,3.32,0,0,0-2-2.62,12.35,12.35,0,0,0-11.07,0,3.32,3.32,0,0,0-2,2.62c0,.95.71,1.88,2,2.63A11.3,11.3,0,0,0,424.79,173.19Z" style="fill:#BA68C8"></path><path d="M424.79,173.19a11.32,11.32,0,0,0,5.54-1.31c1.29-.75,2-1.68,2-2.63a3.32,3.32,0,0,0-2-2.62,12.35,12.35,0,0,0-11.07,0,3.32,3.32,0,0,0-2,2.62c0,.95.71,1.88,2,2.63A11.3,11.3,0,0,0,424.79,173.19Z" style="opacity:0.15"></path></g></g></g><g id="freepik--Icons--inject-165"><g id="freepik--call-icon--inject-165"><g id="freepik--Box--inject-165"><path d="M450.49,100.66,419.13,82.55a1.81,1.81,0,0,0-1.85-.17l-4,2.33a1.82,1.82,0,0,0-.77,1.69V132a5.74,5.74,0,0,0,2.6,4.5l31.36,18.11a1.83,1.83,0,0,0,1.85.17l4.05-2.34a1.82,1.82,0,0,0,.76-1.68V105.16A5.73,5.73,0,0,0,450.49,100.66Z" style="fill:#455a64"></path><path d="M453.09,105.16v45.59a1.85,1.85,0,0,1-.76,1.69l-3.93,2.26a1.91,1.91,0,0,0,.63-1.6V107.5a5.35,5.35,0,0,0-.76-2.56l4.06-2.34A5.29,5.29,0,0,1,453.09,105.16Z" style="fill:#263238"></path><path d="M415.07,136.49l31.36,18.11c1.44.82,2.6.15,2.6-1.5V107.51a5.71,5.71,0,0,0-2.6-4.5L415.07,84.9c-1.44-.83-2.6-.16-2.6,1.5V132A5.77,5.77,0,0,0,415.07,136.49Z" style="fill:#455a64"></path><path d="M452.33,102.6l-4.06,2.34a5.38,5.38,0,0,0-1.84-1.94L415.07,84.9a1.92,1.92,0,0,0-1.72-.25c.73-.42,3.5-2,3.93-2.27a1.82,1.82,0,0,1,1.85.18l31.36,18.1A5.22,5.22,0,0,1,452.33,102.6Z" style="fill:#37474f"></path></g><g id="freepik--call-icon--inject-165"><g id="freepik--g4780--inject-165"><g id="freepik--g15--inject-165"><path id="freepik--path17-6--inject-165" d="M439.34,132.2c-.69-1.25-1.43-2.45-2.16-3.65-1.44-2.4-2.77-3.29-3.85-1.39a2,2,0,0,1-3.27,0,29.61,29.61,0,0,1-5.45-11.33c-.49-2,.44-4,1.58-4.55a1.85,1.85,0,0,0,1.17-2.09c-.06-1.85-2.91-9.54-4-10.82a2,2,0,0,0-1.4-.82c-2.64-.15-5.8,3.13-4.75,7.69,3.12,13.61,5.7,20.77,14.41,32.14,3.71,4.88,8.47,2.2,9.32.29.56-2.12-.62-3.77-1.56-5.48Z" style="fill:#fafafa"></path><path id="freepik--path19-1--inject-165" d="M432.49,102.78c5.53,4.51,8.08,10,8.79,19,.06.83-.13,1.91.61,2.36s.58-.82.59-1.61c-.14-9.22-3.88-17.76-9.83-21.52-.36-.22-1.23-1.14-1.28.21,0,.92.66,1.17,1.12,1.54Z" style="fill:#fafafa"></path><path id="freepik--path21-2--inject-165" d="M432.77,106.2c-.53-.4-1.24-1.2-1.36-.13s.65,1.45,1.16,1.91c3.41,3.15,4.6,5.75,5.17,11.3.08.81-.09,1.9.75,2.18.63.22.4-.93.45-1.49,0-5-2.76-11.17-6.17-13.77Z" style="fill:#fafafa"></path><path id="freepik--path23--inject-165" d="M432.25,110.73c-.36-.19-.7-.34-.83.17a1.43,1.43,0,0,0,.63,1.56,6.77,6.77,0,0,1,2.28,5.08c0,.61.28,1.22.65,1.37s.55-.47.53-1.14c0-2.41-1.75-6.23-3.26-7Z" style="fill:#fafafa"></path></g></g></g></g><g id="freepik--Gears--inject-165"><path d="M452.06,81.28l-1.79-4a1.67,1.67,0,0,0-.89-.75,10.4,10.4,0,0,1-1.37-.56.32.32,0,0,0-.25,0,.23.23,0,0,0-.14.16l-.9,2.4a1.11,1.11,0,0,1-.75.71,1.08,1.08,0,0,1-1-.29l-3.1-2.79a2.29,2.29,0,0,1-.69-1.86l.4-3.1a1.9,1.9,0,0,0-.32-1.19c-.49-.68-1-1.4-1.41-2.15a1.2,1.2,0,0,0-.87-.52l-2.12,0a1.83,1.83,0,0,1-1.61-1.14l-1.69-4.57a1.34,1.34,0,0,1,.05-1,1.28,1.28,0,0,1,.77-.69l1.75-.61a.58.58,0,0,0,.33-.6c-.11-.74-.19-1.48-.23-2.19a2.08,2.08,0,0,0-.48-1.17L433,52.36a2.2,2.2,0,0,1-.51-1.92l.75-3.13a1,1,0,0,1,1.66-.59l2.78,2.1a.36.36,0,0,0,.5-.1,5.6,5.6,0,0,1,.66-.71,1,1,0,0,0,.29-.86L438,43.06a1.23,1.23,0,0,1,.13-1,1.27,1.27,0,0,1,.87-.56l2.22-.34a1.69,1.69,0,0,1,1.73.94l1.79,4a1.68,1.68,0,0,0,.88.75,10,10,0,0,1,1.38.56.32.32,0,0,0,.25,0,.28.28,0,0,0,.14-.16l.9-2.4a1.11,1.11,0,0,1,.75-.71,1.09,1.09,0,0,1,1,.29l3.1,2.79a2.29,2.29,0,0,1,.69,1.86l-.4,3.1a1.9,1.9,0,0,0,.32,1.19c.49.68,1,1.4,1.41,2.15a1.18,1.18,0,0,0,.87.52l2.12,0a1.83,1.83,0,0,1,1.61,1.14l1.69,4.57a1.34,1.34,0,0,1,0,1,1.31,1.31,0,0,1-.77.69l-1.75.61a.59.59,0,0,0-.34.6,19,19,0,0,1,.23,2.19,2.23,2.23,0,0,0,.48,1.17L461.93,71a2.27,2.27,0,0,1,.51,1.92L461.69,76a1,1,0,0,1-.66.78,1.06,1.06,0,0,1-1-.19l-2.77-2.1a.37.37,0,0,0-.5.1,6.37,6.37,0,0,1-.66.71,1,1,0,0,0-.29.86L457,80.29a1.23,1.23,0,0,1-.13,1,1.27,1.27,0,0,1-.87.56l-2.22.34-.22,0A1.71,1.71,0,0,1,452.06,81.28Zm5.78-7.53,2.78,2.1.08.05s0,0,0-.1l.76-3.12a1.3,1.3,0,0,0-.27-1l-2.73-2.86a3.13,3.13,0,0,1-.75-1.8,17.27,17.27,0,0,0-.22-2.09,1.54,1.54,0,0,1,1-1.67l1.75-.62a.32.32,0,0,0,.2-.18.34.34,0,0,0,0-.28l-1.68-4.57a.91.91,0,0,0-.71-.5l-2.11,0a2.17,2.17,0,0,1-1.71-1A23.1,23.1,0,0,0,452.9,54a3,3,0,0,1-.5-1.9l.4-3.1a1.33,1.33,0,0,0-.37-1l-3.1-2.79c-.06-.05-.09-.06-.1-.06a.34.34,0,0,0-.06.1l-.9,2.4a1.2,1.2,0,0,1-.69.72,1.25,1.25,0,0,1-1.05,0,11.74,11.74,0,0,0-1.25-.51,2.59,2.59,0,0,1-1.48-1.28L442,42.47a.71.71,0,0,0-.68-.37l-2.22.34a.31.31,0,0,0-.19.12.27.27,0,0,0,0,.22l1.22,4.09a1.93,1.93,0,0,1-.57,1.86,6.32,6.32,0,0,0-.56.6,1.33,1.33,0,0,1-1.87.27l-2.77-2.1-.08,0a.29.29,0,0,0,0,.1l-.76,3.12h0a1.3,1.3,0,0,0,.27,1l2.73,2.86a3.13,3.13,0,0,1,.75,1.8,17.06,17.06,0,0,0,.22,2.09,1.55,1.55,0,0,1-1,1.67l-1.75.62a.32.32,0,0,0-.2.18.34.34,0,0,0,0,.28l1.68,4.56a.88.88,0,0,0,.71.51l2.11,0a2.19,2.19,0,0,1,1.71,1,23.1,23.1,0,0,0,1.36,2.07,3,3,0,0,1,.5,1.9l-.4,3.1a1.33,1.33,0,0,0,.37,1l3.1,2.79a.22.22,0,0,0,.09.06s0,0,.06-.1l.91-2.4a1.17,1.17,0,0,1,.69-.72,1.22,1.22,0,0,1,1,.05,12.8,12.8,0,0,0,1.26.51,2.62,2.62,0,0,1,1.48,1.28l1.79,4a.71.71,0,0,0,.68.37l2.22-.34a.25.25,0,0,0,.21-.34l-1.22-4.09a1.93,1.93,0,0,1,.57-1.86A5.4,5.4,0,0,0,456,74a1.4,1.4,0,0,1,1.08-.53A1.27,1.27,0,0,1,457.84,73.75Zm-12.29-5h0c-3.48-3.12-5.56-8.79-4.64-12.63a4.32,4.32,0,0,1,2.79-3.36c1.7-.53,3.78.17,5.72,1.92,3.48,3.12,5.56,8.79,4.64,12.63a4.32,4.32,0,0,1-2.79,3.36,4.07,4.07,0,0,1-1.16.17A7.07,7.07,0,0,1,445.55,68.71Zm-1.56-15a3.33,3.33,0,0,0-2.12,2.65C441,59.83,443,65.07,446.2,68c1.68,1.51,3.42,2.13,4.78,1.71A3.33,3.33,0,0,0,453.1,67c.85-3.52-1.1-8.76-4.34-11.67a6.14,6.14,0,0,0-3.89-1.84A2.84,2.84,0,0,0,444,53.66Z" style="fill:#BA68C8"></path><path d="M423.8,71l-1.29-2.91a1.09,1.09,0,0,0-.58-.49,9.17,9.17,0,0,1-1-.41s-.08,0-.16,0L420.12,69a.81.81,0,0,1-1.37.33l-2.23-2a1.75,1.75,0,0,1-.52-1.4l.29-2.23a1.41,1.41,0,0,0-.22-.79c-.36-.5-.7-1-1-1.55a.82.82,0,0,0-.55-.34L413,61a1.41,1.41,0,0,1-1.23-.88l-1.21-3.28a1,1,0,0,1,0-.8,1,1,0,0,1,.6-.54l1.26-.44a.31.31,0,0,0,.18-.34,14.58,14.58,0,0,1-.16-1.58,1.4,1.4,0,0,0-.32-.78l-2-2a1.72,1.72,0,0,1-.38-1.46l.54-2.24a.8.8,0,0,1,1.32-.47l2,1.5a.17.17,0,0,0,.24-.06,4.78,4.78,0,0,1,.49-.51.6.6,0,0,0,.18-.53l-.87-2.94a1,1,0,0,1,.11-.81,1,1,0,0,1,.68-.44l1.59-.24a1.28,1.28,0,0,1,1.33.72l1.29,2.91a1.09,1.09,0,0,0,.58.49,9.06,9.06,0,0,1,1,.4s.08,0,.16-.05l.65-1.72a.87.87,0,0,1,.59-.56.88.88,0,0,1,.79.22l2.22,2a1.71,1.71,0,0,1,.52,1.4l-.28,2.23a1.33,1.33,0,0,0,.21.79c.36.49.7,1,1,1.55a.82.82,0,0,0,.55.34l1.52,0a1.41,1.41,0,0,1,1.23.88L430.65,57a1,1,0,0,1-.63,1.35l-1.26.44a.32.32,0,0,0-.19.33,12.64,12.64,0,0,1,.17,1.59,1.51,1.51,0,0,0,.32.78l2,2a1.74,1.74,0,0,1,.39,1.45l-.54,2.25a.86.86,0,0,1-.53.62.85.85,0,0,1-.8-.15l-2-1.5c-.09-.08-.2,0-.24.06a4.74,4.74,0,0,1-.49.51.6.6,0,0,0-.18.53l.87,2.94a1,1,0,0,1-.1.81,1,1,0,0,1-.69.43l-1.59.25H425A1.32,1.32,0,0,1,423.8,71Zm4.28-5.51L430,67.05l.54-2.25a.81.81,0,0,0-.18-.64l-1.95-2.06a2.28,2.28,0,0,1-.56-1.34,13.27,13.27,0,0,0-.16-1.49,1.21,1.21,0,0,1,.76-1.29l1.26-.44a.18.18,0,0,0,.1-.09.19.19,0,0,0,0-.13L428.62,54a.56.56,0,0,0-.43-.31l-1.51,0a1.66,1.66,0,0,1-1.29-.76,17.24,17.24,0,0,0-1-1.48,2.19,2.19,0,0,1-.37-1.42l.29-2.23a.94.94,0,0,0-.24-.64l-2.2-2-.65,1.72a.94.94,0,0,1-.55.57,1,1,0,0,1-.81,0,9.22,9.22,0,0,0-.89-.36,1.94,1.94,0,0,1-1.11-1l-1.29-2.9a.42.42,0,0,0-.4-.22l-1.59.25-.06-.43,0,.56.87,2.94a1.47,1.47,0,0,1-.43,1.42,5.33,5.33,0,0,0-.4.42,1,1,0,0,1-1.45.21l-1.94-1.53-.54,2.25h0a.83.83,0,0,0,.18.64l1.95,2a2.37,2.37,0,0,1,.56,1.35c0,.48.08,1,.16,1.49a1.2,1.2,0,0,1-.76,1.29l-1.26.44a.18.18,0,0,0-.1.09.19.19,0,0,0,0,.13l1.21,3.28a.53.53,0,0,0,.43.3l1.51,0a1.7,1.7,0,0,1,1.3.76,16.39,16.39,0,0,0,1,1.48,2.19,2.19,0,0,1,.37,1.42L416.86,66a.94.94,0,0,0,.24.64l2.21,2L420,67a1,1,0,0,1,.55-.57,1,1,0,0,1,.82,0,8.15,8.15,0,0,0,.88.36,1.94,1.94,0,0,1,1.11,1l1.29,2.9a.43.43,0,0,0,.4.22l1.59-.25.08-.13-.87-2.94a1.46,1.46,0,0,1,.43-1.42,5.33,5.33,0,0,0,.4-.42,1,1,0,0,1,.83-.42A1,1,0,0,1,428.08,65.52ZM419.15,62h0c-2.52-2.26-4-6.36-3.35-9.14a3.16,3.16,0,0,1,2.06-2.47c1.24-.39,2.77.12,4.18,1.39,2.52,2.26,4,6.36,3.35,9.14a3.17,3.17,0,0,1-2.05,2.47,2.8,2.8,0,0,1-.86.13A5.18,5.18,0,0,1,419.15,62Zm-1-10.78a2.31,2.31,0,0,0-1.46,1.84c-.6,2.5.78,6.22,3.08,8.29h0c1.18,1.06,2.4,1.5,3.35,1.21a2.33,2.33,0,0,0,1.46-1.84c.6-2.5-.78-6.22-3.08-8.29a4.34,4.34,0,0,0-2.74-1.3A2.1,2.1,0,0,0,418.11,51.26Z" style="fill:#BA68C8"></path></g><g id="freepik--Wrench--inject-165"><path d="M396,122.58a4.33,4.33,0,0,1-2.2-.66l-.27-.17a.78.78,0,0,1-.23-1l2.5-5-1.28-4.22-2.29-1.35L390,114.72a.46.46,0,0,1-.47.26c-.45,0-.79-.76-.9-1.19a15.83,15.83,0,0,1-.53-4.08c0-3.37,1.25-5.69,3.24-6.18v-25a17.16,17.16,0,0,1-3.24-9.87c0-2.85.91-5,2.45-5.86a3.66,3.66,0,0,1,3.75.25l.27.17a.81.81,0,0,1,.23,1l-2.5,5,1.28,4.22,2.29,1.35,2.27-4.56a.46.46,0,0,1,.47-.26c.45,0,.79.76.9,1.2a16.25,16.25,0,0,1,.53,4.07c0,3.37-1.25,5.69-3.24,6.18v25a17.23,17.23,0,0,1,3.24,9.87c0,2.85-.91,5-2.45,5.86A3.12,3.12,0,0,1,396,122.58ZM392,109.11l3.23,1.91,1.46,4.78L394,121.08a.55.55,0,0,0,.21.19,2.9,2.9,0,0,0,3,.25c1.28-.73,2-2.68,2.07-5.22a16.42,16.42,0,0,0-3.16-9.5l-.08-.11V80.83l.32,0c1.76-.25,2.9-2.41,2.92-5.51a15.74,15.74,0,0,0-.51-3.88,1.75,1.75,0,0,0-.16-.41l-2.44,4.9L392.94,74l-1.45-4.78,2.63-5.29a.5.5,0,0,0-.2-.18,2.9,2.9,0,0,0-3-.25c-1.28.73-2.06,2.68-2.07,5.22A16.28,16.28,0,0,0,392,78.2l.08.1v25.87l-.33,0c-1.75.25-2.9,2.41-2.91,5.51h0a15.2,15.2,0,0,0,.5,3.88,1.75,1.75,0,0,0,.16.41Z" style="fill:#BA68C8"></path></g></g><g id="freepik--speech-bubbles--inject-165"><g id="freepik--speech-bubble--inject-165"><g id="freepik--speech-bubble--inject-165"><path d="M254.05,48.65l36.56,21.1a1.64,1.64,0,0,1,.74,1.28v25.6a1.63,1.63,0,0,1-.74,1.27L288,99.41a1.62,1.62,0,0,1-1.47,0L249.94,78.3a1.66,1.66,0,0,1-.73-1.28V51.38a1.59,1.59,0,0,1,.74-1.26l2.63-1.48A1.62,1.62,0,0,1,254.05,48.65Z" style="fill:#BA68C8"></path><path d="M287.24,99V73.34a1.64,1.64,0,0,0-.74-1.28L249.94,51c-.4-.24-.73-.05-.73.42V77a1.66,1.66,0,0,0,.73,1.28L286.5,99.4C286.91,99.64,287.24,99.45,287.24,99Z" style="fill:#BA68C8"></path><path d="M287.24,99V73.34a1.64,1.64,0,0,0-.74-1.28L249.94,51c-.4-.24-.73-.05-.73.42V77a1.66,1.66,0,0,0,.73,1.28L286.5,99.4C286.91,99.64,287.24,99.45,287.24,99Z" style="fill:#BA68C8"></path><path d="M286.5,99.4a1.67,1.67,0,0,0,1.48,0l2.63-1.51a1.63,1.63,0,0,0,.74-1.27V71a1.41,1.41,0,0,0-.24-.75L287,72.61a1.54,1.54,0,0,1,.22.73V99C287.24,99.41,286.93,99.65,286.5,99.4Z" style="opacity:0.2"></path><path d="M249.22,51.25c.06-.37.36-.5.72-.29l36.56,21.1a1.53,1.53,0,0,1,.52.55l4.1-2.33a1.45,1.45,0,0,0-.51-.53l-36.56-21.1a1.62,1.62,0,0,0-1.47,0L250,50.11A1.63,1.63,0,0,0,249.22,51.25Z" style="fill:#fff;opacity:0.4"></path><path d="M293.36,89.68l4-2.28a.68.68,0,0,0,.14-1.05l-6.25-7.8-4,2.3,6.24,7.8A.69.69,0,0,1,293.36,89.68Z" style="fill:#BA68C8"></path><path d="M293.36,89.68l4-2.28a.68.68,0,0,0,.14-1.05l-6.25-7.8-4,2.3,6.24,7.8A.69.69,0,0,1,293.36,89.68Z" style="fill:#fff;opacity:0.4"></path><path d="M287.24,80.85l6.25,7.8a.66.66,0,0,1-.42,1.13l-5.83.63Z" style="fill:#BA68C8"></path></g><path d="M278.45,77c0,1-.72,1.34-1.6.82L256.54,66.12a3.53,3.53,0,0,1-1.6-2.72c0-1,.72-1.34,1.6-.82L276.85,74.3A3.53,3.53,0,0,1,278.45,77Z" style="fill:#fafafa"></path><path d="M283,87.5c0,1-.72,1.34-1.6.82L256.54,74a3.53,3.53,0,0,1-1.6-2.72c0-1,.72-1.34,1.6-.82l24.84,14.33A3.53,3.53,0,0,1,283,87.5Z" style="fill:#fafafa"></path></g><g id="freepik--speech-bubble--inject-165"><g id="freepik--speech-bubble--inject-165"><path d="M127,127.17,123,119.79l3.16-9.12v-5.59l-9.67,5.59v5.58l4.15,7.2a.59.59,0,0,0,.29.25h0Z" style="fill:#BA68C8"></path><path d="M127,127.17,123,119.79l3.16-9.12v-5.59l-9.67,5.59v5.58l4.15,7.2a.59.59,0,0,0,.29.25h0Z" style="opacity:0.2"></path><path d="M152,71.26a6.43,6.43,0,0,0-2.9-5l-2.36-1.36a6.38,6.38,0,0,0-5.8,0L94.8,91.51a6.4,6.4,0,0,0-2.9,5v28.28a6.4,6.4,0,0,0,2.9,5l2.36,1.37a6.44,6.44,0,0,0,5.8,0l19.64-11.43,4.15,7.18a.62.62,0,0,0,1.12-.1l4.38-12.66,16.83-9.62a6.43,6.43,0,0,0,2.9-5Z" style="fill:#BA68C8"></path><path d="M91.9,124.81a6.4,6.4,0,0,0,2.9,5l2.36,1.37a6.51,6.51,0,0,0,5.3.23c-1.36.52-2.4-.25-2.4-1.91V101.24a5.83,5.83,0,0,1,.85-2.85l-8.16-4.72a5.9,5.9,0,0,0-.85,2.86Z" style="opacity:0.2"></path><path d="M151.89,70.44c-.34-1.23-1.46-1.62-2.8-.85L103,96.22a5.81,5.81,0,0,0-2,2.17l-8.15-4.71a5.76,5.76,0,0,1,2-2.16l46.12-26.64a6.44,6.44,0,0,1,5.8,0l2.37,1.37A6.42,6.42,0,0,1,151.89,70.44Z" style="fill:#fff;opacity:0.4"></path></g><path d="M111.84,104.12a8.53,8.53,0,0,0-3.87,6.7c0,2.47,1.73,3.47,3.87,2.23a8.53,8.53,0,0,0,3.87-6.7C115.71,103.88,114,102.88,111.84,104.12Z" style="fill:#fafafa"></path><path d="M126.1,95.87a8.56,8.56,0,0,0-3.87,6.7c0,2.46,1.74,3.46,3.87,2.23A8.53,8.53,0,0,0,130,98.1C130,95.63,128.24,94.63,126.1,95.87Z" style="fill:#fafafa"></path><path d="M140.37,87.61a8.56,8.56,0,0,0-3.87,6.7c0,2.47,1.73,3.47,3.87,2.24a8.56,8.56,0,0,0,3.87-6.7C144.24,87.38,142.51,86.38,140.37,87.61Z" style="fill:#fafafa"></path></g></g></svg>