<svg xmlns="http://www.w3.org/2000/svg" viewBox="0 0 500 500"><g id="freepik--character-2--inject-165"><g id="freepik--Mobile--inject-165"><g id="freepik--mobile--inject-165"><path d="M347.63,394.21,246.83,452.4a10.82,10.82,0,0,1-10.51.19L33.39,335.42c-3.2-1.84-5.79-6-5.79-9.22s2.59-7.37,5.78-9.22l100.43-58a12.82,12.82,0,0,1,11.57,0L347.63,375.77c3.2,1.85,5.79,6,5.79,9.22S350.83,392.37,347.63,394.21Z" style="fill:#BA68C8"></path><path d="M133.81,259,33.38,317c-3.19,1.85-5.79,6-5.78,9.22s2.59,7.38,5.78,9.22L236.32,452.59a11.07,11.07,0,0,0,5,1.25V314.41l-96-55.41A12.82,12.82,0,0,0,133.81,259Z" style="opacity:0.5"></path><path d="M246.83,452.4l100.8-58.19c3.2-1.84,5.79-6,5.79-9.22s-2.59-7.37-5.79-9.22L241.35,314.41V453.84A10.66,10.66,0,0,0,246.83,452.4Z" style="opacity:0.4"></path><path d="M244.44,442a11.33,11.33,0,0,1-10.21,0l-200.87-116c-4.32-2.5-4.32-6.58,0-9.07L133.8,259a12.84,12.84,0,0,1,11.58,0L347.62,375.77c3.19,1.84,3.19,4.85,0,6.68Z" style="fill:#BA68C8"></path><path d="M244.44,442a11.33,11.33,0,0,1-10.21,0l-200.87-116c-4.32-2.5-4.32-6.58,0-9.07L133.8,259a12.84,12.84,0,0,1,11.58,0L347.62,375.77c3.19,1.84,3.19,4.85,0,6.68Z" style="opacity:0.30000000000000004"></path><path d="M234.68,430.35a12.12,12.12,0,0,1-11,0L50.84,330.56c-3-1.75-3-4.6,0-6.35l94.48-54.55a12.26,12.26,0,0,1,11,0l172.84,99.79c3,1.75,3,4.61,0,6.36Z" style="fill:#37474f"></path><path d="M150.49,268.37a11.2,11.2,0,0,0-5.17,1.29L50.84,324.21c-3,1.75-3,4.6,0,6.35l18.73,10.81,80.92-51.67Z" style="fill:#263238"></path><path d="M156.39,273.79a12.24,12.24,0,0,0-11,0L50.9,328.34a5.71,5.71,0,0,0-1.43,1.15,5.48,5.48,0,0,0,1.37,1.07l172.84,99.79a12.12,12.12,0,0,0,11,0l94.49-54.54a5.81,5.81,0,0,0,1.42-1.14,5.51,5.51,0,0,0-1.36-1.09Z" style="fill:#BA68C8"></path><path d="M156.39,273.79a12.24,12.24,0,0,0-11,0L50.9,328.34a5.71,5.71,0,0,0-1.43,1.15,5.48,5.48,0,0,0,1.37,1.07l172.84,99.79a12.12,12.12,0,0,0,11,0l94.49-54.54a5.81,5.81,0,0,0,1.42-1.14,5.51,5.51,0,0,0-1.36-1.09Z" style="fill:#fff;opacity:0.75"></path><path d="M85.37,298.7,102.12,289c1-.58,1-1.48.11-2a3.86,3.86,0,0,0-3.5.07L82,296.74c-1,.57-1,1.48-.11,2A3.89,3.89,0,0,0,85.37,298.7Z" style="fill:#37474f"></path><path d="M114.13,282.12a1,1,0,0,0,0-2,3.75,3.75,0,0,0-3.39,0,1,1,0,0,0,0,2A3.75,3.75,0,0,0,114.13,282.12Z" style="fill:#37474f"></path><path d="M120.92,278.19a1,1,0,0,0,0-1.95,3.71,3.71,0,0,0-3.4,0,1,1,0,0,0,0,1.95A3.71,3.71,0,0,0,120.92,278.19Z" style="fill:#37474f"></path><path d="M66.61,309.55a1,1,0,0,0,0-2,3.75,3.75,0,0,0-3.39,0,1,1,0,0,0,0,2A3.75,3.75,0,0,0,66.61,309.55Z" style="fill:#37474f"></path><path d="M73.4,305.63c.94-.55.94-1.42,0-2a3.75,3.75,0,0,0-3.39,0c-.94.54-.94,1.41,0,2A3.75,3.75,0,0,0,73.4,305.63Z" style="fill:#37474f"></path><path d="M97,365.54a3.86,3.86,0,0,1,1.81,3,1.14,1.14,0,0,1-.5,1.06c-.22.12-1,.61-1.27.73a1.29,1.29,0,0,1-1.3-.15L72.25,356.6a3.88,3.88,0,0,1-1.81-3,1.15,1.15,0,0,1,.45-1l1.31-.76a1.34,1.34,0,0,1,1.31.15Z" style="fill:#BA68C8"></path><path d="M97,365.54a3.86,3.86,0,0,1,1.81,3,1.14,1.14,0,0,1-.5,1.06c-.22.12-1,.61-1.27.73a1.29,1.29,0,0,1-1.3-.15L72.25,356.6a3.88,3.88,0,0,1-1.81-3,1.15,1.15,0,0,1,.45-1l1.31-.76a1.34,1.34,0,0,1,1.31.15Z" style="opacity:0.4"></path><path d="M95.78,366.27,72.25,352.68c-1-.58-1.81-.17-1.81.91a3.88,3.88,0,0,0,1.81,3l23.53,13.58c1,.58,1.81.17,1.81-.91A3.86,3.86,0,0,0,95.78,366.27Z" style="fill:#BA68C8"></path><path d="M95.78,366.27,72.25,352.68c-1-.58-1.81-.17-1.81.91a3.88,3.88,0,0,0,1.81,3l23.53,13.58c1,.58,1.81.17,1.81-.91A3.86,3.86,0,0,0,95.78,366.27Z" style="opacity:0.30000000000000004"></path><path d="M65.54,347.35a3.88,3.88,0,0,1,1.81,3,1.12,1.12,0,0,1-.5,1.06l-1.27.74a1.34,1.34,0,0,1-1.3-.15l-11.1-6.41a3.88,3.88,0,0,1-1.81-3,1.16,1.16,0,0,1,.46-1c.23-.14,1.08-.64,1.31-.76a1.33,1.33,0,0,1,1.31.14Z" style="fill:#BA68C8"></path><path d="M65.54,347.35a3.88,3.88,0,0,1,1.81,3,1.12,1.12,0,0,1-.5,1.06l-1.27.74a1.34,1.34,0,0,1-1.3-.15l-11.1-6.41a3.88,3.88,0,0,1-1.81-3,1.16,1.16,0,0,1,.46-1c.23-.14,1.08-.64,1.31-.76a1.33,1.33,0,0,1,1.31.14Z" style="opacity:0.4"></path><path d="M64.28,348.08l-11.1-6.41c-1-.57-1.81-.16-1.81.92a3.88,3.88,0,0,0,1.81,3L64.28,352c1,.57,1.81.16,1.81-.92A3.86,3.86,0,0,0,64.28,348.08Z" style="fill:#BA68C8"></path><path d="M64.28,348.08l-11.1-6.41c-1-.57-1.81-.16-1.81.92a3.88,3.88,0,0,0,1.81,3L64.28,352c1,.57,1.81.16,1.81-.92A3.86,3.86,0,0,0,64.28,348.08Z" style="opacity:0.30000000000000004"></path></g></g><g id="freepik--Keyboard--inject-165"><path id="freepik--shadow--inject-165" d="M154.4,375.62l26.15,15.16a3.12,3.12,0,0,0,2.85,0l75.06-43.27a.87.87,0,0,0,0-1.65L232.31,330.7a3.15,3.15,0,0,0-2.85,0L154.4,374A.87.87,0,0,0,154.4,375.62Z" style="opacity:0.15"></path><g id="freepik--keyboard--inject-165"><path d="M255.4,343.63a1,1,0,0,0-.58-.81l-23.39-13.5a3.05,3.05,0,0,0-2.79,0L157.25,370.6a1,1,0,0,0-.58.81v2.45a1,1,0,0,0,.58.81l23.39,13.5a3.11,3.11,0,0,0,2.79,0L254.82,347a1,1,0,0,0,.58-.8Z" style="fill:#263238"></path><path d="M180.64,385.65l-23.39-13.44a.85.85,0,0,1,0-1.61l71.39-41.28a3.05,3.05,0,0,1,2.79,0l23.39,13.5a.85.85,0,0,1,0,1.61l-71.39,41.22A3.05,3.05,0,0,1,180.64,385.65Z" style="fill:#37474f"></path><path d="M181.94,386v2.51a2.82,2.82,0,0,1-1.31-.32l-23.37-13.5a1,1,0,0,1-.58-.81V371.4a1,1,0,0,0,.58.81l23.37,13.45A3,3,0,0,0,181.94,386Z" style="fill:#263238"></path><path d="M229.86,331.45h0l2.32,1.33-3.14,1.82-2.4-1.35,3.14-1.81Zm3.63,2.09h0l2.31,1.34-2.46,1.42L231,335l2.47-1.43Zm-8,.44h.05l2.32,1.34-2.47,1.42L223,335.41l2.46-1.43Zm11.64,1.65h0l2.32,1.34-4,2.3-2.39-1.34,4-2.3Zm-7.34.05h0l2.32,1.34-2,1.13-2.39-1.34,2-1.13Zm-8,.45h.05l2.32,1.33-2.47,1.43-2.39-1.35,2.46-1.42Zm4.8,1.41h.06l2.31,1.33L227,340l-2.39-1.34,2-1.13Zm14.18.19h0l2.31,1.33L240,340.89l-2.39-1.35,3.14-1.81Zm-22.69.54h0l2.31,1.34-17.82,10.29-2.4-1.35L218,338.27Zm13.83.38h.05l2.32,1.34-2,1.13-2.4-1.34,2-1.13Zm-8.52.74h0l2.32,1.33-2,1.13-2.4-1.34,2-1.13Zm21,.43h0l2.32,1.34-2,1.13-2.4-1.35,2-1.13Zm-8,.44h.05l2.31,1.34-2,1.13-2.39-1.35,2-1.13Zm-7.68.25h.05l2.32,1.33-2,1.13-2.4-1.34,2-1.13Zm-8.52.73h0l2.32,1.34-2,1.13-2.4-1.35,2-1.13Zm21,.43h.06l2.31,1.34-2,1.13-2.39-1.35,2-1.13Zm-8,.44h.05l2.32,1.34-2,1.13-2.4-1.35,2-1.13Zm-7.68.25h.06l2.31,1.33-2,1.13-2.39-1.34,2-1.13Zm23.3,0h.05l2.32,1.33-2.47,1.43-2.39-1.35,2.46-1.42Zm-31.82.73H217l2.31,1.34-2,1.13L215,344.22l1.95-1.13Zm21,.43H238l2.31,1.34-2,1.13L236,344.65l2-1.13Zm-8,.44h0l2.32,1.34-2,1.13L228,345.1l2-1.13Zm-7.67.25h.05l2.31,1.34-2,1.13-2.39-1.35,2-1.13Zm-8.52.73h0l2.31,1.34-2,1.13-2.39-1.35,2-1.13Zm29.91.37h0l2.32,1.33-2,1.14-2.4-1.35,2-1.13Zm-8.91.06h0l2.32,1.34-2,1.13-2.4-1.34,2-1.13Zm-8,.44h.06l2.31,1.34-2,1.13L224.74,347l2-1.13Zm-7.67.25h0l2.32,1.34-2,1.13-2.4-1.35,2-1.13Zm-8.52.73h.05l2.32,1.34-2,1.13-2.4-1.34,2-1.13Zm29.91.37h.06l2.31,1.34-2,1.13-2.39-1.35,1.95-1.13Zm-8.91.06h.05l2.32,1.34-2,1.13-2.4-1.34,2-1.13Zm-8,.45h0l2.32,1.33-2,1.13-2.4-1.34,2-1.13Zm-7.68.24h0l2.32,1.34-2,1.13L213.86,349l1.95-1.13Zm-8.52.74s.05,0,.05,0l2.32,1.33-2,1.13-2.39-1.34,1.95-1.13Zm29.92.36h0l2.31,1.34-2,1.13-2.39-1.35,2-1.13Zm-8.92.07h.06l2.31,1.33-2,1.13-2.39-1.34,2-1.13Zm-29.35.2H199l2.32,1.34-2.47,1.42-2.39-1.34,2.46-1.43Zm21.34.24h.05l2.32,1.33-2,1.14-2.4-1.35,2-1.13Zm-7.67.24h.05l2.31,1.34-2,1.13-2.39-1.34,2-1.13Zm-8.52.74h0l2.31,1.33-2,1.13-2.39-1.34,2-1.13Zm29.91.36h.05l2.32,1.34-2,1.13L232,352l2-1.13Zm-8.91.07h0l2.32,1.33-2,1.14-2.39-1.35,2-1.13Zm-8,.44h.06l2.31,1.34-2,1.13-2.39-1.35,2-1.13Zm-21.84.06h.05l2.32,1.33-2.47,1.43-2.39-1.35,2.46-1.42Zm14.17.18s0,0,0,0L211.8,353l-2,1.13-2.4-1.34,2-1.13Zm-8.52.74H201l2.32,1.34-2,1.13-2.4-1.35,2-1.13Zm21,.43H222l2.32,1.34-2,1.13-2.4-1.35,2-1.13Zm-8,.44h0l2.32,1.34-2,1.13-2.39-1.35,2-1.13Zm-7.68.25h.05l2.32,1.33-2,1.13-2.4-1.34,2-1.13Zm23.21,0h0l2.31,1.34-2,1.13-2.39-1.35,2-1.13Zm-37.88.05h0l2.31,1.34-2.46,1.42-2.4-1.35,2.47-1.42Zm6.15.63h.05l2.32,1.34-2,1.13-2.39-1.35,1.95-1.13Zm21,.43h.06l2.31,1.34-2,1.13-2.39-1.35,1.95-1.13Zm-8,.44h.05l2.32,1.34-2,1.13-2.4-1.35,2-1.13Zm-7.68.25h.06l2.31,1.34-2,1.13L201,356.45l2-1.13Zm23.21.05h.05l2.32,1.34-2,1.13-2.4-1.35,2-1.13Zm-38.39.34h0l2.32,1.34-3.14,1.81-2.4-1.34,3.14-1.81Zm6.66.34h.06l2.31,1.34L190.68,361l-2.39-1.35,6.18-3.57Zm21,.43h.05l2.31,1.34-2,1.13-2.39-1.35,2-1.12Zm-8,.44h.06l2.31,1.34-2,1.13-2.39-1.34,1.95-1.13Zm-7.67.25h.05l2.32,1.34-2,1.13-2.4-1.35,2-1.13Zm23.2.05h.05l2.32,1.34-2,1.13L221,358.36l1.95-1.13Zm-10.72,1.11h.05l2.32,1.34-2,1.13-2.4-1.34,2-1.13Zm-29.52.31h0l2.32,1.33-2,1.13-2.4-1.34,2-1.13Zm21.51.14h.05l2.31,1.33-2,1.13-2.39-1.34,2-1.13Zm-7.68.24h.05l2.32,1.34-1.79,1a.38.38,0,0,0-.2.33.38.38,0,0,0,.21.34l3,1.75-2.3,1.33-6-3.44,4.66-2.69Zm23.21.05h.05l2.31,1.34-2,1.13-2.39-1.34,2-1.13Zm-10.73,1.12h0l2.32,1.33-2,1.13-2.39-1.34,2-1.13Zm-29.52.3h.05l2.32,1.33L180,363l-2.39-1.35,1.95-1.13Zm21.51.14h.05l2.32,1.33-2,1.13-2.4-1.34,2-1.13Zm14.13,1.1h.06l2.31,1.34-2,1.13-2.39-1.35,1.95-1.13Zm-9.32.31h.05l2.31,1.33-2,1.14-2.39-1.35,2-1.13Zm-29.53.3h.06l2.31,1.34-2,1.13-2.39-1.35,2-1.13Zm6.84.24h.05l2.31,1.34-2,1.13-2.39-1.35,2-1.13Zm28.81,1h.05l2.31,1.34-2,1.13L210,364.72l2-1.13Zm-9.33.31h.05l2.32,1.33-3.48,2-2.4-1.34,3.48-2Zm-30.2.69h.05l2.32,1.34-5.17,3-2.39-1.35,5.16-3Zm21.17.33h.06l2.31,1.34-2,1.13-2.39-1.34,2-1.13Zm15.15.53h.05l2.32,1.34-2,1.13-2.4-1.34,2-1.13Zm-32.69,1.23h.05l2.31,1.34-2,1.13-2.39-1.34,2-1.13Zm14.34.1h.05l2.31,1.33-2,1.13-2.39-1.34,2-1.13Zm6.83.24h0l2.32,1.33-2,1.14-2.4-1.35,2-1.13Zm8.31.28h0l2.32,1.33-2,1.13-2.39-1.34,2-1.13Zm-39.52,1h.05l2.32,1.34-2,1.13-2.4-1.34,2-1.13Zm6.83.25s.05,0,.05,0l2.32,1.33-2,1.13-2.4-1.34,2-1.13Zm14.34.09h.05L189.6,370l-2,1.14-2.4-1.35,2-1.13Zm-7.51.15h.05l2.32,1.33-2,1.13-2.39-1.34,1.95-1.13Zm14.34.09h.05l2.32,1.34-2,1.13-2.4-1.35,2-1.13Zm7.61.69h.05l2.31,1.33-2,1.14-2.39-1.35,2-1.13Zm-38.82.59h.05l5.94,3.42-2,1.14-6-3.44,2-1.13Zm6.83.24h.06l2.31,1.33-2,1.14-2.39-1.35,2-1.13Zm6.83.24h.06l2.31,1.33-2,1.14-2.39-1.35,2-1.13Zm14.34.09h.06l2.31,1.34-2,1.13-2.39-1.35,1.95-1.13Zm-7.5.15h.05l2.31,1.34-2,1.13L181.36,372l2-1.13Zm15.11.54h0l2.32,1.34-2,1.13-2.4-1.35,2-1.13Zm-25.15,1.07h.05l2.32,1.34-2,1.13-2.4-1.35,2-1.13Zm6.83.24h.05l2.32,1.34-2,1.13-2.4-1.35,2-1.13ZM187,373H187l2.32,1.34-2,1.13-2.4-1.35,2-1.13Zm8.28.3h.05l2.32,1.34-2,1.13-2.39-1.35,1.95-1.13Zm-25.15,1.07h.05l5.94,3.43-2,1.13-6-3.44,2-1.13Zm6.83.24h0l2.32,1.34-2,1.13L175,375.69l2-1.12Zm6.83.24h.05l2.32,1.34-2,1.13-2.39-1.34,2-1.13ZM192.3,376h0l1,.57-2,1.13-1.08-.58,2-1.13Zm-11.74.62h.05l2.31,1.34-2,1.13-2.39-1.34,2-1.13Zm8.53,1.23h.06l1,.57-2,1.13-1.07-.58,1.94-1.13Zm-11.74.63h.05l2.32,1.33-2,1.13-2.4-1.34,2-1.13Zm8.54,1.22h.05l1,.57-2,1.13-1.07-.58,2-1.12Zm-3.21,1.85h0l1,.57-2,1.13-1.08-.58,2-1.12Z" style="fill:#BA68C8"></path></g></g><g id="freepik--Character--inject-165"><path id="freepik--shadow--inject-165" d="M96,347.28c1.08,2.73,3.41,4.15,6.86,5.69,10.1,4.55,34.31,10,47.9,12.42,7.91,1.41,16,4,24.08,4.35,7.23.29,14.73-1,20.73-5.08a4.5,4.5,0,0,0,1.94-2.11,3.41,3.41,0,0,0-1.69-3.75,10.19,10.19,0,0,0-4.27-1.13,174.21,174.21,0,0,1-46.81-12.41c6.71-.71,13.53-1.44,19.77-4s12-7.23,14.16-13.61c.44-1.28.8-2.7,1.86-3.55a4.3,4.3,0,0,1,4.08-.38c4.39,1.57,6.13,6.71,7.43,11.19s3.46,9.59,8,10.62c-1.65-1-1-3.86.74-4.55s3.87.39,4.93,2,1.33,3.44,2.21,5.07,2.77,3,4.48,2.33a4.23,4.23,0,0,0,2-2.14c2.42-4.73,2-10.56-.14-15.43s-5.73-8.95-9.57-12.62c-5.35-5.11-11.37-9.7-18.3-12.3-14.5-5.45-30.81-1.48-45.18,4.32a187.77,187.77,0,0,0-31.09,16.05,52.11,52.11,0,0,0-10.24,8c-2.19,2.34-4.49,5.66-4.26,9A6.82,6.82,0,0,0,96,347.28Z" style="opacity:0.1"></path><g id="freepik--character--inject-165"><g id="freepik--Arm--inject-165"><path d="M218.9,331.71c-2.12-3.28-5.92-10-7.11-11.38-3.25-3.7-9.95-9.55-9.95-9.55-6.32-5.15-25.73-22.29-25.73-22.29s-3-38-6.36-44.08c-3.88-7.08-11.26-7.37-18.9-7.83,0,0-2,8.25-2.78,15,0,0,6.87,42.62,7.69,46.58s2.83,5.7,6.92,8.33c6.25,4,28.86,16.15,28.86,16.15l1.11.77a4.44,4.44,0,0,1,1.64,2.18,12.86,12.86,0,0,1,.59,2.7c.36,3.15,0,4,.27,7.44s1,3.33,2.35,6.28c1.21,2.73,1.57,4.44,2.57,4.54s2.28-2.12,2.28-4.37-1.37-4.73-1.42-5.68.45-2.13,2.59-.87,4.14,5.09,5.73,7.74,2.44,6.15,4.05,8.06,2.21-.21,2.95-2,4.35-4.71,5.3-7.57S221,335,218.9,331.71Z" style="fill:#ffa8a7"></path><path d="M150.85,236.34c5.26,0,9.53-.58,14.16,2.24s5.88,6.68,6.93,12.68c.95,5.46,2.88,24.26,2.88,24.26s-13.36,7.37-25,2.67Z" style="fill:#37474f"></path><path d="M206.75,339.19h0l0,0Z" style="fill:#BA68C8"></path></g><path d="M161.91,210.56a29.68,29.68,0,0,1,6.34,2.94,5.59,5.59,0,0,1,1.93,7.58l-2.41-.48s1.24-2.83-.21-4.34-5.69-2.82-5.69-2.82Z" style="fill:#263238"></path><path d="M169.18,219.51c-2-.95-2.9.27-4.28,3.59s-.43,4.23,1.25,4.89,3-.45,4-3.2C171.31,221.7,171.28,220.54,169.18,219.51Z" style="fill:#BA68C8"></path><path d="M169.34,219.54c-2-.95-2.9.27-4.28,3.59s-.43,4.23,1.25,4.89,3-.45,4-3.2C171.48,221.73,171.45,220.57,169.34,219.54Z" style="opacity:0.1"></path><path id="freepik--Chest--inject-165" d="M129.15,238.76c-11,2.47-22.82,6-31.68,9.85,0,0-.71,37.91,5.43,56s4.37,38.7,4.37,38.7c30,4.85,66.39-9.09,65.49-24.21A67,67,0,0,0,167.7,310s-.75-12.15-.42-17.56c22-20.59-8.55-47-16.43-56.06C146.05,237,139,236.55,129.15,238.76Z" style="fill:#455a64"></path><path d="M127.34,183.05c-1.42,2.55-.83,5.56-.25,8.26.45,2.06,1.68,4.61,1.16,6.7a13.55,13.55,0,0,1-5,7.18,14.68,14.68,0,0,1-1.89,1.34c-.57.31-1.23.45-1.81.77a8.11,8.11,0,0,0-2.95,3,22.62,22.62,0,0,0-2.14,5.68,19.81,19.81,0,0,1-2.25,5.63,11.64,11.64,0,0,1-10.34,4.89,14,14,0,0,1-6.23-2,16.51,16.51,0,0,1-2.67-2,6.77,6.77,0,0,1-1.76-2.34,11.28,11.28,0,0,0,1.88,7.57,13.26,13.26,0,0,1-15.45-14.87c.36-2.56,1.45-5,2-7.49,1.52-6.8-4.58-10.52-5.58-16.72a9.61,9.61,0,0,1,4.9-9.8c2.09-1.1,4.84-1.65,5.71-3.84.67-1.68-.15-3.55-.12-5.36,0-3.58,3.38-6.31,6.78-7.39s7.09-1.07,10.52-2.09c3.66-1.08,7-3.31,10.72-4a13.82,13.82,0,0,1,12.2,4.16c1.41,1.5,2.18,3.25,3.43,4.8s3.16,2.35,4.08,4.17a8.41,8.41,0,0,1,.26,7.74C131.29,179.43,128.64,180.74,127.34,183.05Z" style="fill:#37474f"></path><path d="M161.17,191.13c-.42-11.9-7.33-28.88-32.9-26.71-24.92,2.12-32.25,24.35-30,36.42,3.17,16.66,15.29,17.73,18.44,28.62Z" style="fill:#455a64"></path><path d="M105.44,200.23a6,6,0,0,1,6.26-2.08,6.18,6.18,0,0,1,3.08,2c1.15,1.27,1.13,3,1.94,4.45a3.29,3.29,0,0,0,2.44,1.77c3.43.31,2.15-5.26,2.34-7.24,6.48-2.3,6.3-4.7,7.18-10.42,4.54-4.9,12.42-5.62,19.24-.93,4.16-8,8.67-7,10.62-4.53a32,32,0,0,1,2.91,9.31,61.93,61.93,0,0,1,1.09,14.69c-.84,19.11-7.14,23.7-10.28,25s-7,.36-12.77-.73V243c6,11.45,10.79,28.78,10.56,40.1-9.23-17.48-23.68-26.83-30.51-33.18a26.13,26.13,0,0,1-4.13-4.76V215s-2.52,2.69-6.52-.49C103.54,210.23,101.9,204.23,105.44,200.23Z" style="fill:#ffa8a7"></path><path d="M139.49,231.54c-5-1.3-10.35-3.19-14-6a17.28,17.28,0,0,1-5.42-7.61s.43,7.37,4.14,10.69,15.32,7.15,15.32,7.15Z" style="fill:#f28f8f"></path><path d="M140.27,204.9a2.65,2.65,0,1,1-3-2.37A2.7,2.7,0,0,1,140.27,204.9Z" style="fill:#263238"></path><path d="M159.05,202.57a2.43,2.43,0,0,1-2,2.79,2.3,2.3,0,0,1-2.72-2.15,2.4,2.4,0,1,1,4.76-.64Z" style="fill:#263238"></path><polygon points="145.82 199.26 147.7 215.18 155.88 212.06 145.82 199.26" style="fill:#f28f8f"></polygon><path d="M138.85,196.87l-6,2.74a3.44,3.44,0,0,1,1.67-4.47A3.22,3.22,0,0,1,138.85,196.87Z" style="fill:#263238"></path><path d="M136.92,217.18l8.61,2.92a4.77,4.77,0,0,1-5.94,2.9A4.44,4.44,0,0,1,136.92,217.18Z" style="fill:#b16668"></path><path d="M137.13,219.19a4.47,4.47,0,0,1,4.22,4,4.45,4.45,0,0,1-1.76-.22,4.32,4.32,0,0,1-2.9-3.74A3.11,3.11,0,0,1,137.13,219.19Z" style="fill:#f28f8f"></path><path d="M159.82,197.56l-6.06-2.66a3.17,3.17,0,0,1,4.26-1.77A3.48,3.48,0,0,1,159.82,197.56Z" style="fill:#263238"></path><path d="M139.49,235.21c3.86,1.12,15.14,16.38,18.8,21.88l-4.14,10.56a48.76,48.76,0,0,1,6.53,8.43l-8.43,24.55s.76-32.71-12.76-57.6Z" style="fill:#263238"></path><path d="M151.13,281.91c3,7.79,3.42,25.85,3.42,25.85s-3-16.85-17.17-22.75c0-.81.15-12.35.15-12.35s-19-4.82-23-6.63l-4.09-22s2.73-6.82,5-7v4.75a221,221,0,0,1,17.93,15.78C143.73,267.55,148.15,274.12,151.13,281.91Z" style="fill:#37474f"></path><path d="M200.25,359.57c-3.06-2.57-7.49-6.13-11-7a19.87,19.87,0,0,0-2.49-.55,26.69,26.69,0,0,0,3.49-1,6.34,6.34,0,0,0,2.84-2.24c.26-.41.42-1,0-1.32a.84.84,0,0,0-.51-.14c-2.59.13-4.66-.1-7-.08a10.12,10.12,0,0,0-3.16.32c-.94.35-1.88.71-2.8,1.11-4.17,1.84-8,3.5-14.16,2.59l-2.58-.68-43.38-22.35-8.23-44.8s-2-27.78-13.25-34.52c-6,2.28-12.57,7.92-14.35,14-2.1,7.23-1.28,17.5,2.3,33.43,3,13.33,6.13,27,9.52,37.15s4.69,13.74,11.35,15.73c11.17,3.34,51.47,14.39,51.47,14.39a26.48,26.48,0,0,0,2.52.83c1.39.39,2.69,1.35,6,2.07,3.93.86,8.71-.93,12-1.39s9.07.62,12.26,1.62,6.5-4.06,8.09-3.61S203.32,362.15,200.25,359.57Z" style="fill:#ffa8a7"></path><path d="M185.14,350.32a11.75,11.75,0,0,0-4.65,1.15,25.82,25.82,0,0,1,6.23.56,26.69,26.69,0,0,0,3.49-1,6.69,6.69,0,0,0,2.59-1.89C191,350.56,187.4,350.36,185.14,350.32Z" style="fill:#f28f8f"></path><path d="M97.47,248.61c-7.77,3.32-12.92,7.38-15,15.93s-.61,16.06,1.14,25.11,5.85,23.76,5.85,23.76,16.63,1,26.22-5.65l-5.25-34.12S107.66,253.38,98,248.92" style="fill:#37474f"></path><path d="M110.84,168.39c-5.84,5.41-11.44,13.08-7.29,30.83a9.63,9.63,0,0,0-2.41,10c1.6,5.48,6.86,9.09,11.75,8s7.54-6.31,5.94-11.8c-1.21-4.1-5.61-8.07-9.23-7.81,0,0-3.47-7.59-.22-18.35,4.44-14.66,21.53-15.88,29.05-14.69C135.91,161,118.56,161.24,110.84,168.39Z" style="fill:#BA68C8"></path><path d="M110.84,168.39c-5.84,5.41-11.44,13.08-7.29,30.83a9.63,9.63,0,0,0-2.41,10c1.6,5.48,6.86,9.09,11.75,8s7.54-6.31,5.94-11.8c-1.21-4.1-5.61-8.07-9.23-7.81,0,0-3.47-7.59-.22-18.35,4.44-14.66,21.53-15.88,29.05-14.69C135.91,161,118.56,161.24,110.84,168.39Z" style="opacity:0.4"></path><path d="M119.87,205.23c-1.78-6.08-7.61-10.07-13-8.93a8.27,8.27,0,0,0-2.35.88c-.61.34-2.45,1.6-2.81,1.84-3.46,2.29-5,7-3.63,11.84,1.78,6.08,7.61,10.07,13,8.93a8.47,8.47,0,0,0,2.8-1.14c.44-.28,2.16-1.43,2.58-1.73C119.77,214.59,121.26,210,119.87,205.23Z" style="fill:#BA68C8"></path><path d="M119.87,205.23c-1.78-6.08-7.61-10.07-13-8.93a8.27,8.27,0,0,0-2.35.88c-.61.34-2.45,1.6-2.81,1.84-3.46,2.29-5,7-3.63,11.84,1.78,6.08,7.61,10.07,13,8.93a8.47,8.47,0,0,0,2.8-1.14c.44-.28,2.16-1.43,2.58-1.73C119.77,214.59,121.26,210,119.87,205.23Z" style="opacity:0.30000000000000004"></path><path d="M117.66,206.71c-1.78-6.07-7.61-10.07-13-8.92s-8.36,7-6.58,13.07,7.61,10.07,13,8.93S119.44,212.79,117.66,206.71Z" style="fill:#BA68C8"></path><path d="M117.66,206.71c-1.78-6.07-7.61-10.07-13-8.92s-8.36,7-6.58,13.07,7.61,10.07,13,8.93S119.44,212.79,117.66,206.71Z" style="opacity:0.1"></path><path d="M112.49,207.81c-.84-2.87-3.6-4.75-6.15-4.21s-4,3.3-3.11,6.17,3.6,4.75,6.15,4.21S113.33,210.67,112.49,207.81Z" style="fill:#37474f"></path></g></g><g id="freepik--Monitor--inject-165"><path id="freepik--shadow--inject-165" d="M231.75,422.84,211.53,411a1,1,0,0,1,0-2l79.29-45.78a3.69,3.69,0,0,1,3.36,0l20.2,11.75a1,1,0,0,1,0,1.94L235.1,422.85A3.67,3.67,0,0,1,231.75,422.84Z" style="opacity:0.1"></path><g id="freepik--monitor--inject-165"><path d="M305.54,356.14l5.31-63a5.39,5.39,0,0,0-2.36-4.72,6,6,0,0,0-5.4.1l-79.2,45.73a6.91,6.91,0,0,0-3.06,4.82l-5.3,63a5.35,5.35,0,0,0,2.35,4.72,6,6,0,0,0,5.41-.1L302.49,361A6.87,6.87,0,0,0,305.54,356.14Z" style="fill:#263238"></path><path d="M310.84,293.13l-5.3,63,3.85-62.54c.14-1.77-.5-2.44-2-1.56l-78.23,45.21a6.31,6.31,0,0,0-2,2.05l-5.23-3a6.12,6.12,0,0,1,2-2l79.19-45.73a6.05,6.05,0,0,1,5.42-.1A5.38,5.38,0,0,1,310.84,293.13Z" style="fill:#37474f"></path><path d="M220.76,405.09l5.31-63a6.87,6.87,0,0,1,3.05-4.82L307.35,292c1.54-.89,2.18-.21,2,1.56l-3.85,62.54a6.87,6.87,0,0,1-3.05,4.83l-79.2,45.72C221.75,407.58,220.62,406.87,220.76,405.09Z" style="fill:#455a64"></path><polygon points="259.67 367.01 259.06 385.99 281.06 373.34 275.7 357.8 259.67 367.01" style="fill:#263238"></polygon><polygon points="262.88 369.1 278.24 360.18 275.62 358.67 260.27 367.6 262.88 369.1" style="fill:#455a64"></polygon><path d="M286.64,386.83l-8.4-26.65-15.36,8.93-2.6-1.52L262,388.11l.43,5.9.25,1.26-1.12-.64-5-2.86a.84.84,0,0,0-.75-.1h0a.77.77,0,0,0-.35.73v.45a2.4,2.4,0,0,0,1.08,1.9l0,0,8.22,4.75h0a2.4,2.4,0,0,0,1,.26,2.3,2.3,0,0,0,1.19-.27l18.71-10.8A1.93,1.93,0,0,0,286.64,386.83Zm-11.81-2.28a3.23,3.23,0,0,1-5-2,6.19,6.19,0,0,1,2.75-6.54,3.21,3.21,0,0,1,5,2A6.18,6.18,0,0,1,274.83,384.55Z" style="fill:#37474f"></path><polygon points="255.83 391.68 262.21 388 263.5 396.58 255.83 391.68"></polygon><path d="M262.88,369.11l-2.61-1.51L262.43,394c.14.7-.26,1-.86.62l-5-2.86c-.61-.36-1.1-.06-1.1.64v.44a2.42,2.42,0,0,0,1.06,1.91s0,0,0,0l8.24,4.75h0a2.3,2.3,0,0,0,1,.26Z" style="fill:#263238"></path><path d="M274.83,384.55a3.21,3.21,0,0,1-4.18-.45,3.65,3.65,0,0,0,2.33-.54,6.16,6.16,0,0,0,2.75-6.53,3.82,3.82,0,0,0-.83-1.59,3.26,3.26,0,0,1,2.67,2.57A6.18,6.18,0,0,1,274.83,384.55Z" style="fill:#263238"></path><path d="M261.67,344.45l-1,12.15c-.07.8.37,1.17,1,.82a2.88,2.88,0,0,0,1.22-2.07l1-12.14c.07-.81-.37-1.17-1-.83A2.93,2.93,0,0,0,261.67,344.45Z" style="fill:#BA68C8"></path><path d="M265.61,342.18l-1,12.14c-.07.8.37,1.17,1,.83a2.92,2.92,0,0,0,1.22-2.08l1-12.14c.07-.8-.37-1.17-1-.82A2.91,2.91,0,0,0,265.61,342.18Z" style="fill:#BA68C8"></path><path d="M269.55,339.9l-1,12.15c-.07.8.37,1.17,1,.82a2.88,2.88,0,0,0,1.22-2.07l1-12.14c.07-.81-.37-1.17-1-.83A2.93,2.93,0,0,0,269.55,339.9Z" style="fill:#BA68C8"></path><path d="M273.49,337.63l-1,12.14c-.06.8.37,1.17,1,.83a2.92,2.92,0,0,0,1.22-2.08l1-12.14c.07-.8-.37-1.17-1-.82A2.91,2.91,0,0,0,273.49,337.63Z" style="fill:#BA68C8"></path></g></g></g></svg>