<svg xmlns="http://www.w3.org/2000/svg" viewBox="0 0 500 500"><g id="freepik--background-simple--inject-202"><path d="M176,149.23c-121.85,8.5-120,94.86-47.65,159.35,67.21,34.58,158.28,40.32,218,2.71,36.32-23.63,38.13-68.63,49-108.79C415,91.39,316,76.43,270,103.6S221.9,148.06,176,149.23Z" style="fill:#407BFF"></path><path d="M176,149.23c-121.85,8.5-120,94.86-47.65,159.35,67.21,34.58,158.28,40.32,218,2.71,36.32-23.63,38.13-68.63,49-108.79C415,91.39,316,76.43,270,103.6S221.9,148.06,176,149.23Z" style="fill:#fff;opacity:0.9"></path></g><g id="freepik--Shadow--inject-202"><ellipse id="freepik--path--inject-202" cx="250" cy="416.24" rx="193.89" ry="11.32" style="fill:#f5f5f5"></ellipse></g><g id="freepik--Gear--inject-202"><path d="M224.28,95.14l12.91.87a2.75,2.75,0,0,1,2.34,1.62l1.36,3a2.76,2.76,0,0,0,1.49,1.42,37.35,37.35,0,0,1,4.7,2.33,2.78,2.78,0,0,0,2,.32l3.24-.76a2.78,2.78,0,0,1,2.71.87l8.52,9.74a2.77,2.77,0,0,1,.5,2.81l-1.18,3.1a2.77,2.77,0,0,0,.05,2.06,37.7,37.7,0,0,1,1.68,5,2.72,2.72,0,0,0,1.21,1.66l2.82,1.75a2.75,2.75,0,0,1,1.3,2.53l-.86,12.92a2.74,2.74,0,0,1-1.63,2.33l-3,1.36a2.83,2.83,0,0,0-1.42,1.49,36,36,0,0,1-2.32,4.7,2.75,2.75,0,0,0-.32,2l.75,3.23a2.75,2.75,0,0,1-.87,2.71l-9.74,8.52a2.75,2.75,0,0,1-2.8.5l-3.11-1.18a2.79,2.79,0,0,0-2.05,0,38.72,38.72,0,0,1-5,1.68,2.76,2.76,0,0,0-1.66,1.21l-1.75,2.82a2.77,2.77,0,0,1-2.54,1.3l-12.91-.86a2.77,2.77,0,0,1-2.34-1.62l-1.36-3a2.76,2.76,0,0,0-1.49-1.42,37.35,37.35,0,0,1-4.7-2.33,2.77,2.77,0,0,0-2-.32l-3.23.76a2.76,2.76,0,0,1-2.71-.87l-8.53-9.74a2.79,2.79,0,0,1-.5-2.81l1.18-3.1a2.74,2.74,0,0,0-.05-2.05,38.34,38.34,0,0,1-1.68-5,2.72,2.72,0,0,0-1.21-1.66l-2.82-1.75a2.75,2.75,0,0,1-1.3-2.53l.86-12.92a2.78,2.78,0,0,1,1.63-2.34l3-1.35a2.76,2.76,0,0,0,1.42-1.49,37.48,37.48,0,0,1,2.33-4.71,2.79,2.79,0,0,0,.33-2l-.76-3.23a2.76,2.76,0,0,1,.87-2.71l9.74-8.52a2.76,2.76,0,0,1,2.8-.51l3.11,1.18a2.74,2.74,0,0,0,2.05,0,37.23,37.23,0,0,1,5-1.68A2.81,2.81,0,0,0,220,99.27l1.75-2.82A2.78,2.78,0,0,1,224.28,95.14Zm-20.75,40.37a24.49,24.49,0,1,0,26.06-22.8A24.5,24.5,0,0,0,203.53,135.51Z" style="fill:#407BFF"></path><path d="M275.45,149.72l4.43-1.5a1.38,1.38,0,0,1,1.37.3l.73.7a1.41,1.41,0,0,0,.93.36,13.68,13.68,0,0,1,1.82.12,1.33,1.33,0,0,0,1-.24l.82-.59a1.38,1.38,0,0,1,1.4-.11l4.19,2.08a1.36,1.36,0,0,1,.76,1.17l0,1a1.38,1.38,0,0,0,.4.92,13.07,13.07,0,0,1,1.2,1.37,1.39,1.39,0,0,0,.85.52l1,.16a1.35,1.35,0,0,1,1.06.91l1.5,4.43a1.35,1.35,0,0,1-.29,1.37l-.7.73a1.39,1.39,0,0,0-.36.93,13.79,13.79,0,0,1-.12,1.82,1.34,1.34,0,0,0,.23,1l.59.82a1.34,1.34,0,0,1,.12,1.39l-2.08,4.2a1.36,1.36,0,0,1-1.17.76l-1,0a1.33,1.33,0,0,0-.91.4,17.55,17.55,0,0,1-1.37,1.2,1.39,1.39,0,0,0-.52.85l-.16,1a1.35,1.35,0,0,1-.91,1.06l-4.43,1.5a1.35,1.35,0,0,1-1.37-.3l-.74-.69a1.32,1.32,0,0,0-.93-.36,13.64,13.64,0,0,1-1.81-.12,1.33,1.33,0,0,0-1,.23l-.82.59a1.36,1.36,0,0,1-1.4.12l-4.19-2.08a1.36,1.36,0,0,1-.76-1.18l0-1a1.38,1.38,0,0,0-.4-.91,14.18,14.18,0,0,1-1.2-1.37,1.3,1.3,0,0,0-.85-.52l-1-.16a1.4,1.4,0,0,1-1.07-.91l-1.5-4.44a1.36,1.36,0,0,1,.3-1.36l.7-.73a1.41,1.41,0,0,0,.36-.94,13.79,13.79,0,0,1,.12-1.82,1.35,1.35,0,0,0-.24-1l-.58-.82a1.34,1.34,0,0,1-.12-1.39l2.08-4.2a1.33,1.33,0,0,1,1.17-.75l1,0a1.38,1.38,0,0,0,.92-.4,14.18,14.18,0,0,1,1.37-1.2,1.39,1.39,0,0,0,.52-.85l.16-1A1.35,1.35,0,0,1,275.45,149.72Zm2.65,16.18a5,5,0,1,0,3.14-6.35A5,5,0,0,0,278.1,165.9Z" style="fill:#407BFF"></path><path d="M275.45,149.72l4.43-1.5a1.38,1.38,0,0,1,1.37.3l.73.7a1.41,1.41,0,0,0,.93.36,13.68,13.68,0,0,1,1.82.12,1.33,1.33,0,0,0,1-.24l.82-.59a1.38,1.38,0,0,1,1.4-.11l4.19,2.08a1.36,1.36,0,0,1,.76,1.17l0,1a1.38,1.38,0,0,0,.4.92,13.07,13.07,0,0,1,1.2,1.37,1.39,1.39,0,0,0,.85.52l1,.16a1.35,1.35,0,0,1,1.06.91l1.5,4.43a1.35,1.35,0,0,1-.29,1.37l-.7.73a1.39,1.39,0,0,0-.36.93,13.79,13.79,0,0,1-.12,1.82,1.34,1.34,0,0,0,.23,1l.59.82a1.34,1.34,0,0,1,.12,1.39l-2.08,4.2a1.36,1.36,0,0,1-1.17.76l-1,0a1.33,1.33,0,0,0-.91.4,17.55,17.55,0,0,1-1.37,1.2,1.39,1.39,0,0,0-.52.85l-.16,1a1.35,1.35,0,0,1-.91,1.06l-4.43,1.5a1.35,1.35,0,0,1-1.37-.3l-.74-.69a1.32,1.32,0,0,0-.93-.36,13.64,13.64,0,0,1-1.81-.12,1.33,1.33,0,0,0-1,.23l-.82.59a1.36,1.36,0,0,1-1.4.12l-4.19-2.08a1.36,1.36,0,0,1-.76-1.18l0-1a1.38,1.38,0,0,0-.4-.91,14.18,14.18,0,0,1-1.2-1.37,1.3,1.3,0,0,0-.85-.52l-1-.16a1.4,1.4,0,0,1-1.07-.91l-1.5-4.44a1.36,1.36,0,0,1,.3-1.36l.7-.73a1.41,1.41,0,0,0,.36-.94,13.79,13.79,0,0,1,.12-1.82,1.35,1.35,0,0,0-.24-1l-.58-.82a1.34,1.34,0,0,1-.12-1.39l2.08-4.2a1.33,1.33,0,0,1,1.17-.75l1,0a1.38,1.38,0,0,0,.92-.4,14.18,14.18,0,0,1,1.37-1.2,1.39,1.39,0,0,0,.52-.85l.16-1A1.35,1.35,0,0,1,275.45,149.72Zm2.65,16.18a5,5,0,1,0,3.14-6.35A5,5,0,0,0,278.1,165.9Z" style="fill:#fff;opacity:0.5"></path><path d="M249.9,197.74l5.5-9.53a2.35,2.35,0,0,0-2-3.52h-11a2.34,2.34,0,0,0-2,3.52l5.5,9.53A2.35,2.35,0,0,0,249.9,197.74Z" style="fill:#407BFF"></path></g></svg>