<svg xmlns="http://www.w3.org/2000/svg" viewBox="0 0 500 500"><g id="freepik--Character--inject-95"><polygon points="143.36 407.53 151.19 404.56 146.39 385.64 138.56 388.61 143.36 407.53" style="fill:#b55b52"></polygon><polygon points="84.53 407.69 92.9 407.69 94.16 388.29 85.78 388.29 84.53 407.69" style="fill:#b55b52"></polygon><path d="M93.74,406.72H83.53a.69.69,0,0,0-.69.57l-1.28,7.44a1.31,1.31,0,0,0,1.3,1.49c3.28-.06,5.67-.25,9.81-.25,2.54,0,10.23.27,13.75.27s3.8-3.48,2.34-3.8c-6.52-1.41-11.48-3.35-13.64-5.21A2.14,2.14,0,0,0,93.74,406.72Z" style="fill:#263238"></path><path d="M150.79,403.68l-8.55,3.24a.74.74,0,0,0-.47.79l1.1,7.54a1.21,1.21,0,0,0,1.65,1c3.06-1.22,5.67-2.77,9.57-4.17a64.73,64.73,0,0,0,12.78-5.75c2.9-1.84,1.68-5.34.31-4.79-6.22,2.5-7.75,3.32-14.28,2.06A3.87,3.87,0,0,0,150.79,403.68Z" style="fill:#263238"></path><path d="M128.7,152.49c2.63,4.66,5.41,9.46,8.21,14.1s5.67,9.28,8.72,13.6c.73,1.09,1.55,2.14,2.29,3.15a2.53,2.53,0,0,0,.65.76,2.47,2.47,0,0,0,1.52.24,10.74,10.74,0,0,0,2.79-.67,33.78,33.78,0,0,0,6.46-3.38c1.08-.71,2.18-1.44,3.25-2.22s2.15-1.62,3.13-2.37l4.69,4.18a44.24,44.24,0,0,1-2.75,3.57,44.8,44.8,0,0,1-3,3.31,39,39,0,0,1-3.43,3.07,28.58,28.58,0,0,1-4,2.74,19.91,19.91,0,0,1-5.08,2.07,13.51,13.51,0,0,1-6.75,0,12.71,12.71,0,0,1-6.17-3.89c-1-1.16-2-2.25-2.9-3.4a155.64,155.64,0,0,1-10.09-14.05c-3.1-4.82-6-9.65-8.66-14.79Z" style="fill:#b65b52"></path><path d="M113.84,152.88c-2.25,7.68,13.64,28.62,13.64,28.62l16-10.31a102.06,102.06,0,0,0-11.11-18.84C125.84,144,116.32,144.45,113.84,152.88Z" style="fill:#407BFF"></path><path d="M113.84,152.88c-2.25,7.68,13.64,28.62,13.64,28.62l16-10.31a102.06,102.06,0,0,0-11.11-18.84C125.84,144,116.32,144.45,113.84,152.88Z" style="opacity:0.2"></path><path d="M123.61,161.89c3.3,1.41,8.15,9.35,10.68,15.24l-6.81,4.37a128.61,128.61,0,0,1-10.22-16C119.41,163.11,121.87,161.15,123.61,161.89Z" style="opacity:0.2"></path><path d="M164.73,178.31l2.94-8.23,8.33,4s-1.73,7.33-7.83,7.32Z" style="fill:#b55b52"></path><polygon points="175.08 164.67 178.61 168.56 176 174.06 167.67 170.08 175.08 164.67" style="fill:#b55b52"></polygon><polygon points="146.39 385.65 148.86 395.4 141.03 398.37 138.56 388.62 146.39 385.65" style="opacity:0.2"></polygon><polygon points="85.78 388.3 94.16 388.3 93.51 398.29 85.13 398.29 85.78 388.3" style="opacity:0.2"></polygon><path d="M76.52,149.48c9,31.81,7.54,65.56,8.1,72.42l44.76-1.68c7.61-47.42-6-73.81-6-73.81s-2.87-.55-6.78-.95c-1.22-.13-2.54-.24-3.92-.31-.76-.05-1.53-.07-2.31-.09a165.25,165.25,0,0,0-19,1.42c-1.19.15-2.4.32-3.58.52s-2.15.38-3.16.58C80,148.49,76.52,149.48,76.52,149.48Z" style="fill:#407BFF"></path><path d="M76.52,149.48c9,31.81,7.54,65.56,8.1,72.42l44.76-1.68c7.61-47.42-6-73.81-6-73.81s-2.87-.55-6.78-.95c-1.22-.13-2.54-.24-3.92-.31-.76-.05-1.53-.07-2.31-.09a165.25,165.25,0,0,0-19,1.42c-1.19.15-2.4.32-3.58.52s-2.15.38-3.16.58C80,148.49,76.52,149.48,76.52,149.48Z" style="opacity:0.2"></path><path d="M86.05,163.13c.8,3.07-.12,17.12-3.33,20.58-.44-4.5-1-9.19-1.8-14Z" style="opacity:0.2"></path><path d="M91.62,125c1.65,6,3.68,17.12-.29,21.51,3.57,3.06,8.19,6.55,15.46,6.26s5.64-5.18,3.53-7.67c-6.94-1.12-7.14-6.18-6.3-11Z" style="fill:#b55b52"></path><polygon points="106.98 151.7 108.3 152.59 103.48 154 104.72 151.76 106.98 151.7" style="fill:#407BFF"></polygon><polygon points="108.8 151.23 108.3 152.59 113.14 154 112.81 151.41 108.8 151.23" style="fill:#407BFF"></polygon><path d="M88.44,146l1.9-.95a1.85,1.85,0,0,1,1.92.16A38.13,38.13,0,0,0,107,151.7c-3.82,1.82-2.88,6.72-2.88,6.72s-12.15-4-16-11.26A.86.86,0,0,1,88.44,146Z" style="fill:#fff"></path><path d="M112.44,144.75l-2.79-.42a.37.37,0,0,0-.36.58c1,1.39,2.6,4.44-.49,6.32,3.82,1.82,5,6.29,5,6.29s5-5.37-.82-12.46A.93.93,0,0,0,112.44,144.75Z" style="fill:#fff"></path><path d="M96.67,128.66,104,134a19.21,19.21,0,0,0-.33,3.42c-2.63-.18-6.42-2.77-6.9-5.48A9.29,9.29,0,0,1,96.67,128.66Z" style="opacity:0.2"></path><path d="M112.87,112.61c-.34,2.91-3.13,5.41-4.93,6L105.69,106C110.74,102.43,113.34,108.53,112.87,112.61Z" style="fill:#263238"></path><path d="M89.09,116.1c1.46,8.18,1.89,13.05,6.54,16.8,7,5.64,16.73.69,17.75-7.76.92-7.61-1.62-19.71-10.06-22.06A11.34,11.34,0,0,0,89.09,116.1Z" style="fill:#b55b52"></path><path d="M90.65,121.62c3.79,2,5.45-2.51,5.49-4.35,0-2.92-1.22-6.13-2.73-7.3,7.32,0,21.8-.36,18.14-7.33s-11-6.18-16.47-2.36c-2.91,2-12.33.26-10,5.69C80.17,108.58,84.43,118.31,90.65,121.62Z" style="fill:#263238"></path><path d="M85.88,105.52a6,6,0,0,1-3.61-1.23,3.43,3.43,0,0,0,3.2,2.65Z" style="fill:#263238"></path><path d="M86,122.83a8,8,0,0,0,4.57,4c2.64.85,3.24-1.57,2.6-4.11-.58-2.3-1.82-5.41-4.51-5.16S84.88,120.53,86,122.83Z" style="fill:#b55b52"></path><path d="M139.13,308.75c-3.4-25.33-9.75-88.53-9.75-88.53L100,221.33s13.88,63.15,18.9,88.76,19,87.41,19,87.41l13.26-5S142.68,335.09,139.13,308.75Z" style="fill:#263238"></path><path d="M111,238.35a15.58,15.58,0,0,0-6.55,3.35c2.78,12.77,6.41,29.58,9.53,44.39C116.06,273.26,116.12,249.05,111,238.35Z" style="opacity:0.2"></path><path d="M113.51,220.82s-6.25,68.56-9.11,92.92c-3.13,26.69-7,82.62-7,82.62H82s-.63-49.47,1.36-75.59c2.27-29.75,1.25-98.87,1.25-98.87Z" style="fill:#263238"></path><polygon points="99.4 396.69 81.34 396.69 80.96 391.29 101.12 390.94 99.4 396.69" style="fill:#407BFF"></polygon><polygon points="152.89 392.16 137.09 398.15 135.16 393.04 152.72 386.08 152.89 392.16" style="fill:#407BFF"></polygon><path d="M101.86,117c.07.68.49,1.18.93,1.13s.73-.64.65-1.31-.49-1.17-.93-1.12S101.78,116.29,101.86,117Z" style="fill:#263238"></path><path d="M109.44,116.09c.08.67.5,1.17.93,1.12s.74-.63.66-1.3-.5-1.18-.94-1.13S109.36,115.42,109.44,116.09Z" style="fill:#263238"></path><path d="M107.07,116.7a24.13,24.13,0,0,0,3.86,5.37,3.86,3.86,0,0,1-3.13,1Z" style="fill:#a02724"></path><path d="M105.18,125.16a5.57,5.57,0,0,1-4.05-1.76.2.2,0,1,1,.31-.25,5.36,5.36,0,0,0,4.57,1.58.19.19,0,0,1,.22.17.2.2,0,0,1-.17.22A5.33,5.33,0,0,1,105.18,125.16Z" style="fill:#263238"></path><path d="M99.24,114.78a.35.35,0,0,1-.2,0,.39.39,0,0,1-.14-.54,3.94,3.94,0,0,1,3-2,.4.4,0,0,1,.42.38.39.39,0,0,1-.38.41h0a3.18,3.18,0,0,0-2.38,1.61A.36.36,0,0,1,99.24,114.78Z" style="fill:#263238"></path><path d="M112.41,113.11a.41.41,0,0,1-.33-.19,3.12,3.12,0,0,0-2.43-1.52.4.4,0,0,1,0-.8,4,4,0,0,1,3.09,1.9.39.39,0,0,1-.12.54A.38.38,0,0,1,112.41,113.11Z" style="fill:#263238"></path><path d="M96.58,408.18a10.18,10.18,0,0,1-2.21-.3.2.2,0,0,1-.15-.16.18.18,0,0,1,.08-.2c.29-.19,2.91-1.85,3.86-1.38a.68.68,0,0,1,.37.56,1.13,1.13,0,0,1-.36,1.05A2.42,2.42,0,0,1,96.58,408.18Zm-1.64-.58c1.43.28,2.52.23,3-.15a.8.8,0,0,0,.24-.72c0-.16-.09-.21-.14-.23C97.51,406.25,96,407,94.94,407.6Z" style="fill:#407BFF"></path><path d="M94.42,407.88a.23.23,0,0,1-.11,0,.22.22,0,0,1-.1-.18c0-.1.09-2.52,1-3.31a1,1,0,0,1,.83-.26h0a.69.69,0,0,1,.66.52c.22.93-1.36,2.77-2.21,3.24A.13.13,0,0,1,94.42,407.88Zm1.52-3.39a.67.67,0,0,0-.44.17,4.54,4.54,0,0,0-.86,2.63c.83-.66,1.82-2,1.69-2.6,0-.05,0-.16-.3-.2h-.09Z" style="fill:#407BFF"></path><path d="M152,404.47a.19.19,0,0,1-.18-.11.2.2,0,0,1,0-.22c.29-.32,2.83-3.11,4-2.94a.62.62,0,0,1,.5.37h0a1.1,1.1,0,0,1,0,1c-.57,1.08-2.93,1.63-4.29,1.85Zm3.69-2.88c-.67,0-2.13,1.31-3.15,2.38,1.84-.37,3.1-.94,3.42-1.55a.74.74,0,0,0,0-.68.24.24,0,0,0-.19-.15Z" style="fill:#407BFF"></path><path d="M152,404.47h-.06a.2.2,0,0,1-.14-.14c0-.09-.61-2.28.07-3.48a1.45,1.45,0,0,1,.91-.7h0c.53-.15.77.06.89.25.48.83-.75,3.24-1.54,4A.16.16,0,0,1,152,404.47Zm1.09-4-.21,0h0a1,1,0,0,0-.66.52,4.62,4.62,0,0,0-.12,2.81c.74-1,1.51-2.76,1.22-3.26C153.28,400.56,153.23,400.48,153.06,400.49Zm-.26-.16h0Z" style="fill:#407BFF"></path><path d="M85.72,161.32c-2.51,5.17-5.07,10.51-7.55,15.77-1.23,2.65-2.47,5.29-3.63,7.94l-1.74,4L72,191l-.2.5-.15.37c-.1.23-.17.48-.26.71a12.2,12.2,0,0,0-.32,6.09,21,21,0,0,0,2.63,6.65,41.73,41.73,0,0,0,4.76,6.44c.91,1,1.87,2.06,2.87,3,.5.48,1,1,1.53,1.43s1.06,1,1.5,1.35L81,222.89a40.15,40.15,0,0,1-4.19-2.46c-1.33-.87-2.63-1.79-3.89-2.79a43,43,0,0,1-7-7,29.33,29.33,0,0,1-5.05-9.36,22.54,22.54,0,0,1-.49-11.58c.13-.47.23-1,.38-1.42l.39-1.24.7-2.21c.5-1.45,1-2.91,1.52-4.34,1.05-2.87,2.15-5.71,3.34-8.51C69,166.4,71.57,161,74.43,155.53Z" style="fill:#b65b52"></path><path d="M76.52,149.48c-7.64,2.39-15.15,28.3-15.15,28.3L79,185.52s5.72-12.52,9-22.33C91.63,152.5,85.77,146.58,76.52,149.48Z" style="fill:#407BFF"></path><path d="M76.52,149.48c-7.64,2.39-15.15,28.3-15.15,28.3L79,185.52s5.72-12.52,9-22.33C91.63,152.5,85.77,146.58,76.52,149.48Z" style="opacity:0.2"></path><path d="M82.46,215.92l7.31,4.34-7.11,7.08s-6.17-4.75-4.33-8.47Z" style="fill:#b55b52"></path><polygon points="94.66 227.19 87.32 232.33 82.66 227.34 89.77 220.26 94.66 227.19" style="fill:#b55b52"></polygon></g></svg>